#N canvas 44 51 450 300 10;
#X obj 152 58 inlet;
#X obj 85 199 outlet~;
#X obj 83 80 loadbang;
#X obj 83 105 \$1;
#X obj 83 135 osc~;
#X obj 84 171 *~;
#X obj 152 139 line~;
#X msg 152 109 \$1 \, 0 300;
#X obj 152 83 / 110;
#X connect 0 0 8 0;
#X connect 2 0 3 0;
#X connect 3 0 4 0;
#X connect 4 0 5 0;
#X connect 5 0 1 0;
#X connect 6 0 5 1;
#X connect 7 0 6 0;
#X connect 8 0 7 0;
