#N canvas 396 93 485 798 10;
#X obj 13 13 inlet;
#X obj 285 174 t b b;
#X obj 204 67 loadbang;
#X msg 285 218 1;
#X obj 230 402 table \$0-sin 1024;
#X obj 230 440 loadbang;
#X obj 230 467 \$0;
#X obj 34 556 * 1024;
#X obj 34 584 tabread \$0-sin;
#X obj 315 195 \$2;
#X obj 315 217 moses 1;
#X msg 315 240 20;
#X obj 285 315 metro;
#X obj 15 765 outlet;
#X obj 127 165 \$1;
#X msg 219 87 bang;
#X msg 230 495 \; \$1-sin cosinesum 1024 0.5 -0.5 \;;
#X obj 158 585 moses 1;
#X obj 202 609 * -1;
#X obj 202 633 + 2;
#X obj 158 560 * 2;
#N canvas 0 0 804 690 gate 0;
#X obj 199 96 == 1;
#X obj 35 39 inlet;
#X obj 148 39 inlet;
#X obj 223 142 spigot;
#X obj 300 143 spigot;
#X obj 148 189 outlet;
#X obj 223 39 inlet;
#X obj 148 141 spigot 1;
#X obj 300 39 inlet;
#X obj 260 97 == 2;
#X obj 337 98 == 3;
#X connect 0 0 7 1;
#X connect 1 0 0 0;
#X connect 1 0 9 0;
#X connect 1 0 10 0;
#X connect 2 0 7 0;
#X connect 3 0 5 0;
#X connect 4 0 5 0;
#X connect 6 0 3 0;
#X connect 7 0 5 0;
#X connect 8 0 4 0;
#X connect 9 0 3 1;
#X connect 10 0 4 1;
#X restore 15 735 pd gate 3;
#X msg 13 75 1;
#X msg 51 75 2;
#X msg 89 74 3;
#X obj 13 42 route sin tri saw;
#X obj 315 282 f;
#X obj 127 369 /;
#X obj 127 323 pack f f;
#X msg 127 347 \$2 \$1;
#X obj 110 430 +;
#X obj 110 408 f;
#X obj 110 464 moses 1;
#X obj 154 486 - 1;
#X obj 204 113 t b b;
#X obj 73 495 f;
#X obj 336 20 inlet;
#X obj 336 78 t b f;
#X msg 353 48 0;
#X floatatom 152 517 5 0 0 0 - - -;
#X obj 127 199 max 1;
#X connect 0 0 25 0;
#X connect 1 0 3 0;
#X connect 1 1 9 0;
#X connect 2 0 34 0;
#X connect 3 0 12 0;
#X connect 5 0 6 0;
#X connect 6 0 16 0;
#X connect 7 0 8 0;
#X connect 8 0 21 1;
#X connect 9 0 10 0;
#X connect 10 0 11 0;
#X connect 10 1 26 0;
#X connect 11 0 26 0;
#X connect 12 0 31 0;
#X connect 14 0 40 0;
#X connect 15 0 34 0;
#X connect 17 0 21 2;
#X connect 17 1 18 0;
#X connect 18 0 19 0;
#X connect 19 0 21 2;
#X connect 20 0 17 0;
#X connect 21 0 13 0;
#X connect 22 0 21 0;
#X connect 23 0 21 0;
#X connect 24 0 21 0;
#X connect 25 0 22 0;
#X connect 25 1 23 0;
#X connect 25 2 24 0;
#X connect 25 3 14 0;
#X connect 26 0 12 1;
#X connect 26 0 28 1;
#X connect 27 0 30 1;
#X connect 28 0 29 0;
#X connect 29 0 27 0;
#X connect 30 0 32 0;
#X connect 31 0 30 0;
#X connect 32 0 31 1;
#X connect 32 0 35 0;
#X connect 32 1 33 0;
#X connect 33 0 32 0;
#X connect 34 0 14 0;
#X connect 34 1 1 0;
#X connect 35 0 7 0;
#X connect 35 0 20 0;
#X connect 35 0 21 3;
#X connect 36 0 37 0;
#X connect 37 0 34 0;
#X connect 37 1 31 1;
#X connect 38 0 37 0;
#X connect 40 0 28 0;
