#N canvas 322 27 924 900 10;
#X msg 159 113 stop;
#X msg 115 167 0;
#X obj 63 165 metro 1;
#X obj 100 208 + 1;
#X msg 135 208 bang;
#X obj 98 31 route rec play;
#X obj 98 0 inlet;
#X obj 95 73 sel start stop;
#X obj 479 59 sel start stop;
#X obj 98 52 list \$1;
#X obj 475 37 list \$1;
#X obj 67 307 f;
#X obj 252 145 hsl 128 15 0 12586 0 0 empty \$0-start start 138 6 0
10 -262144 -258113 -1 9000 1;
#X obj 251 165 hsl 128 15 0 12586 0 0 empty \$0-stop stop 138 6 0 10
-262144 -258113 -1 11100 1;
#X obj 193 540 s \$0-stop;
#X text 464 407 offset;
#X obj 71 383 t b f f f;
#X obj 71 530 s \$0-start;
#X msg 77 466 0;
#X msg 198 422 range 0 \$1;
#X msg 89 440 range 0 \$1;
#X obj 600 8 inlet;
#X obj 475 118 t b b b;
#X obj 743 747 outlet;
#X obj 714 17 inlet;
#X obj 275 502 \$0;
#X obj 88 106 t b b b b;
#X obj 56 205 f;
#X obj 405 132 bng 15 250 50 0 empty empty empty 17 7 0 10 -262144
-4160 -1;
#X obj 126 326 tabwrite \$0-note;
#X obj 202 -3 inlet;
#X obj 262 -3 inlet;
#X obj 231 319 tabwrite \$0-vel;
#X obj 414 520 tabread \$0-note;
#X obj 434 747 outlet;
#X obj 515 748 outlet;
#X obj 525 519 tabread \$0-vel;
#X obj 426 403 + 0;
#X obj 425 380 * 1;
#X obj 427 456 int;
#X obj 625 390 bng 15 250 50 0 empty empty empty 17 7 0 10 -262144
-1 -1;
#X obj 427 432 moses;
#X msg 284 555 \; \$1-note const 0;
#X msg 246 591 \; \$1-vel const 0;
#X msg 472 266 0;
#X obj 420 264 metro 1;
#X obj 457 307 + 1;
#X obj 420 306 f;
#X msg 525 139 stop;
#X obj 142 289 f;
#X obj 221 294 f;
#X obj 10 644 table \$0-note 100000;
#X obj 14 669 table \$0-vel 100000;
#X obj 139 261 t b b f f;
#X obj 415 556 t f f b;
#X obj 444 596 f;
#X obj 424 635 sel;
#X obj 431 707 f;
#X obj 438 678 t f b;
#X obj 519 556 t f f b;
#X obj 548 596 f;
#X obj 528 635 sel;
#X obj 520 720 f;
#X obj 542 678 t b f;
#X obj 532 102 t b b b b;
#X obj 427 481 spigot;
#X msg 519 436 1;
#X msg 559 434 0;
#X msg 594 434 0;
#X msg 614 478 0;
#X connect 0 0 2 0;
#X connect 0 0 4 0;
#X connect 1 0 27 0;
#X connect 2 0 27 0;
#X connect 3 0 27 1;
#X connect 4 0 11 0;
#X connect 5 0 9 0;
#X connect 5 1 10 0;
#X connect 6 0 5 0;
#X connect 7 0 26 0;
#X connect 7 1 0 0;
#X connect 8 0 22 0;
#X connect 8 1 64 0;
#X connect 9 0 7 0;
#X connect 10 0 8 0;
#X connect 11 0 16 0;
#X connect 12 0 37 1;
#X connect 13 0 41 1;
#X connect 16 0 18 0;
#X connect 16 1 20 0;
#X connect 16 2 14 0;
#X connect 16 3 19 0;
#X connect 18 0 17 0;
#X connect 19 0 14 0;
#X connect 20 0 17 0;
#X connect 21 0 38 1;
#X connect 22 0 66 0;
#X connect 22 1 45 0;
#X connect 22 2 44 0;
#X connect 24 0 44 0;
#X connect 25 0 42 0;
#X connect 25 0 43 0;
#X connect 26 0 2 0;
#X connect 26 1 1 0;
#X connect 26 3 25 0;
#X connect 27 0 3 0;
#X connect 27 0 11 1;
#X connect 27 0 53 0;
#X connect 30 0 49 1;
#X connect 31 0 50 1;
#X connect 33 0 54 0;
#X connect 36 0 59 0;
#X connect 37 0 41 0;
#X connect 38 0 37 0;
#X connect 39 0 65 0;
#X connect 40 0 23 0;
#X connect 40 0 28 0;
#X connect 40 0 44 0;
#X connect 41 0 39 0;
#X connect 41 1 40 0;
#X connect 44 0 47 0;
#X connect 45 0 47 0;
#X connect 46 0 47 1;
#X connect 47 0 46 0;
#X connect 47 0 38 0;
#X connect 48 0 45 0;
#X connect 49 0 29 0;
#X connect 50 0 32 0;
#X connect 53 0 49 0;
#X connect 53 1 50 0;
#X connect 53 2 29 1;
#X connect 53 3 32 1;
#X connect 54 0 55 1;
#X connect 54 1 56 0;
#X connect 54 2 55 0;
#X connect 55 0 56 1;
#X connect 56 1 58 0;
#X connect 57 0 34 0;
#X connect 58 0 57 0;
#X connect 58 1 62 0;
#X connect 59 0 60 1;
#X connect 59 1 61 0;
#X connect 59 2 60 0;
#X connect 60 0 61 1;
#X connect 61 1 63 0;
#X connect 62 0 35 0;
#X connect 63 0 57 0;
#X connect 63 1 62 0;
#X connect 64 0 48 0;
#X connect 64 1 68 0;
#X connect 64 2 69 0;
#X connect 64 3 67 0;
#X connect 65 0 33 0;
#X connect 65 0 36 0;
#X connect 66 0 65 1;
#X connect 67 0 65 1;
#X connect 68 0 58 0;
#X connect 69 0 63 0;
#X coords 0 -1 1 1 185 60 1 240 125;
