#N canvas 631 191 321 262 10;
#X obj 25 74 stripnote;
#X obj 100 75 t b f;
#X obj 99 144 sel 0;
#X obj 162 144 sel;
#X msg 180 171 0;
#X obj 25 14 inlet;
#X obj 180 17 inlet;
#X obj 25 203 outlet;
#X obj 126 205 outlet;
#X obj 100 103 f;
#X obj 162 101 f;
#X connect 0 0 3 1;
#X connect 0 0 7 0;
#X connect 1 0 9 0;
#X connect 1 1 10 1;
#X connect 2 0 10 0;
#X connect 2 1 8 0;
#X connect 3 0 4 0;
#X connect 4 0 8 0;
#X connect 5 0 0 0;
#X connect 5 0 1 0;
#X connect 6 0 0 1;
#X connect 6 0 9 1;
#X connect 9 0 2 0;
#X connect 10 0 3 0;
