#N canvas 429 51 892 574 10;
#X obj 16 34 route rec play;
#X obj 16 3 inlet;
#X obj 16 76 sel start stop;
#X obj 407 68 sel start stop;
#X obj 16 55 list \$1;
#X obj 407 44 list \$1;
#X obj 670 155 hsl 128 30 0 976 0 0 \$0-start-s \$0-start start 136
15 0 10 -262144 -258113 -1 0 1;
#X obj 670 221 hsl 128 30 0.01 10 1 1 \$0-speed-s \$0-speed speed 136
15 0 10 -262144 -258113 -1 8467 1;
#X obj 452 3 inlet;
#X obj 837 513 outlet;
#X obj 714 6 inlet;
#X obj 821 108 bng 30 250 50 0 \$0-reset-s \$0-reset empty 17 7 0 10
-262144 -1 -1;
#X obj 260 1 inlet;
#X obj 667 119 tgl 32 0 \$0-record-s \$0-record empty 17 7 0 10 -262144
-1 -1 0 1;
#X obj 714 49 s \$0-reset;
#X obj 483 195 r \$0-reset-s;
#X obj 670 188 hsl 128 30 0 976 0 0 \$0-stop-s \$0-stop stop 136 15
0 10 -262144 -258113 -1 0 1;
#X obj 260 116 spigot;
#X obj 293 82 r \$0-record-s;
#X obj 407 508 outlet;
#X obj 16 465 table \$0-note 100000;
#X obj 407 230 metro 10;
#X obj 452 198 /;
#X obj 505 106 r \$0-speed-s;
#X obj 452 142 t b f;
#X msg 447 108 stop;
#X obj 407 257 f;
#X msg 483 232 0;
#X obj 444 257 + 1;
#X obj 407 435 tabread \$0-note;
#X obj 407 336 +;
#X obj 407 372 moses 100000;
#X obj 476 344 r \$0-stop-s;
#X obj 422 311 r \$0-start-s;
#X obj 671 444 s \$0-reset;
#X obj 671 415 bng 15 250 50 0 empty empty empty 17 7 0 10 -262144
-1 -1;
#X obj 452 167 10;
#X obj 17 492 table \$0-velocity 100000;
#X obj 321 1 inlet;
#X obj 630 4 inlet;
#X obj 320 150 spigot;
#X obj 530 509 outlet;
#X obj 530 439 tabread \$0-velocity;
#N canvas 44 51 771 659 record 0;
#X obj 12 18 inlet;
#X obj 169 23 inlet;
#X obj 312 21 inlet;
#X obj 419 24 inlet;
#X obj 538 30 inlet;
#X obj 108 165 \$0;
#X obj 144 170 s \$0-record;
#X msg 144 136 1;
#X msg 108 199 \; \$1-note const 0;
#X obj 312 414 tabwrite \$0-note;
#X obj 12 163 metro 10;
#X obj 12 232 f;
#X msg 72 163 0;
#X obj 41 233 + 1;
#X msg 169 52 stop;
#X obj 107 500 s \$0-stop;
#X obj 12 508 s \$0-start;
#X msg 12 469 0;
#X msg 107 448 range 0 \$1;
#X msg 27 446 range 0 \$1;
#X obj 12 415 t b f f f b;
#X obj 75 584 s \$0-speed;
#X msg 75 551 1;
#X obj 12 104 t b b b b;
#X obj 419 417 tabwrite \$0-velocity;
#X msg 85 238 \; \$1-velocity const 0;
#X obj 153 410 s \$0-pos-s;
#X msg 153 383 range 0 \$1;
#X connect 0 0 23 0;
#X connect 1 0 14 0;
#X connect 2 0 9 0;
#X connect 3 0 24 0;
#X connect 4 0 9 1;
#X connect 4 0 24 1;
#X connect 5 0 8 0;
#X connect 5 0 25 0;
#X connect 7 0 6 0;
#X connect 10 0 11 0;
#X connect 11 0 13 0;
#X connect 11 0 9 1;
#X connect 11 0 20 0;
#X connect 11 0 24 1;
#X connect 11 0 27 0;
#X connect 12 0 11 1;
#X connect 13 0 11 1;
#X connect 14 0 10 0;
#X connect 17 0 16 0;
#X connect 18 0 15 0;
#X connect 19 0 16 0;
#X connect 20 0 17 0;
#X connect 20 1 19 0;
#X connect 20 2 15 0;
#X connect 20 3 18 0;
#X connect 20 4 22 0;
#X connect 22 0 21 0;
#X connect 23 0 10 0;
#X connect 23 1 12 0;
#X connect 23 2 5 0;
#X connect 23 3 7 0;
#X connect 27 0 26 0;
#X restore 17 428 pd record;
#X obj 630 49 s \$0-record;
#N canvas 315 252 350 322 filter-note-on-off 0;
#X obj 35 43 inlet;
#X obj 156 42 inlet;
#X obj 69 252 outlet;
#X obj 201 253 outlet;
#X obj 35 85 t f f b;
#X obj 74 118 f;
#X obj 54 146 sel;
#X obj 69 207 f;
#X obj 69 169 t f b;
#X obj 156 82 t f f b;
#X obj 195 112 f;
#X obj 159 124 sel;
#X obj 201 204 f;
#X obj 174 151 t b f;
#X connect 0 0 4 0;
#X connect 1 0 9 0;
#X connect 4 0 5 1;
#X connect 4 1 6 0;
#X connect 4 2 5 0;
#X connect 5 0 6 1;
#X connect 6 1 8 0;
#X connect 7 0 2 0;
#X connect 8 0 7 0;
#X connect 8 1 12 0;
#X connect 9 0 10 1;
#X connect 9 1 11 0;
#X connect 9 2 10 0;
#X connect 10 0 11 1;
#X connect 11 1 13 0;
#X connect 12 0 3 0;
#X connect 13 0 7 0;
#X connect 13 1 12 0;
#X restore 407 475 pd filter-note-on-off;
#X obj 670 257 hsl 128 15 0 976 0 0 empty \$0-pos-s position 136 7
0 10 -228856 -1 -1 0 1;
#X obj 528 308 s \$0-pos-s;
#X obj 630 26 bangonce 400;
#X obj 302 442 stripnote;
#X obj 407 94 t b b;
#X connect 0 0 4 0;
#X connect 0 1 5 0;
#X connect 1 0 0 0;
#X connect 2 0 43 0;
#X connect 2 1 43 1;
#X connect 3 0 50 0;
#X connect 3 1 25 0;
#X connect 4 0 2 0;
#X connect 5 0 3 0;
#X connect 8 0 24 0;
#X connect 10 0 14 0;
#X connect 12 0 17 0;
#X connect 15 0 9 0;
#X connect 15 0 27 0;
#X connect 17 0 43 2;
#X connect 17 0 49 0;
#X connect 18 0 17 1;
#X connect 18 0 40 1;
#X connect 21 0 26 0;
#X connect 22 0 21 1;
#X connect 23 0 24 0;
#X connect 24 0 36 0;
#X connect 24 1 22 1;
#X connect 25 0 21 0;
#X connect 26 0 28 0;
#X connect 26 0 30 0;
#X connect 26 0 47 0;
#X connect 27 0 26 1;
#X connect 28 0 26 1;
#X connect 29 0 45 0;
#X connect 30 0 31 0;
#X connect 31 0 29 0;
#X connect 31 0 42 0;
#X connect 31 0 43 4;
#X connect 31 1 35 0;
#X connect 32 0 31 1;
#X connect 33 0 30 1;
#X connect 35 0 34 0;
#X connect 36 0 22 0;
#X connect 38 0 40 0;
#X connect 39 0 48 0;
#X connect 40 0 43 3;
#X connect 40 0 49 1;
#X connect 42 0 45 1;
#X connect 45 0 19 0;
#X connect 45 1 41 0;
#X connect 48 0 44 0;
#X connect 49 0 19 0;
#X connect 49 1 41 0;
#X connect 50 0 21 0;
#X connect 50 1 27 0;
#X coords 0 -1 1 1 200 175 1 660 100;
