#N canvas 530 69 742 575 10;
#X msg 21 143 rec start;
#X msg 95 144 rec stop;
#X msg 155 145 play start;
#X msg 206 173 play stop;
#X text 27 112 start / stop recording and playpack;
#X msg 420 97 bang;
#X text 414 77 bang for restart of playback at loop start position
;
#X obj 399 461 bng 15 250 50 0 empty empty empty 17 7 0 10 -262144
-1 -1;
#X text 394 477 outputs a bang at loop end;
#X obj 206 243 note-vel-looper;
#X floatatom 206 460 5 0 0 0 - - -;
#X floatatom 302 459 5 0 0 0 - - -;
#X text 202 474 note;
#X text 299 476 velocity;
#X text 240 216 note;
#X text 276 219 velocity;
#X obj 244 85 notein;
#X obj 244 135 stripnote;
#X obj 353 35 tgl 15 0 empty empty empty 17 7 0 10 -262144 -1 -1 0
1;
#X text 353 19 Enable additional recording during playback;
#X connect 0 0 9 0;
#X connect 1 0 9 0;
#X connect 2 0 9 0;
#X connect 3 0 9 0;
#X connect 5 0 9 4;
#X connect 9 0 10 0;
#X connect 9 1 11 0;
#X connect 9 2 7 0;
#X connect 16 0 17 0;
#X connect 16 1 17 1;
#X connect 17 0 9 1;
#X connect 17 1 9 2;
#X connect 18 0 9 3;
