#N canvas 633 166 321 262 10;
#X obj 22 74 stripnote;
#X obj 99 76 float;
#X obj 124 39 t b f;
#X obj 99 144 sel 0;
#X obj 152 75 float;
#X obj 145 145 sel;
#X msg 153 171 0;
#X obj 25 14 inlet;
#X obj 88 14 inlet;
#X obj 44 210 outlet;
#X obj 113 208 outlet;
#X connect 0 0 5 1;
#X connect 0 0 9 0;
#X connect 1 0 3 0;
#X connect 2 0 1 0;
#X connect 2 1 4 1;
#X connect 3 0 4 0;
#X connect 3 1 10 0;
#X connect 4 0 5 0;
#X connect 5 0 6 0;
#X connect 6 0 10 0;
#X connect 7 0 0 0;
#X connect 7 0 2 0;
#X connect 8 0 0 1;
#X connect 8 0 1 1;
