#N canvas 200 288 450 401 10;
#X obj 65 33 inlet;
#X obj 127 36 inlet;
#X obj 181 37 inlet;
#X text 62 14 freq;
#X text 109 13 pulsewidth;
#X text 185 15 reset;
#X obj 67 160 hip~ 5;
#X obj 67 188 outlet~;
#X obj 65 70 phasor~ \$1;
#X obj 67 130 -~;
#X obj 235 103 expr 1 - \$2;
#X obj 66 99 expr~ if ($v1> \$2 \, 1 \, 0);
#X connect 0 0 8 0;
#X connect 1 0 10 0;
#X connect 2 0 8 1;
#X connect 6 0 7 0;
#X connect 8 0 11 0;
#X connect 9 0 6 0;
#X connect 10 0 9 1;
#X connect 11 0 9 0;
