#N canvas 325 100 903 629 10;
#X msg 159 113 stop;
#X msg 115 167 0;
#X obj 63 165 metro 1;
#X obj 100 208 + 1;
#X msg 135 208 bang;
#X msg 561 226 0;
#X obj 202 -3 inlet~;
#X obj 427 792 outlet~;
#X obj 98 31 route rec play;
#X obj 98 0 inlet;
#X obj 95 73 sel start stop;
#X obj 479 59 sel start stop;
#X obj 98 52 list \$1;
#X obj 475 37 list \$1;
#X obj 177 218 tabwrite~ \$0-sample;
#X obj 426 733 tabread4~ \$0-sample;
#X obj 438 603 phasor~ 0;
#X obj 67 307 f;
#X obj 66 342 * 44.1;
#X obj 401 405 t b f;
#X obj 432 467 /;
#X obj 434 499 f;
#X obj 252 147 hsl 128 30 0 98343 0 0 empty \$0-start start 138 16
0 10 -262144 -258113 -1 0 1;
#X obj 252 183 hsl 128 30 0 98343 0 0 empty \$0-stop stop 138 16 0
10 -262144 -258113 -1 12700 1;
#X obj 193 540 s \$0-stop;
#X obj 432 657 *~ 1;
#X obj 13 646 table \$0-sample 4.41e+06;
#X msg 399 444 44100;
#X obj 431 689 +~ 0;
#X text 468 689 offset;
#X obj 404 271 t b f;
#X obj 405 335 -;
#X obj 386 300 f;
#X obj 418 368 t f f;
#X obj 71 530 s \$0-start;
#X msg 77 466 0;
#X msg 198 422 range 0 \$1;
#X msg 89 440 range 0 \$1;
#X obj 434 526 spigot;
#X msg 491 166 1;
#X msg 525 139 0;
#X obj 532 102 t b b;
#X obj 600 8 inlet;
#X obj 438 567 * 1;
#X obj 595 401 t b f;
#X msg 690 461 0;
#X obj 475 118 t b b b;
#X obj 607 787 outlet;
#X obj 714 17 inlet;
#X obj 646 674 fexpr~ $x[0] < $x[-1];
#X obj 654 712 threshold~ 0.5 1 0.1 1;
#X msg 236 724 \; \$1-sample const 0;
#X obj 237 665 \$0;
#X obj 88 106 t b b b b;
#X obj 63 207 f;
#X obj 420 128 bng 30 250 50 0 empty empty empty 17 7 0 10 -262144
-4160 -1;
#X obj 252 219 hsl 128 30 0.1 10 1 0 empty \$0-speed speed 138 20 0
10 -262144 -258113 -1 12250 1;
#X obj 71 383 t b f f f b;
#X obj 125 608 s \$0-speed;
#X msg 127 565 1;
#X connect 0 0 2 0;
#X connect 0 0 4 0;
#X connect 0 0 14 0;
#X connect 1 0 54 0;
#X connect 2 0 54 0;
#X connect 3 0 54 1;
#X connect 4 0 17 0;
#X connect 5 0 16 0;
#X connect 6 0 14 0;
#X connect 8 0 12 0;
#X connect 8 1 13 0;
#X connect 9 0 8 0;
#X connect 10 0 53 0;
#X connect 10 1 0 0;
#X connect 11 0 46 0;
#X connect 11 1 41 0;
#X connect 12 0 10 0;
#X connect 13 0 11 0;
#X connect 15 0 7 0;
#X connect 16 0 25 0;
#X connect 16 0 49 0;
#X connect 17 0 18 0;
#X connect 18 0 57 0;
#X connect 19 0 27 0;
#X connect 19 1 20 1;
#X connect 20 0 21 0;
#X connect 21 0 38 0;
#X connect 22 0 30 0;
#X connect 22 0 28 1;
#X connect 23 0 32 0;
#X connect 25 0 28 0;
#X connect 27 0 20 0;
#X connect 28 0 15 0;
#X connect 30 0 32 0;
#X connect 30 1 31 1;
#X connect 31 0 33 0;
#X connect 32 0 31 0;
#X connect 33 0 19 0;
#X connect 33 1 25 1;
#X connect 35 0 34 0;
#X connect 36 0 24 0;
#X connect 37 0 34 0;
#X connect 38 0 43 0;
#X connect 39 0 38 1;
#X connect 40 0 38 1;
#X connect 41 0 40 0;
#X connect 41 1 5 0;
#X connect 42 0 58 0;
#X connect 43 0 16 0;
#X connect 44 0 21 0;
#X connect 44 1 43 1;
#X connect 45 0 16 1;
#X connect 46 0 21 0;
#X connect 46 1 39 0;
#X connect 46 2 45 0;
#X connect 48 0 55 0;
#X connect 49 0 50 0;
#X connect 50 0 55 0;
#X connect 52 0 51 0;
#X connect 53 0 2 0;
#X connect 53 1 1 0;
#X connect 53 2 14 0;
#X connect 53 3 52 0;
#X connect 54 0 3 0;
#X connect 54 0 17 1;
#X connect 55 0 45 0;
#X connect 55 0 47 0;
#X connect 56 0 44 0;
#X connect 57 0 35 0;
#X connect 57 1 37 0;
#X connect 57 2 24 0;
#X connect 57 3 36 0;
#X connect 57 4 59 0;
#X connect 59 0 58 0;
#X coords 0 -1 1 1 215 135 1 240 125;
