#N canvas 280 86 803 626 10;
#X obj -43 15 inlet;
#X obj -31 543 outlet;
#X obj 386 35 tgl 30 0 empty empty empty 17 7 0 10 -4034 -1 -1 0 1
;
#X obj 421 35 tgl 30 0 empty empty empty 17 7 0 10 -262144 -1 -1 0
1;
#X obj 456 35 tgl 30 0 empty empty empty 17 7 0 10 -262144 -1 -1 0
1;
#X obj 491 35 tgl 30 0 empty empty empty 17 7 0 10 -262144 -1 -1 0
1;
#X obj 526 35 tgl 30 0 empty empty empty 17 7 0 10 -262144 -1 -1 0
1;
#X obj 561 35 tgl 30 0 empty empty empty 17 7 0 10 -262144 -1 -1 0
1;
#X obj 386 70 tgl 30 0 empty empty empty 17 7 0 10 -262144 -1 -1 0
1;
#X obj 421 70 tgl 30 0 empty empty empty 17 7 0 10 -4034 -1 -1 0 1
;
#X obj 456 70 tgl 30 0 empty empty empty 17 7 0 10 -262144 -1 -1 0
1;
#X obj 491 70 tgl 30 0 empty empty empty 17 7 0 10 -262144 -1 -1 0
1;
#X obj 526 70 tgl 30 0 empty empty empty 17 7 0 10 -262144 -1 -1 0
1;
#X obj 561 70 tgl 30 0 empty empty empty 17 7 0 10 -262144 -1 -1 0
1;
#X obj 386 105 tgl 30 0 empty empty empty 17 7 0 10 -262144 -1 -1 0
1;
#X obj 421 105 tgl 30 0 empty empty empty 17 7 0 10 -262144 -1 -1 0
1;
#X obj 456 105 tgl 30 0 empty empty empty 17 7 0 10 -4034 -1 -1 0 1
;
#X obj 491 105 tgl 30 0 empty empty empty 17 7 0 10 -262144 -1 -1 0
1;
#X obj 526 105 tgl 30 0 empty empty empty 17 7 0 10 -262144 -1 -1 0
1;
#X obj 561 105 tgl 30 0 empty empty empty 17 7 0 10 -262144 -1 -1 0
1;
#X obj 386 140 tgl 30 0 empty empty empty 17 7 0 10 -262144 -1 -1 0
1;
#X obj 421 140 tgl 30 0 empty empty empty 17 7 0 10 -262144 -1 -1 0
1;
#X obj 456 140 tgl 30 0 empty empty empty 17 7 0 10 -262144 -1 -1 0
1;
#X obj 491 140 tgl 30 0 empty empty empty 17 7 0 10 -4034 -1 -1 0 1
;
#X obj 526 140 tgl 30 0 empty empty empty 17 7 0 10 -262144 -1 -1 0
1;
#X obj 561 140 tgl 30 0 empty empty empty 17 7 0 10 -262144 -1 -1 0
1;
#X obj 386 175 tgl 30 0 empty empty empty 17 7 0 10 -262144 -1 -1 0
1;
#X obj 421 175 tgl 30 0 empty empty empty 17 7 0 10 -262144 -1 -1 0
1;
#X obj 456 175 tgl 30 0 empty empty empty 17 7 0 10 -262144 -1 -1 0
1;
#X obj 491 175 tgl 30 0 empty empty empty 17 7 0 10 -262144 -1 -1 0
1;
#X obj 526 175 tgl 30 0 empty empty empty 17 7 0 10 -4034 -1 -1 0 1
;
#X obj 561 175 tgl 30 0 empty empty empty 17 7 0 10 -262144 -1 -1 0
1;
#X obj 386 210 tgl 30 0 empty empty empty 17 7 0 10 -262144 -1 -1 0
1;
#X obj 421 210 tgl 30 0 empty empty empty 17 7 0 10 -262144 -1 -1 0
1;
#X obj 456 210 tgl 30 0 empty empty empty 17 7 0 10 -262144 -1 -1 0
1;
#X obj 491 210 tgl 30 0 empty empty empty 17 7 0 10 -262144 -1 -1 0
1;
#X obj 526 210 tgl 30 0 empty empty empty 17 7 0 10 -262144 -1 -1 0
1;
#X obj 561 210 tgl 30 0 empty empty empty 17 7 0 10 -4034 -1 -1 0 1
;
#X obj 8 16 inlet;
#X obj 42 550 outlet;
#X obj 108 551 outlet;
#X obj 180 556 outlet;
#X obj 249 559 outlet;
#X obj 324 567 outlet;
#X obj 19 305 spigot;
#X obj 98 305 spigot;
#X obj 167 307 spigot;
#X obj 235 313 spigot;
#X obj 306 302 spigot;
#X obj 374 302 spigot;
#X obj 20 330 spigot;
#X obj 100 331 spigot;
#X obj 167 331 spigot;
#X obj 234 336 spigot;
#X obj 303 327 spigot;
#X obj 375 329 spigot;
#X obj 447 410 cnv 15 100 60 empty empty empty 20 12 0 14 -233017 -66577
0;
#X obj 55 17 inlet;
#X obj 105 18 inlet;
#X obj 19 359 spigot;
#X obj 98 361 spigot;
#X obj 165 359 spigot;
#X obj 233 363 spigot;
#X obj 303 355 spigot;
#X obj 375 359 spigot;
#X obj 23 386 spigot;
#X obj 87 386 spigot;
#X obj 160 390 spigot;
#X obj 232 393 spigot;
#X obj 300 384 spigot;
#X obj 375 392 spigot;
#X obj 160 20 inlet;
#X obj 211 21 inlet;
#X obj 21 417 spigot;
#X obj 92 419 spigot;
#X obj 162 422 spigot;
#X obj 227 423 spigot;
#X obj 299 415 spigot;
#X obj 373 429 spigot;
#X obj 16 447 spigot;
#X obj 86 448 spigot;
#X obj 156 450 spigot;
#X obj 225 453 spigot;
#X obj 297 450 spigot;
#X obj 373 457 spigot;
#X connect 0 0 44 0;
#X connect 0 0 45 0;
#X connect 0 0 46 0;
#X connect 0 0 47 0;
#X connect 0 0 48 0;
#X connect 0 0 49 0;
#X connect 2 0 44 1;
#X connect 3 0 50 1;
#X connect 4 0 59 1;
#X connect 5 0 65 1;
#X connect 6 0 73 1;
#X connect 7 0 79 1;
#X connect 8 0 45 1;
#X connect 9 0 51 1;
#X connect 10 0 60 1;
#X connect 11 0 66 1;
#X connect 12 0 74 1;
#X connect 13 0 80 1;
#X connect 14 0 46 1;
#X connect 15 0 52 1;
#X connect 16 0 61 1;
#X connect 17 0 67 1;
#X connect 18 0 75 1;
#X connect 19 0 81 1;
#X connect 20 0 47 1;
#X connect 21 0 53 1;
#X connect 22 0 62 1;
#X connect 23 0 68 1;
#X connect 24 0 76 1;
#X connect 25 0 82 1;
#X connect 26 0 48 1;
#X connect 27 0 54 1;
#X connect 28 0 63 1;
#X connect 29 0 69 1;
#X connect 30 0 77 1;
#X connect 31 0 83 1;
#X connect 32 0 49 1;
#X connect 33 0 55 1;
#X connect 34 0 64 1;
#X connect 35 0 70 1;
#X connect 36 0 78 1;
#X connect 37 0 84 1;
#X connect 38 0 50 0;
#X connect 38 0 51 0;
#X connect 38 0 52 0;
#X connect 38 0 53 0;
#X connect 38 0 54 0;
#X connect 38 0 55 0;
#X connect 44 0 1 0;
#X connect 45 0 39 0;
#X connect 46 0 40 0;
#X connect 47 0 41 0;
#X connect 48 0 42 0;
#X connect 49 0 43 0;
#X connect 50 0 1 0;
#X connect 51 0 39 0;
#X connect 52 0 40 0;
#X connect 53 0 41 0;
#X connect 54 0 42 0;
#X connect 55 0 43 0;
#X connect 57 0 59 0;
#X connect 57 0 60 0;
#X connect 57 0 61 0;
#X connect 57 0 62 0;
#X connect 57 0 63 0;
#X connect 57 0 64 0;
#X connect 58 0 65 0;
#X connect 58 0 66 0;
#X connect 58 0 67 0;
#X connect 58 0 68 0;
#X connect 58 0 69 0;
#X connect 58 0 70 0;
#X connect 59 0 1 0;
#X connect 60 0 39 0;
#X connect 61 0 40 0;
#X connect 62 0 41 0;
#X connect 63 0 42 0;
#X connect 64 0 43 0;
#X connect 65 0 1 0;
#X connect 66 0 39 0;
#X connect 67 0 40 0;
#X connect 68 0 41 0;
#X connect 69 0 42 0;
#X connect 70 0 43 0;
#X connect 71 0 73 0;
#X connect 71 0 74 0;
#X connect 71 0 75 0;
#X connect 71 0 76 0;
#X connect 71 0 77 0;
#X connect 71 0 78 0;
#X connect 72 0 79 0;
#X connect 72 0 80 0;
#X connect 72 0 81 0;
#X connect 72 0 82 0;
#X connect 72 0 83 0;
#X connect 72 0 84 0;
#X connect 73 0 1 0;
#X connect 74 0 39 0;
#X connect 75 0 40 0;
#X connect 76 0 41 0;
#X connect 77 0 42 0;
#X connect 78 0 43 0;
#X connect 79 0 1 0;
#X connect 80 0 39 0;
#X connect 81 0 40 0;
#X connect 82 0 41 0;
#X connect 83 0 42 0;
#X connect 84 0 43 0;
#X coords 0 -1 1 1 217 217 2 380 30;
