#N canvas 44 51 450 300 10;
#X obj 40 3 inlet~;
#X obj 39 263 outlet~;
#X obj 287 25 hradio 30 1 0 4 empty empty empty 0 -8 0 10 -262144 -1
-1 1;
#X obj 40 118 *~ 1;
#X obj 252 24 tgl 30 1 empty empty empty 17 7 0 10 -262144 -1 -1 1
1;
#X msg 155 157 1;
#X obj 210 103 sel 0 1 2;
#X msg 128 158 0;
#X msg 254 157 1;
#X msg 226 156 0;
#N canvas 244 326 450 300 sigmund1 0;
#X obj 228 27 inlet;
#X obj 48 6 inlet~;
#X obj 52 281 outlet~;
#X obj 228 94 switch~;
#X obj 285 31 loadbang;
#X msg 285 58 0;
#X obj 167 143 dbtorms;
#X obj 51 242 *~ 0;
#X obj 49 63 mtof;
#X obj 49 136 phasor~;
#X obj 50 164 -~ 0.5;
#X obj 50 211 lop~;
#X obj 121 164 * 3;
#X obj 49 38 sigmund~ notes env;
#X obj 173 94 line;
#X msg 173 74 \$1 10;
#X obj 49 108 line;
#X msg 49 88 \$1 10;
#X obj 50 185 *~ 2;
#X connect 0 0 3 0;
#X connect 1 0 13 0;
#X connect 4 0 5 0;
#X connect 5 0 3 0;
#X connect 6 0 7 1;
#X connect 7 0 2 0;
#X connect 8 0 17 0;
#X connect 9 0 10 0;
#X connect 10 0 18 0;
#X connect 11 0 7 0;
#X connect 12 0 11 1;
#X connect 13 0 8 0;
#X connect 13 1 15 0;
#X connect 14 0 6 0;
#X connect 15 0 14 0;
#X connect 16 0 9 0;
#X connect 16 0 12 0;
#X connect 17 0 16 0;
#X connect 18 0 11 0;
#X restore 92 183 pd sigmund1;
#X msg 364 159 1;
#X msg 337 160 0;
#N canvas 252 334 450 300 bonk 0;
#X obj 228 27 inlet;
#X obj 48 6 inlet~;
#X obj 52 266 outlet~;
#X obj 228 94 switch~;
#X obj 285 31 loadbang;
#X msg 285 58 0;
#X obj 50 56 bonk~;
#X connect 0 0 3 0;
#X connect 1 0 6 0;
#X connect 4 0 5 0;
#X connect 5 0 3 0;
#X restore 298 185 pd bonk;
#N canvas 250 332 450 300 sigmund2 0;
#X obj 228 27 inlet;
#X obj 48 6 inlet~;
#X obj 50 264 outlet~;
#X obj 228 94 switch~;
#X obj 285 31 loadbang;
#X msg 285 58 0;
#X obj 154 68 dbtorms;
#X obj 49 178 *~ 0;
#X obj 49 62 mtof;
#X obj 48 147 osc~;
#X obj 49 38 sigmund~ notes env;
#X obj 48 101 line;
#X msg 48 81 \$1 10;
#X obj 154 118 line;
#X msg 154 98 \$1 10;
#X connect 0 0 3 0;
#X connect 1 0 10 0;
#X connect 4 0 5 0;
#X connect 5 0 3 0;
#X connect 6 0 14 0;
#X connect 7 0 2 0;
#X connect 8 0 12 0;
#X connect 9 0 7 0;
#X connect 10 0 8 0;
#X connect 10 1 6 0;
#X connect 11 0 9 0;
#X connect 12 0 11 0;
#X connect 13 0 7 1;
#X connect 14 0 13 0;
#X restore 185 182 pd sigmund2;
#X connect 0 0 3 0;
#X connect 0 0 10 0;
#X connect 0 0 14 0;
#X connect 0 0 13 0;
#X connect 2 0 6 0;
#X connect 3 0 1 0;
#X connect 4 0 3 1;
#X connect 5 0 10 1;
#X connect 6 0 7 0;
#X connect 6 0 9 0;
#X connect 6 0 12 0;
#X connect 6 1 5 0;
#X connect 6 1 9 0;
#X connect 6 1 12 0;
#X connect 6 2 7 0;
#X connect 6 2 8 0;
#X connect 6 2 12 0;
#X connect 6 3 7 0;
#X connect 6 3 9 0;
#X connect 6 3 11 0;
#X connect 7 0 10 1;
#X connect 8 0 14 1;
#X connect 9 0 14 1;
#X connect 10 0 1 0;
#X connect 11 0 13 1;
#X connect 12 0 13 1;
#X connect 13 0 1 0;
#X connect 14 0 1 0;
#X coords 0 -1 1 1 160 47 1 250 10;
