#N canvas 46 93 598 663 10;
#X obj 67 12 r detect;
#X obj 67 34 unpack f f s;
#X obj 119 130 t f f;
#X obj 73 319 tabread \$0-sample;
#X obj 73 341 abs;
#X obj 140 434 f;
#X obj 73 244 f;
#X obj 104 244 + 1;
#X msg 223 110 0;
#X obj 73 156 * 44100;
#X obj 140 456 / 44100;
#X obj 140 409 t b b;
#X obj 73 178 / 1000;
#X obj 140 478 * 1000;
#X obj 73 266 t f f;
#X obj 73 201 until;
#X obj 73 366 moses 0.05;
#X obj 73 291 t f f;
#X msg 146 74 set \$1;
#X obj 67 56 t f b;
#X obj 140 500 stdout;
#X connect 0 0 1 0;
#X connect 1 0 19 0;
#X connect 1 1 2 0;
#X connect 1 2 18 0;
#X connect 2 0 9 1;
#X connect 2 1 10 1;
#X connect 3 0 4 0;
#X connect 4 0 16 0;
#X connect 5 0 10 0;
#X connect 6 0 14 0;
#X connect 7 0 6 1;
#X connect 8 0 6 1;
#X connect 9 0 12 0;
#X connect 10 0 13 0;
#X connect 11 0 5 0;
#X connect 11 1 15 1;
#X connect 12 0 15 0;
#X connect 13 0 20 0;
#X connect 14 0 17 0;
#X connect 14 1 7 0;
#X connect 16 1 11 0;
#X connect 17 0 3 0;
#X connect 17 1 5 1;
#X connect 18 0 3 0;
#X connect 19 0 9 0;
#X connect 19 1 8 0;
