#N canvas 414 413 692 513 12;
#X declare -stdlib zexy;
#X obj 47 24 inlet;
#X obj 77 166 pdcontrol;
#X obj 77 189 makefilename %s/%%s;
#X msg 77 211 set \$1;
#X obj 47 239 makefilename;
#X obj 47 334 outlet;
#X msg 77 144 dir 100;
#X obj 370 139 s2l;
#X obj 47 390 declare -stdlib zexy;
#X obj 388 73 loadbang;
#X msg 388 98 symbol;
#X obj 370 164 list trim;
#X obj 370 189 route /;
#X obj 47 91 t s b s s;
#X obj 47 296 spigot 1;
#X obj 320 287 spigot 0;
#X obj 370 214 t b b;
#X msg 370 242 0;
#X msg 402 242 1;
#X text 424 212 input is absolute path;
#X text 150 217 input is path relative to top level patch, f 19;
#X obj 47 60 symbol;
#X connect 0 0 21 0;
#X connect 1 0 2 0;
#X connect 2 0 3 0;
#X connect 3 0 4 0;
#X connect 4 0 14 0;
#X connect 6 0 1 0;
#X connect 7 0 11 0;
#X connect 9 0 10 0;
#X connect 10 0 7 1;
#X connect 11 0 12 0;
#X connect 12 0 16 0;
#X connect 13 0 4 0;
#X connect 13 1 6 0;
#X connect 13 2 15 0;
#X connect 13 3 7 0;
#X connect 14 0 5 0;
#X connect 15 0 5 0;
#X connect 16 0 17 0;
#X connect 16 1 18 0;
#X connect 17 0 14 1;
#X connect 18 0 15 1;
#X connect 21 0 13 0;
