#N canvas 0 0 683 529 12;
#X obj 89 116 * 44100;
#X obj 15 88 inlet~;
#X obj 89 88 inlet;
#X obj 133 479 outlet~;
#X obj 89 167 phasor~;
#X obj 16 256 samphold~;
#X obj 17 292 +~;
#X obj 43 348 *~;
#X obj 254 201 +~ 0.5;
#X obj 254 230 wrap~;
#X obj 182 260 samphold~;
#X obj 183 296 +~;
#X obj 209 352 *~;
#X obj 134 445 +~;
#X obj 135 82 samplerate~;
#X obj 135 11 loadbang;
#X obj 239 92 symbol \$1;
#X msg 239 117 set \$1;
#X obj 16 321 tabread4~;
#X obj 99 321 tabread4~;
#X obj 184 322 tabread4~;
#X obj 265 324 tabread4~;
#X obj 135 37 t b b b;
#X msg 326 125 set \$1;
#N canvas 1278 189 519 465 write-hanning 0;
#X msg 73 290 0;
#X obj 116 338 osc~;
#X obj 116 290 samplerate~;
#X obj 116 361 *~ -0.5;
#X obj 116 384 +~ 0.5;
#X obj 50 197 loadbang;
#X obj 50 411 tabwrite~ \$0-hanning;
#X obj 50 262 t b b b;
#X obj 7 48 r pd;
#X obj 7 73 route dsp;
#X obj 7 98 sel 1;
#X obj 7 147 tabread \$0-hanning;
#X msg 7 196 bang;
#X obj 7 172 moses 0.9;
#X obj 50 228 del 10;
#X msg 7 122 511;
#X obj 116 314 / 1024;
#X connect 0 0 1 1;
#X connect 1 0 3 0;
#X connect 2 0 16 0;
#X connect 3 0 4 0;
#X connect 4 0 6 0;
#X connect 5 0 14 0;
#X connect 7 0 6 0;
#X connect 7 1 0 0;
#X connect 7 2 2 0;
#X connect 8 0 9 0;
#X connect 9 0 10 0;
#X connect 10 0 15 0;
#X connect 11 0 13 0;
#X connect 12 0 14 0;
#X connect 13 0 12 0;
#X connect 14 0 7 0;
#X connect 15 0 11 0;
#X connect 16 0 1 0;
#X restore 441 346 pd write-hanning;
#X obj 324 90 symbol \$0-hanning;
#X obj 98 258 *~ 1024;
#X obj 264 262 *~ 1024;
#X obj 442 318 array define \$0-hanning 1024;
#X obj 88 143 / 1024;
#X connect 0 0 29 0;
#X connect 1 0 5 0;
#X connect 1 0 10 0;
#X connect 2 0 0 0;
#X connect 4 0 5 1;
#X connect 4 0 8 0;
#X connect 4 0 26 0;
#X connect 5 0 6 0;
#X connect 6 0 18 0;
#X connect 7 0 13 0;
#X connect 8 0 9 0;
#X connect 9 0 10 1;
#X connect 9 0 27 0;
#X connect 10 0 11 0;
#X connect 11 0 20 0;
#X connect 12 0 13 1;
#X connect 13 0 3 0;
#X connect 14 0 0 1;
#X connect 15 0 22 0;
#X connect 16 0 17 0;
#X connect 17 0 18 0;
#X connect 17 0 20 0;
#X connect 18 0 7 0;
#X connect 19 0 7 1;
#X connect 20 0 12 0;
#X connect 21 0 12 1;
#X connect 22 0 14 0;
#X connect 22 1 16 0;
#X connect 22 2 25 0;
#X connect 23 0 19 0;
#X connect 23 0 21 0;
#X connect 25 0 23 0;
#X connect 26 0 6 1;
#X connect 26 0 19 0;
#X connect 27 0 11 1;
#X connect 27 0 21 0;
#X connect 29 0 4 0;
