#N canvas 0 0 683 529 12;
#X obj 89 116 * 44100;
#X obj 15 8 inlet~;
#X obj 89 8 inlet;
#X obj 133 479 outlet~;
#X obj 89 167 phasor~;
#X obj 16 216 samphold~;
#X obj 17 252 +~;
#X obj 43 348 *~;
#X obj 444 200 +~ 0.5;
#X obj 444 230 wrap~;
#X obj 312 260 samphold~;
#X obj 313 296 +~;
#X obj 339 352 *~;
#X obj 134 445 +~;
#X obj 135 92 samplerate~;
#X obj 135 36 loadbang;
#X obj 239 102 symbol \$1;
#X msg 239 127 set \$1;
#X obj 16 321 tabread4~;
#X obj 314 322 tabread4~;
#X obj 98 218 *~ 1024;
#X obj 88 143 / 1024;
#X obj 467 323 cos~;
#X obj 466 274 *~ 0.5;
#X obj 466 298 -~ 0.25;
#X obj 404 260 *~ 1024;
#X obj 135 62 t b b;
#X obj 170 267 cos~;
#X obj 169 218 *~ 0.5;
#X obj 169 242 -~ 0.25;
#X obj 89 33 t a b;
#X connect 0 0 21 0;
#X connect 1 0 5 0;
#X connect 1 0 10 0;
#X connect 2 0 30 0;
#X connect 4 0 5 1;
#X connect 4 0 8 0;
#X connect 4 0 20 0;
#X connect 4 0 28 0;
#X connect 5 0 6 0;
#X connect 6 0 18 0;
#X connect 7 0 13 0;
#X connect 8 0 9 0;
#X connect 9 0 10 1;
#X connect 9 0 23 0;
#X connect 9 0 25 0;
#X connect 10 0 11 0;
#X connect 11 0 19 0;
#X connect 12 0 13 1;
#X connect 13 0 3 0;
#X connect 14 0 0 1;
#X connect 15 0 26 0;
#X connect 16 0 17 0;
#X connect 17 0 18 0;
#X connect 17 0 19 0;
#X connect 18 0 7 0;
#X connect 19 0 12 0;
#X connect 20 0 6 1;
#X connect 21 0 4 0;
#X connect 22 0 12 1;
#X connect 23 0 24 0;
#X connect 24 0 22 0;
#X connect 25 0 11 1;
#X connect 26 0 14 0;
#X connect 26 1 16 0;
#X connect 27 0 7 1;
#X connect 28 0 29 0;
#X connect 29 0 27 0;
#X connect 30 0 0 0;
#X connect 30 1 14 0;
