#N canvas 0 0 683 529 12;
#X obj 89 116 * 44100;
#X obj 15 88 inlet~;
#X obj 89 88 inlet;
#X obj 133 479 outlet~;
#X obj 89 167 phasor~;
#X obj 16 256 samphold~;
#X obj 17 292 +~;
#X obj 43 348 *~;
#X obj 254 201 +~ 0.5;
#X obj 254 230 wrap~;
#X obj 182 260 samphold~;
#X obj 183 296 +~;
#X obj 209 352 *~;
#X obj 134 445 +~;
#X obj 135 82 samplerate~;
#X obj 135 11 loadbang;
#X obj 239 92 symbol \$1;
#X msg 239 117 set \$1;
#X obj 16 321 tabread4~;
#X obj 99 321 tabread4~;
#X obj 184 322 tabread4~;
#X obj 265 324 tabread4~;
#X obj 135 37 t b b b;
#X msg 326 125 set \$1;
#N canvas 44 51 443 256 write-hanning 1;
#X msg 51 79 0;
#X obj 94 127 osc~;
#X obj 94 79 samplerate~;
#X obj 94 150 *~ -0.5;
#X obj 94 173 +~ 0.5;
#X obj 28 26 loadbang;
#X obj 28 200 tabwrite~ \$0-hanning;
#X obj 28 51 t b b b;
#X obj 94 103 / 8192;
#X connect 0 0 1 1;
#X connect 1 0 3 0;
#X connect 2 0 8 0;
#X connect 3 0 4 0;
#X connect 4 0 6 0;
#X connect 5 0 7 0;
#X connect 7 0 6 0;
#X connect 7 1 0 0;
#X connect 7 2 2 0;
#X connect 8 0 1 0;
#X restore 441 346 pd write-hanning;
#X obj 442 318 table \$0-hanning 8192;
#X obj 324 90 symbol \$0-hanning;
#X obj 98 258 *~ 8192;
#X obj 264 262 *~ 8192;
#X obj 89 143 / 8192;
#X connect 0 0 29 0;
#X connect 1 0 5 0;
#X connect 1 0 10 0;
#X connect 2 0 0 0;
#X connect 4 0 5 1;
#X connect 4 0 8 0;
#X connect 4 0 27 0;
#X connect 5 0 6 0;
#X connect 6 0 18 0;
#X connect 7 0 13 0;
#X connect 8 0 9 0;
#X connect 9 0 10 1;
#X connect 9 0 28 0;
#X connect 10 0 11 0;
#X connect 11 0 20 0;
#X connect 12 0 13 1;
#X connect 13 0 3 0;
#X connect 14 0 0 1;
#X connect 15 0 22 0;
#X connect 16 0 17 0;
#X connect 17 0 18 0;
#X connect 17 0 20 0;
#X connect 18 0 7 0;
#X connect 19 0 7 1;
#X connect 20 0 12 0;
#X connect 21 0 12 1;
#X connect 22 0 14 0;
#X connect 22 1 16 0;
#X connect 22 2 26 0;
#X connect 23 0 19 0;
#X connect 23 0 21 0;
#X connect 26 0 23 0;
#X connect 27 0 6 1;
#X connect 27 0 19 0;
#X connect 28 0 11 1;
#X connect 28 0 21 0;
#X connect 29 0 4 0;
