#N canvas 344 166 873 597 10;
#X obj 670 111 tgl 15 0 \$0-play \$0-play-r Play 17 7 0 10 -204800
-4160 -1 1 1;
#X obj 121 347 +~ 0;
#X obj 119 270 phasor~ 0;
#X obj 324 325 fexpr~ $x[0] < $x[-1];
#X obj 324 365 threshold~ 0.5 1 0.1 1;
#X obj 119 184 unpack f f;
#X obj 120 308 *~ 1;
#X obj 121 401 *~ 0;
#X obj 91 -28 inlet;
#X obj 121 428 outlet~;
#X obj 266 426 outlet;
#X obj 216 55 \$2;
#N canvas 475 101 635 645 playback-params 0;
#X obj 322 26 inlet;
#X obj 68 38 inlet;
#X obj 61 481 outlet;
#X obj 122 480 outlet;
#X obj 238 485 outlet;
#X obj 349 105 / 8;
#X obj 208 151 samplerate~;
#X msg 123 318 0;
#X obj 208 232 /;
#X obj 193 258 f;
#X obj 61 330 /;
#X obj 238 324 *;
#X obj 68 68 t b f f b;
#X obj 322 67 t b f;
#X obj 407 483 outlet;
#X obj -9 32 inlet;
#X obj 411 328 *;
#X obj 441 28 inlet;
#X obj 27 404 f;
#X obj 35 433 * 1;
#X obj 441 107 t b f;
#X obj 441 82 line;
#X msg 441 54 \$1 100;
#X connect 0 0 13 0;
#X connect 1 0 12 0;
#X connect 5 0 8 1;
#X connect 5 0 11 1;
#X connect 5 0 16 1;
#X connect 6 0 8 0;
#X connect 7 0 3 0;
#X connect 8 0 9 1;
#X connect 9 0 10 0;
#X connect 10 0 18 0;
#X connect 11 0 4 0;
#X connect 12 0 9 0;
#X connect 12 1 10 1;
#X connect 12 2 11 0;
#X connect 12 3 7 0;
#X connect 13 0 6 0;
#X connect 13 1 5 0;
#X connect 15 0 16 0;
#X connect 16 0 14 0;
#X connect 17 0 22 0;
#X connect 18 0 19 0;
#X connect 19 0 2 0;
#X connect 20 0 18 0;
#X connect 20 1 19 1;
#X connect 21 0 20 0;
#X connect 22 0 21 0;
#X restore 119 213 pd playback-params;
#X obj 710 17 table \$0-hanning 256;
#N canvas 44 51 443 256 write-hanning 0;
#X msg 142 80 0;
#X obj 36 129 osc~;
#X obj 36 81 samplerate~;
#X obj 36 152 *~ -0.5;
#X obj 36 175 +~ 0.5;
#X obj 28 58 bng 15 250 50 0 empty empty empty 0 -6 0 8 -262144 -1
-1;
#X obj 28 26 loadbang;
#X obj 36 105 / 256;
#X obj 28 200 tabwrite~ \$0-hanning;
#X connect 0 0 1 1;
#X connect 1 0 3 0;
#X connect 2 0 7 0;
#X connect 3 0 4 0;
#X connect 4 0 8 0;
#X connect 5 0 2 0;
#X connect 5 0 0 0;
#X connect 5 0 8 0;
#X connect 6 0 5 0;
#X connect 7 0 1 0;
#X restore 709 40 pd write-hanning;
#N canvas 831 446 450 300 load-sample 0;
#X obj 34 192 outlet;
#X obj 34 161 soundfiler;
#X obj 34 16 loadbang;
#X obj 143 82 \$0;
#X obj 34 107 pack s f;
#X obj 34 39 t b b;
#X obj 34 73 symbol \$1;
#X msg 34 132 read -resize \$1 \$2-loop-l \$2-loop-r;
#X connect 1 0 0 0;
#X connect 2 0 5 0;
#X connect 3 0 4 1;
#X connect 4 0 7 0;
#X connect 5 0 6 0;
#X connect 5 1 3 0;
#X connect 6 0 4 0;
#X connect 7 0 1 0;
#X restore 189 160 pd load-sample;
#N canvas 44 51 893 657 read-table 0;
#X obj 128 137 / 256;
#X obj 128 110 * 44100;
#X obj 54 48 inlet~;
#X obj 128 46 inlet;
#X obj 220 501 outlet~;
#X obj 128 171 phasor~;
#X obj 55 250 samphold~;
#X obj 137 252 *~ 256;
#X obj 56 286 +~;
#X obj 56 352 *~;
#X obj 138 278 tabread4~ \$0-hanning;
#X obj 413 206 +~ 0.5;
#X obj 413 235 wrap~;
#X obj 341 265 samphold~;
#X obj 423 267 *~ 256;
#X obj 342 301 +~;
#X obj 343 367 *~;
#X obj 423 291 tabread4~ \$0-hanning;
#X obj 221 467 +~;
#X obj 189 42 loadbang;
#X obj 189 68 samplerate~;
#X obj 57 321 tabread4~ \$0-loop-l;
#X obj 343 327 tabread4~ \$0-loop-l;
#X obj 334 505 outlet~;
#X obj 335 471 +~;
#X obj 467 369 *~;
#X obj 468 326 tabread4~ \$0-loop-r;
#X obj 185 360 *~;
#X obj 186 319 tabread4~ \$0-loop-r;
#X obj 128 88 line;
#X msg 128 67 \$1 100;
#X connect 0 0 5 0;
#X connect 1 0 0 0;
#X connect 2 0 6 0;
#X connect 2 0 13 0;
#X connect 3 0 30 0;
#X connect 5 0 6 1;
#X connect 5 0 7 0;
#X connect 5 0 11 0;
#X connect 6 0 8 0;
#X connect 7 0 8 1;
#X connect 7 0 10 0;
#X connect 8 0 21 0;
#X connect 8 0 28 0;
#X connect 9 0 18 0;
#X connect 10 0 9 1;
#X connect 10 0 27 1;
#X connect 11 0 12 0;
#X connect 12 0 14 0;
#X connect 12 0 13 1;
#X connect 13 0 15 0;
#X connect 14 0 15 1;
#X connect 14 0 17 0;
#X connect 15 0 22 0;
#X connect 15 0 26 0;
#X connect 16 0 18 1;
#X connect 17 0 16 1;
#X connect 17 0 25 1;
#X connect 18 0 4 0;
#X connect 19 0 20 0;
#X connect 20 0 1 1;
#X connect 21 0 9 0;
#X connect 22 0 16 0;
#X connect 24 0 23 0;
#X connect 25 0 24 1;
#X connect 26 0 25 0;
#X connect 27 0 24 0;
#X connect 28 0 27 0;
#X connect 29 0 1 0;
#X connect 30 0 29 0;
#X restore 120 375 pd read-table;
#X obj 231 -1 loadbang;
#X msg 300 109 1;
#X obj 673 145 hsl 128 15 0.5 2 1 1 \$0-speed \$0-speed-r Speed -2
-8 0 10 -262144 -1 -1 6350 1;
#X obj 216 80 sel 0;
#X obj 300 82 sel 0;
#X msg 216 102 1;
#X obj 300 56 \$3;
#X obj 91 -1 route start stop;
#X obj 91 26 t b b;
#X msg 91 60 1;
#X floatatom 718 112 5 0 0 0 - #0-startbeat -;
#X floatatom 762 112 5 0 0 0 - #0-len-in-beats -;
#X msg 143 65 0;
#X obj 324 391 spigot;
#X obj 672 176 hsl 128 15 0.5 2 1 1 \$0-pitch \$0-pitch-r Pitch -2
-8 0 10 -262144 -1 -1 6350 1;
#X obj 195 428 outlet~;
#X obj 324 425 outlet;
#X obj 185 275 sel 0 1;
#X obj 183 343 line;
#X msg 185 314 0 200;
#X msg 229 314 1;
#X obj 711 -3 table \$0-loop-r;
#X obj 711 -23 table \$0-loop-l;
#X obj 195 399 *~ 0;
#X obj 301 -22 inlet;
#X obj 381 -19 inlet;
#X floatatom 813 145 5 0 0 0 - - -;
#X floatatom 811 176 5 0 0 0 - - -;
#N canvas 136 94 426 539 sample-position 0;
#X obj 38 116 inlet;
#X obj 38 384 pack f f;
#X obj 38 412 outlet;
#X obj 38 186 random 4;
#X obj 38 267 t f b;
#X obj 38 237 random 8;
#X msg 83 324 1;
#X obj 38 212 sel 0 1 2 3;
#X obj 102 268 t f b;
#X obj 102 238 random 7;
#X msg 129 325 2;
#X obj 168 267 t f b;
#X obj 232 268 t f b;
#X obj 168 237 random 6;
#X obj 232 238 random 5;
#X msg 195 325 3;
#X msg 259 325 4;
#X obj 38 153 t b;
#X connect 0 0 17 0;
#X connect 1 0 2 0;
#X connect 3 0 7 0;
#X connect 4 0 1 0;
#X connect 4 1 6 0;
#X connect 5 0 4 0;
#X connect 6 0 1 1;
#X connect 7 0 5 0;
#X connect 7 1 9 0;
#X connect 7 2 13 0;
#X connect 7 3 14 0;
#X connect 8 0 1 0;
#X connect 8 1 10 0;
#X connect 9 0 8 0;
#X connect 10 0 1 1;
#X connect 11 0 1 0;
#X connect 11 1 15 0;
#X connect 12 0 1 0;
#X connect 12 1 16 0;
#X connect 13 0 11 0;
#X connect 14 0 12 0;
#X connect 15 0 1 1;
#X connect 16 0 1 1;
#X connect 17 0 3 0;
#X restore 118 139 pd sample-position;
#X obj 91 105 s \$0-play-r;
#X obj 357 218 r \$0-play;
#X obj 25 242 s \$0-startbeat;
#X obj 11 284 s \$0-len-in-beats;
#X obj 285 163 r \$0-speed;
#X obj 243 135 s \$0-speed-r;
#X obj 327 140 s \$0-pitch-r;
#X obj 471 215 r \$0-pitch;
#X obj 462 -18 inlet;
#X connect 1 0 16 0;
#X connect 2 0 3 0;
#X connect 2 0 6 0;
#X connect 3 0 4 0;
#X connect 4 0 30 0;
#X connect 5 0 12 0;
#X connect 5 0 48 0;
#X connect 5 1 12 1;
#X connect 5 1 49 0;
#X connect 6 0 1 0;
#X connect 7 0 9 0;
#X connect 8 0 24 0;
#X connect 11 0 20 0;
#X connect 12 0 2 0;
#X connect 12 1 2 1;
#X connect 12 2 6 1;
#X connect 12 3 1 1;
#X connect 15 0 12 2;
#X connect 16 0 7 0;
#X connect 16 1 40 0;
#X connect 17 0 11 0;
#X connect 17 0 23 0;
#X connect 18 0 52 0;
#X connect 19 0 43 0;
#X connect 20 0 22 0;
#X connect 20 1 51 0;
#X connect 21 0 18 0;
#X connect 21 1 52 0;
#X connect 22 0 51 0;
#X connect 23 0 21 0;
#X connect 24 0 25 0;
#X connect 24 1 29 0;
#X connect 25 0 26 0;
#X connect 25 1 45 0;
#X connect 26 0 46 0;
#X connect 29 0 46 0;
#X connect 30 0 45 0;
#X connect 30 0 33 0;
#X connect 31 0 44 0;
#X connect 34 0 36 0;
#X connect 34 1 37 0;
#X connect 35 0 7 1;
#X connect 35 0 40 1;
#X connect 36 0 35 0;
#X connect 37 0 35 0;
#X connect 40 0 32 0;
#X connect 41 0 51 0;
#X connect 42 0 52 0;
#X connect 45 0 5 0;
#X connect 45 0 10 0;
#X connect 47 0 34 0;
#X connect 47 0 30 1;
#X connect 50 0 12 3;
#X connect 53 0 16 1;
#X connect 54 0 45 0;
#X coords 0 -1 1 1 200 130 1 660 70;
