#N canvas 46 58 1199 707 10;
#X obj 101 103 loopers/note-vel-looper-box;
#X obj 104 327 glue/rec_play_switch;
#X obj 102 375 live-sampler~;
#X obj 97 616 outlet~;
#X obj 32 0 inlet;
#X obj 554 -23 inlet;
#X obj 474 -21 inlet;
#X obj 77 0 inlet;
#X obj 338 539 outlet;
#X obj 346 -21 inlet~;
#X obj 99 583 *~ 1;
#X obj 112 502 hsl 128 30 0 2 0 1 empty empty volume 12 38 0 10 -262144
-1 -1 6350 1;
#X msg 260 576 1;
#X obj 244 502 bng 30 250 50 0 empty empty rst 33 15 0 10 -262144 -1
-1;
#X obj 413 -22 inlet;
#X obj 261 342 bng 15 250 50 0 empty empty empty 17 7 0 10 -262144
-1 -1;
#X obj 548 179 openpanel;
#X msg 557 225 open \$1;
#X obj 157 -61 notein;
#X obj 157 -25 pack f f;
#X obj 157 45 spigot;
#X obj 233 -24 sel \$1;
#X msg 233 -2 1;
#X msg 273 0 0;
#X obj 157 67 unpack f f;
#X obj 728 130 ctlin 10;
#X obj 728 231 spigot;
#X obj 804 162 sel \$1;
#X msg 804 184 1;
#X msg 844 186 0;
#X obj 888 231 spigot;
#X obj 964 162 sel \$1;
#X msg 964 184 1;
#X msg 1004 186 0;
#X obj 888 130 ctlin 11;
#X obj 737 463 spigot;
#X obj 813 394 sel \$1;
#X msg 813 416 1;
#X msg 853 418 0;
#X obj 897 463 spigot;
#X obj 973 394 sel \$1;
#X msg 973 416 1;
#X msg 1013 418 0;
#X obj 737 362 ctlin 12;
#X obj 897 362 ctlin 13;
#X connect 0 0 2 2;
#X connect 0 1 8 0;
#X connect 1 0 2 0;
#X connect 2 0 10 0;
#X connect 4 0 0 0;
#X connect 5 0 0 5;
#X connect 6 0 0 4;
#X connect 7 0 0 1;
#X connect 9 0 2 1;
#X connect 10 0 3 0;
#X connect 11 0 10 1;
#X connect 12 0 11 0;
#X connect 13 0 12 0;
#X connect 14 0 1 0;
#X connect 15 0 16 0;
#X connect 16 0 17 0;
#X connect 17 0 2 0;
#X connect 18 0 19 0;
#X connect 18 1 19 1;
#X connect 18 2 21 0;
#X connect 19 0 20 0;
#X connect 20 0 24 0;
#X connect 21 0 22 0;
#X connect 21 1 23 0;
#X connect 22 0 20 1;
#X connect 23 0 20 1;
#X connect 24 0 0 2;
#X connect 24 1 0 3;
#X connect 25 0 26 0;
#X connect 25 1 27 0;
#X connect 26 0 2 3;
#X connect 27 0 28 0;
#X connect 27 1 29 0;
#X connect 28 0 26 1;
#X connect 29 0 26 1;
#X connect 30 0 2 4;
#X connect 31 0 32 0;
#X connect 31 1 33 0;
#X connect 32 0 30 1;
#X connect 33 0 30 1;
#X connect 34 0 30 0;
#X connect 34 1 31 0;
#X connect 35 0 2 5;
#X connect 36 0 37 0;
#X connect 36 1 38 0;
#X connect 37 0 35 1;
#X connect 38 0 35 1;
#X connect 39 0 2 6;
#X connect 40 0 41 0;
#X connect 40 1 42 0;
#X connect 41 0 39 1;
#X connect 42 0 39 1;
#X connect 43 0 35 0;
#X connect 43 1 36 0;
#X connect 44 0 39 0;
#X connect 44 1 40 0;
#X coords 0 -1 1 1 193 470 1 101 75;
