#N canvas 148 136 903 629 10;
#X obj 158 0 inlet~;
#X obj 262 586 outlet~;
#X obj 88 0 inlet;
#X obj 651 150 hsl 128 30 0 40131 0 0 \$0-start-s \$0-start start 136 15 0 10 #fcfcfc #fc0400 #000000 0 1;
#X obj 651 183 hsl 128 30 0 40131 0 0 \$0-stop-s \$0-stop stop 136 15 0 10 #fcfcfc #fc0400 #000000 0 1;
#X obj 30 519 array define \$0-sample 4.41e+06;
#X obj 326 272 t b f;
#X obj 651 216 hsl 128 30 0.1 10 1 0 \$0-speed-s \$0-speed speed 136 15 0 10 #fcfcfc #fc0400 #000000 0 1;
#X obj 206 163 r \$0-start-s;
#X obj 206 188 t b f f;
#X obj 119 281 r \$0-stop-s;
#X obj 326 237 r \$0-speed-s;
#N canvas 514 159 717 606 recording 0;
#X obj 97 30 inlet;
#X obj 311 30 inlet~;
#X obj 97 338 outlet;
#X msg 189 197 stop;
#X obj 97 59 list \$1;
#X obj 310 267 tabwrite~ \$0-sample;
#X msg 410 158 \; \$1-sample const 0;
#X obj 410 134 \$0;
#X obj 136 242 samplerate~;
#X obj 136 271 / 1000;
#X obj 97 293 * 44.1;
#X obj 97 197 timer;
#X obj 143 159 t b b b;
#X obj 97 110 t b b b;
#X obj 97 80 sel start 1 stop 0;
#X connect 0 0 4 0;
#X connect 1 0 5 0;
#X connect 3 0 5 0;
#X connect 4 0 14 0;
#X connect 7 0 6 0;
#X connect 8 0 9 0;
#X connect 9 0 10 1;
#X connect 10 0 2 0;
#X connect 11 0 10 0;
#X connect 12 0 11 1;
#X connect 12 1 8 0;
#X connect 12 2 3 0;
#X connect 13 0 11 0;
#X connect 13 1 5 0;
#X connect 13 2 7 0;
#X connect 14 0 13 0;
#X connect 14 1 13 0;
#X connect 14 2 12 0;
#X connect 14 3 12 0;
#X restore 88 221 pd recording;
#N canvas 887 326 448 424 phasor-freq-calc 0;
#X obj 42 37 inlet;
#X obj 86 36 inlet;
#X obj 137 35 inlet;
#X obj 234 36 inlet;
#X obj 42 161 t b f;
#X obj 42 214 /;
#X obj 42 274 f;
#X obj 42 104 -;
#X obj 42 75 f;
#X obj 42 132 t f f;
#X obj 42 328 * 1;
#X obj 42 187 samplerate~;
#X obj 42 236 abs;
#X obj 42 366 pack f f;
#X obj 42 388 outlet;
#X connect 0 0 8 0;
#X connect 1 0 7 1;
#X connect 2 0 6 0;
#X connect 3 0 10 1;
#X connect 4 0 11 0;
#X connect 4 1 5 1;
#X connect 5 0 12 0;
#X connect 6 0 10 0;
#X connect 7 0 9 0;
#X connect 8 0 7 0;
#X connect 9 0 4 0;
#X connect 9 1 13 1;
#X connect 10 0 13 0;
#X connect 11 0 5 0;
#X connect 12 0 6 0;
#X connect 13 0 14 0;
#X restore 206 331 pd phasor-freq-calc;
#N canvas 314 164 450 587 set_length 0;
#X obj 91 24 inlet;
#X obj 108 232 s \$0-stop;
#X obj 181 240 s \$0-start;
#X msg 108 180 range 0 \$1;
#X msg 196 178 range 0 \$1;
#X obj 164 316 s \$0-speed;
#X msg 164 283 1;
#N canvas 624 98 651 659 detect_start 0;
#X obj 84 59 inlet;
#X obj 176 354 outlet;
#X msg 508 187 0;
#X obj 121 120 samplerate~;
#X obj 165 146 \$0;
#X msg 84 153 detect;
#X obj 84 199 pack s f f s;
#X msg 165 168 symbol \$1-sample;
#X obj 84 230 list trim;
#X obj 84 90 t b f b b b;
#X obj 175 246 loadbang;
#X connect 0 0 9 0;
#X connect 2 0 1 0;
#X connect 3 0 6 2;
#X connect 4 0 7 0;
#X connect 5 0 6 0;
#X connect 6 0 8 0;
#X connect 7 0 6 3;
#X connect 9 0 5 0;
#X connect 9 1 6 1;
#X connect 9 2 3 0;
#X connect 9 3 4 0;
#X connect 9 4 2 0;
#X restore 126 97 pd detect_start;
#N canvas 499 118 450 549 detect_end 0;
#X obj 251 22 inlet;
#X obj 224 538 outlet;
#X obj 119 78 samplerate~;
#X obj 73 369 tabread \$0-sample;
#X obj 73 391 abs;
#X obj 140 484 f;
#X obj 73 294 f;
#X obj 140 459 t b b;
#X obj 73 316 t f f;
#X obj 73 221 until;
#X obj 73 416 moses 0.05;
#X obj 120 295 - 1;
#X obj 73 341 t f f;
#X obj 119 150 t f f f;
#X obj 119 100 / 1000;
#X obj 119 122 44.1;
#X obj 73 176 * 44.1;
#X obj 95 253 * 44.1;
#X obj 140 506 / 44.1;
#X obj 73 53 t f f b f b;
#X obj 26 185 f;
#X obj 19 106 del 1;
#X connect 0 0 1 0;
#X connect 2 0 14 0;
#X connect 3 0 4 0;
#X connect 4 0 10 0;
#X connect 5 0 18 0;
#X connect 6 0 8 0;
#X connect 7 0 5 0;
#X connect 7 1 9 1;
#X connect 8 0 12 0;
#X connect 8 1 11 0;
#X connect 9 0 6 0;
#X connect 10 1 7 0;
#X connect 11 0 6 1;
#X connect 12 0 3 0;
#X connect 12 1 5 1;
#X connect 13 0 16 1;
#X connect 13 1 18 1;
#X connect 13 2 17 1;
#X connect 14 0 15 0;
#X connect 15 0 13 0;
#X connect 16 0 9 0;
#X connect 17 0 6 1;
#X connect 18 0 1 0;
#X connect 19 0 20 1;
#X connect 19 1 17 0;
#X connect 19 2 2 0;
#X connect 19 3 1 0;
#X connect 19 4 21 0;
#X connect 20 0 16 0;
#X connect 21 0 20 0;
#X restore 27 134 pd detect_end;
#X obj 91 57 t f f f f b;
#X connect 0 0 9 0;
#X connect 3 0 1 0;
#X connect 4 0 2 0;
#X connect 6 0 5 0;
#X connect 7 0 2 0;
#X connect 8 0 1 0;
#X connect 9 0 8 0;
#X connect 9 1 3 0;
#X connect 9 2 7 0;
#X connect 9 3 4 0;
#X connect 9 4 6 0;
#X restore 88 251 pd set_length;
#X obj 286 4 inlet;
#X obj 88 31 route rec open;
#X obj 16 217 soundfiler;
#X msg 16 192 read \$1 \$2;
#X obj 16 90 symbol;
#X obj 16 112 t s b;
#X obj 43 137 symbol \$0-sample;
#X obj 16 162 pack s s;
#N canvas 36 76 645 680 voice 0;
#X obj 50 628 outlet~;
#X obj 138 4 inlet;
#X obj 49 602 *~ 0;
#X obj 138 356 mtof;
#X obj 76 341 loadbang;
#X msg 76 371 60;
#X obj 76 398 mtof;
#X obj 138 426 /;
#X obj 138 150 unpack f f;
#X obj 50 7 inlet;
#X obj 530 18 inlet;
#X obj 50 112 phasor~ 0;
#X obj 51 151 *~ 1;
#X obj 50 186 +~ 0;
#X obj 50 29 unpack f f;
#X floatatom 282 414 5 0 0 0 - - - 0;
#X obj 138 269 sel -1 0;
#X obj 216 205 sel -1 0;
#X obj 216 319 line 0 1;
#X msg 288 263 \$1 30;
#X msg 215 296 0 200;
#X floatatom 255 445 5 0 0 0 - - - 0;
#X obj 50 537 _table_reader_pitch \$0-sample;
#X connect 1 0 8 0;
#X connect 2 0 0 0;
#X connect 3 0 7 0;
#X connect 4 0 5 0;
#X connect 5 0 6 0;
#X connect 6 0 7 1;
#X connect 7 0 22 1;
#X connect 8 0 16 0;
#X connect 8 1 17 0;
#X connect 9 0 14 0;
#X connect 10 0 13 1;
#X connect 11 0 12 0;
#X connect 12 0 13 0;
#X connect 13 0 22 0;
#X connect 14 0 11 0;
#X connect 14 1 12 1;
#X connect 16 2 3 0;
#X connect 16 2 21 0;
#X connect 17 0 20 0;
#X connect 17 2 19 0;
#X connect 18 0 15 0;
#X connect 18 0 2 1;
#X connect 19 0 18 0;
#X connect 20 0 18 0;
#X connect 22 0 2 0;
#X restore 263 490 pd voice;
#X obj 357 4 inlet;
#X obj 425 4 inlet;
#X obj 495 6 inlet;
#N canvas 36 76 645 680 voice 0;
#X obj 50 628 outlet~;
#X obj 138 4 inlet;
#X obj 49 602 *~ 0;
#X obj 138 356 mtof;
#X obj 76 341 loadbang;
#X msg 76 371 60;
#X obj 76 398 mtof;
#X obj 138 426 /;
#X obj 138 150 unpack f f;
#X obj 50 7 inlet;
#X obj 530 18 inlet;
#X obj 50 112 phasor~ 0;
#X obj 51 151 *~ 1;
#X obj 50 186 +~ 0;
#X obj 50 29 unpack f f;
#X obj 138 269 sel -1 0;
#X obj 216 205 sel -1 0;
#X obj 216 319 line 0 1;
#X msg 288 263 \$1 30;
#X msg 215 296 0 200;
#X floatatom 270 422 5 0 0 0 - - - 0;
#X obj 50 537 _table_reader_pitch \$0-sample;
#X connect 1 0 8 0;
#X connect 2 0 0 0;
#X connect 3 0 7 0;
#X connect 4 0 5 0;
#X connect 5 0 6 0;
#X connect 6 0 7 1;
#X connect 7 0 21 1;
#X connect 8 0 15 0;
#X connect 8 1 16 0;
#X connect 9 0 14 0;
#X connect 10 0 13 1;
#X connect 11 0 12 0;
#X connect 12 0 13 0;
#X connect 13 0 21 0;
#X connect 14 0 11 0;
#X connect 14 1 12 1;
#X connect 15 2 3 0;
#X connect 16 0 19 0;
#X connect 16 2 18 0;
#X connect 17 0 2 1;
#X connect 17 0 20 0;
#X connect 18 0 17 0;
#X connect 19 0 17 0;
#X connect 21 0 2 0;
#X restore 372 483 pd voice;
#N canvas 36 76 645 680 voice 0;
#X obj 50 628 outlet~;
#X obj 138 4 inlet;
#X obj 49 602 *~ 0;
#X obj 138 356 mtof;
#X obj 76 341 loadbang;
#X msg 76 371 60;
#X obj 76 398 mtof;
#X obj 138 426 /;
#X obj 138 150 unpack f f;
#X obj 50 7 inlet;
#X obj 530 18 inlet;
#X obj 50 112 phasor~ 0;
#X obj 51 151 *~ 1;
#X obj 50 186 +~ 0;
#X obj 50 29 unpack f f;
#X floatatom 282 414 5 0 0 0 - - - 0;
#X obj 138 269 sel -1 0;
#X obj 216 205 sel -1 0;
#X obj 216 319 line 0 1;
#X msg 288 263 \$1 30;
#X msg 215 296 0 200;
#X obj 50 537 _table_reader_pitch \$0-sample;
#X connect 1 0 8 0;
#X connect 2 0 0 0;
#X connect 3 0 7 0;
#X connect 4 0 5 0;
#X connect 5 0 6 0;
#X connect 6 0 7 1;
#X connect 7 0 21 1;
#X connect 8 0 16 0;
#X connect 8 1 17 0;
#X connect 9 0 14 0;
#X connect 10 0 13 1;
#X connect 11 0 12 0;
#X connect 12 0 13 0;
#X connect 13 0 21 0;
#X connect 14 0 11 0;
#X connect 14 1 12 1;
#X connect 16 2 3 0;
#X connect 17 0 20 0;
#X connect 17 2 19 0;
#X connect 18 0 2 1;
#X connect 18 0 15 0;
#X connect 19 0 18 0;
#X connect 20 0 18 0;
#X connect 21 0 2 0;
#X restore 482 485 pd voice;
#N canvas 36 76 645 680 voice 0;
#X obj 50 628 outlet~;
#X obj 138 4 inlet;
#X obj 49 602 *~ 0;
#X obj 138 356 mtof;
#X obj 76 341 loadbang;
#X msg 76 371 60;
#X obj 76 398 mtof;
#X obj 138 426 /;
#X obj 138 150 unpack f f;
#X obj 50 7 inlet;
#X obj 530 18 inlet;
#X obj 50 112 phasor~ 0;
#X obj 51 151 *~ 1;
#X obj 50 186 +~ 0;
#X obj 50 29 unpack f f;
#X floatatom 282 414 5 0 0 0 - - - 0;
#X obj 138 269 sel -1 0;
#X obj 216 205 sel -1 0;
#X obj 216 319 line 0 1;
#X msg 288 263 \$1 30;
#X msg 215 296 0 200;
#X obj 50 537 _table_reader_pitch \$0-sample;
#X connect 1 0 8 0;
#X connect 2 0 0 0;
#X connect 3 0 7 0;
#X connect 4 0 5 0;
#X connect 5 0 6 0;
#X connect 6 0 7 1;
#X connect 7 0 21 1;
#X connect 8 0 16 0;
#X connect 8 1 17 0;
#X connect 9 0 14 0;
#X connect 10 0 13 1;
#X connect 11 0 12 0;
#X connect 12 0 13 0;
#X connect 13 0 21 0;
#X connect 14 0 11 0;
#X connect 14 1 12 1;
#X connect 16 2 3 0;
#X connect 17 0 20 0;
#X connect 17 2 19 0;
#X connect 18 0 2 1;
#X connect 19 0 18 0;
#X connect 20 0 18 0;
#X connect 21 0 2 0;
#X restore 566 488 pd voice;
#X obj 16 65 _make_path;
#X connect 0 0 12 1;
#X connect 2 0 16 0;
#X connect 6 0 13 2;
#X connect 6 1 13 3;
#X connect 8 0 9 0;
#X connect 9 0 13 0;
#X connect 9 1 13 1;
#X connect 9 2 23 2;
#X connect 9 2 27 2;
#X connect 9 2 28 2;
#X connect 9 2 29 2;
#X connect 10 0 13 0;
#X connect 11 0 6 0;
#X connect 12 0 14 0;
#X connect 13 0 23 0;
#X connect 13 0 27 0;
#X connect 13 0 28 0;
#X connect 13 0 29 0;
#X connect 15 0 23 1;
#X connect 16 0 12 0;
#X connect 16 1 30 0;
#X connect 17 0 14 0;
#X connect 18 0 17 0;
#X connect 19 0 20 0;
#X connect 20 0 22 0;
#X connect 20 1 21 0;
#X connect 21 0 22 1;
#X connect 22 0 18 0;
#X connect 23 0 1 0;
#X connect 24 0 27 1;
#X connect 25 0 28 1;
#X connect 26 0 29 1;
#X connect 27 0 1 0;
#X connect 28 0 1 0;
#X connect 29 0 1 0;
#X connect 30 0 19 0;
#X coords 0 -1 1 1 191 125 1 640 125;
