#N canvas 44 58 950 911 10;
#X obj 219 591 dac~ 1 2;
#X obj 191 222 osc~ 220;
#X text 187 203 Sound to sample;
#X obj 254 425 live-sampler~;
#X text 521 228 ADSR;
#X floatatom 454 212 5 0 0 0 - - - 0;
#X floatatom 467 230 5 0 0 0 - - - 0;
#X floatatom 395 156 5 0 0 0 - - - 0;
#X floatatom 426 182 5 0 0 0 - - - 0;
#X msg 33 63 rec start;
#X msg 67 94 rec stop;
#X text 34 28 Start / stop recording;
#X obj 263 270 notein 1;
#X obj 263 292 pack f f;
#X connect 1 0 3 1;
#X connect 3 0 0 0;
#X connect 3 0 0 1;
#X connect 5 0 3 5;
#X connect 6 0 3 6;
#X connect 7 0 3 3;
#X connect 8 0 3 4;
#X connect 9 0 3 0;
#X connect 10 0 3 0;
#X connect 12 0 13 0;
#X connect 12 1 13 1;
#X connect 13 0 3 2;
