#N canvas 44 58 950 911 10;
#X obj 252 301 notein;
#X obj 219 591 dac~ 1 2;
#X obj 191 222 osc~ 220;
#X text 187 203 Sound to sample;
#X obj 254 425 live-sampler~;
#X text 411 264 ADSR;
#X floatatom 344 248 5 0 0 0 - - -, f 5;
#X floatatom 357 266 5 0 0 0 - - -, f 5;
#X floatatom 371 292 5 0 0 0 - - -, f 5;
#X floatatom 386 308 5 0 0 0 - - -, f 5;
#X msg 33 63 rec start;
#X msg 67 94 rec stop;
#X text 34 28 Start / stop recording;
#X obj 490 336 hsl 128 15 0 127 0 0 empty empty empty -2 -8 0 10 -262144
-1 -1 0 1;
#X text 532 295 Vibrato;
#X obj 267 351 ../glue/note-vel-filter;
#X obj 381 144 tgl 15 0 empty empty empty 17 7 0 10 -262144 -1 -1 1
1;
#X text 329 122 Every Playback starts at 0?;
#X connect 0 0 15 0;
#X connect 0 1 15 1;
#X connect 2 0 4 1;
#X connect 4 0 1 0;
#X connect 4 0 1 1;
#X connect 6 0 4 5;
#X connect 7 0 4 6;
#X connect 8 0 4 7;
#X connect 9 0 4 8;
#X connect 10 0 4 0;
#X connect 11 0 4 0;
#X connect 13 0 4 9;
#X connect 15 0 4 2;
#X connect 15 1 4 3;
#X connect 16 0 4 4;
