#N canvas 357 136 903 629 10;
#X obj 158 0 inlet~;
#X obj 262 586 outlet~;
#X obj 88 0 inlet;
#X obj 651 150 hsl 128 30 0 44096 0 0 \$0-start-s \$0-start start 136
15 0 10 -262144 -258113 -1 0 1;
#X obj 651 183 hsl 128 30 0 44096 0 0 \$0-stop-s \$0-stop stop 136
15 0 10 -262144 -258113 -1 0 1;
#X obj 30 519 table \$0-sample 4.41e+06;
#X obj 326 272 t b f;
#X obj 651 216 hsl 128 30 0.1 10 1 0 \$0-speed-s \$0-speed speed 136
15 0 10 -262144 -258113 -1 0 1;
#X obj 206 163 r \$0-start-s;
#X obj 206 188 t b f f;
#X obj 119 281 r \$0-stop-s;
#X obj 326 237 r \$0-speed-s;
#N canvas 525 159 717 606 recording 1;
#X obj 97 30 inlet;
#X obj 311 30 inlet~;
#X obj 97 338 outlet;
#X msg 189 197 stop;
#X obj 97 80 sel start stop;
#X obj 97 59 list \$1;
#X obj 310 267 tabwrite~ \$0-sample;
#X msg 410 158 \; \$1-sample const 0;
#X obj 410 134 \$0;
#X obj 136 242 samplerate~;
#X obj 136 271 / 1000;
#X obj 97 293 * 44.1;
#X obj 97 197 timer;
#X obj 143 159 t b b b;
#X obj 97 110 t b b b;
#X connect 0 0 5 0;
#X connect 1 0 6 0;
#X connect 3 0 6 0;
#X connect 4 0 14 0;
#X connect 4 1 13 0;
#X connect 5 0 4 0;
#X connect 8 0 7 0;
#X connect 9 0 10 0;
#X connect 10 0 11 1;
#X connect 11 0 2 0;
#X connect 12 0 11 0;
#X connect 13 0 12 1;
#X connect 13 1 9 0;
#X connect 13 2 3 0;
#X connect 14 0 12 0;
#X connect 14 1 6 0;
#X connect 14 2 8 0;
#X restore 88 221 pd recording;
#N canvas 898 326 448 424 phasor-freq-calc 0;
#X obj 42 37 inlet;
#X obj 86 36 inlet;
#X obj 137 35 inlet;
#X obj 234 36 inlet;
#X obj 42 161 t b f;
#X obj 42 214 /;
#X obj 42 274 f;
#X obj 42 104 -;
#X obj 42 75 f;
#X obj 42 132 t f f;
#X obj 42 328 * 1;
#X obj 42 187 samplerate~;
#X obj 42 236 abs;
#X obj 42 366 pack f f;
#X obj 42 388 outlet;
#X connect 0 0 8 0;
#X connect 1 0 7 1;
#X connect 2 0 6 0;
#X connect 3 0 10 1;
#X connect 4 0 11 0;
#X connect 4 1 5 1;
#X connect 5 0 12 0;
#X connect 6 0 10 0;
#X connect 7 0 9 0;
#X connect 8 0 7 0;
#X connect 9 0 4 0;
#X connect 9 1 13 1;
#X connect 10 0 13 0;
#X connect 11 0 5 0;
#X connect 12 0 6 0;
#X connect 13 0 14 0;
#X restore 206 330 pd phasor-freq-calc;
#X obj 30 559 table \$0-hanning 256;
#N canvas 44 51 443 256 write-hanning 0;
#X msg 142 80 0;
#X obj 36 129 osc~;
#X obj 36 81 samplerate~;
#X obj 36 152 *~ -0.5;
#X obj 36 175 +~ 0.5;
#X obj 28 58 bng 15 250 50 0 empty empty empty 0 -6 0 8 -262144 -1
-1;
#X obj 28 26 loadbang;
#X obj 36 105 / 256;
#X obj 28 200 tabwrite~ \$0-hanning;
#X connect 0 0 1 1;
#X connect 1 0 3 0;
#X connect 2 0 7 0;
#X connect 3 0 4 0;
#X connect 4 0 8 0;
#X connect 5 0 2 0;
#X connect 5 0 0 0;
#X connect 5 0 8 0;
#X connect 6 0 5 0;
#X connect 7 0 1 0;
#X restore 29 586 pd write-hanning;
#N canvas 325 164 450 587 set_length 1;
#X obj 91 24 inlet;
#X obj 108 232 s \$0-stop;
#X obj 181 240 s \$0-start;
#X msg 108 180 range 0 \$1;
#X msg 196 178 range 0 \$1;
#X obj 164 316 s \$0-speed;
#X msg 164 283 1;
#N canvas 635 98 651 659 detect_start 1;
#X obj 84 59 inlet;
#X obj 176 354 outlet;
#X msg 508 187 0;
#X obj 121 120 samplerate~;
#X obj 165 146 \$0;
#X msg 84 153 detect;
#X obj 84 199 pack s f f s;
#X msg 165 168 symbol \$1-sample;
#X obj 84 230 list trim;
#X obj 84 90 t b f b b b;
#X obj 175 246 loadbang;
#X connect 0 0 9 0;
#X connect 2 0 1 0;
#X connect 3 0 6 2;
#X connect 4 0 7 0;
#X connect 5 0 6 0;
#X connect 6 0 8 0;
#X connect 7 0 6 3;
#X connect 9 0 5 0;
#X connect 9 1 6 1;
#X connect 9 2 3 0;
#X connect 9 3 4 0;
#X connect 9 4 2 0;
#X restore 126 97 pd detect_start;
#N canvas 499 118 450 549 detect_end 0;
#X obj 251 22 inlet;
#X obj 224 538 outlet;
#X obj 119 78 samplerate~;
#X obj 73 369 tabread \$0-sample;
#X obj 73 391 abs;
#X obj 140 484 f;
#X obj 73 294 f;
#X obj 140 459 t b b;
#X obj 73 316 t f f;
#X obj 73 221 until;
#X obj 73 416 moses 0.05;
#X obj 120 295 - 1;
#X obj 73 341 t f f;
#X obj 119 150 t f f f;
#X obj 119 100 / 1000;
#X obj 119 122 44.1;
#X obj 73 176 * 44.1;
#X obj 95 253 * 44.1;
#X obj 140 506 / 44.1;
#X obj 73 53 t f f b f b;
#X obj 26 185 f;
#X obj 19 106 del 1;
#X connect 0 0 1 0;
#X connect 2 0 14 0;
#X connect 3 0 4 0;
#X connect 4 0 10 0;
#X connect 5 0 18 0;
#X connect 6 0 8 0;
#X connect 7 0 5 0;
#X connect 7 1 9 1;
#X connect 8 0 12 0;
#X connect 8 1 11 0;
#X connect 9 0 6 0;
#X connect 10 1 7 0;
#X connect 11 0 6 1;
#X connect 12 0 3 0;
#X connect 12 1 5 1;
#X connect 13 0 16 1;
#X connect 13 1 18 1;
#X connect 13 2 17 1;
#X connect 14 0 15 0;
#X connect 15 0 13 0;
#X connect 16 0 9 0;
#X connect 17 0 6 1;
#X connect 18 0 1 0;
#X connect 19 0 20 1;
#X connect 19 1 17 0;
#X connect 19 2 2 0;
#X connect 19 3 1 0;
#X connect 19 4 21 0;
#X connect 20 0 16 0;
#X connect 21 0 20 0;
#X restore 27 134 pd detect_end;
#X obj 91 57 t f f f f b;
#X connect 0 0 9 0;
#X connect 3 0 1 0;
#X connect 4 0 2 0;
#X connect 6 0 5 0;
#X connect 7 0 2 0;
#X connect 8 0 1 0;
#X connect 9 0 8 0;
#X connect 9 1 3 0;
#X connect 9 2 7 0;
#X connect 9 3 4 0;
#X connect 9 4 6 0;
#X restore 88 251 pd set_length;
#X obj 411 6 inlet;
#X obj 467 8 inlet;
#X obj 578 10 inlet;
#X obj 667 13 inlet;
#X obj 768 13 inlet;
#X obj 88 31 route rec open;
#X obj 124 202 soundfiler;
#X msg 124 177 read \$1 \$2;
#X obj 34 68 symbol;
#X obj 34 90 t s b;
#X obj 61 115 symbol \$0-sample;
#X obj 34 140 pack s s;
#X obj 464 294 pack 0 0 0;
#X obj 464 355 route 1 2 3 4;
#X obj 467 30 s \$0-attack;
#X obj 578 32 s \$0-decay;
#X obj 667 35 s \$0-sustain;
#X obj 768 35 s \$0-release;
#N canvas 494 85 645 680 voice 0;
#X obj 50 628 outlet~;
#X obj 138 4 inlet;
#N canvas 46 83 526 599 read-table 0;
#X obj 89 83 / 256;
#X obj 89 56 * 44100;
#X obj 15 30 inlet~;
#X obj 89 28 inlet;
#X obj 233 429 outlet~;
#X obj 18 258 tabread4~ \$0-sample;
#X obj 89 117 phasor~;
#X obj 16 196 samphold~;
#X obj 98 198 *~ 256;
#X obj 17 232 +~;
#X obj 43 288 *~;
#X obj 149 260 tabread4~ \$0-hanning;
#X obj 374 152 +~ 0.5;
#X obj 374 181 wrap~;
#X obj 304 273 tabread4~ \$0-sample;
#X obj 302 211 samphold~;
#X obj 384 213 *~ 256;
#X obj 303 247 +~;
#X obj 329 303 *~;
#X obj 435 275 tabread4~ \$0-hanning;
#X obj 234 395 +~;
#X obj 128 -4 loadbang;
#X obj 128 22 samplerate~;
#X connect 0 0 6 0;
#X connect 1 0 0 0;
#X connect 2 0 7 0;
#X connect 2 0 15 0;
#X connect 3 0 1 0;
#X connect 5 0 10 0;
#X connect 6 0 7 1;
#X connect 6 0 8 0;
#X connect 6 0 12 0;
#X connect 7 0 9 0;
#X connect 8 0 9 1;
#X connect 8 0 11 0;
#X connect 9 0 5 0;
#X connect 10 0 20 0;
#X connect 11 0 10 1;
#X connect 12 0 13 0;
#X connect 13 0 16 0;
#X connect 13 0 15 1;
#X connect 14 0 18 0;
#X connect 15 0 17 0;
#X connect 16 0 17 1;
#X connect 16 0 19 0;
#X connect 17 0 14 0;
#X connect 18 0 20 1;
#X connect 19 0 18 1;
#X connect 20 0 4 0;
#X connect 21 0 22 0;
#X connect 22 0 1 1;
#X restore 50 537 pd read-table;
#X obj 49 602 *~ 0;
#X obj 50 568 *~;
#X obj 267 413 / 127;
#X obj 228 312 sel 0;
#X obj 138 356 mtof;
#X obj 76 321 loadbang;
#X msg 76 351 60;
#X obj 76 378 mtof;
#X obj 138 426 /;
#X obj 175 538 bsaylor/aenv~ 30 600 0.7 800;
#X msg 228 344 0;
#X msg 174 355 1;
#X obj 331 412 / 127;
#X obj 387 453 * 10;
#X obj 215 503 * 5;
#X obj 302 479 * 5;
#X obj 138 246 unpack f f;
#X obj 215 478 r \$0-attack;
#X obj 302 446 r \$0-decay;
#X obj 331 390 r \$0-sustain;
#X obj 387 429 r \$0-release;
#X obj 138 319 t f b;
#X obj 174 377 t f f;
#X obj 228 366 t f f;
#X obj 175 416 spigot 1;
#X obj 50 7 inlet;
#X obj 530 18 inlet;
#X obj 50 112 phasor~ 0;
#X obj 51 151 *~ 1;
#X obj 50 186 +~ 0;
#X msg 410 214 0;
#X obj 50 29 unpack f f;
#X obj 267 340 t f b;
#X connect 1 0 19 0;
#X connect 2 0 4 0;
#X connect 3 0 0 0;
#X connect 4 0 3 0;
#X connect 5 0 3 1;
#X connect 6 0 13 0;
#X connect 6 1 35 0;
#X connect 7 0 11 0;
#X connect 8 0 9 0;
#X connect 9 0 10 0;
#X connect 10 0 11 1;
#X connect 11 0 2 1;
#X connect 12 0 4 1;
#X connect 13 0 26 0;
#X connect 14 0 25 0;
#X connect 15 0 12 3;
#X connect 16 0 12 4;
#X connect 17 0 12 1;
#X connect 18 0 12 2;
#X connect 19 0 24 0;
#X connect 19 1 6 0;
#X connect 20 0 17 0;
#X connect 21 0 18 0;
#X connect 22 0 15 0;
#X connect 23 0 16 0;
#X connect 24 0 7 0;
#X connect 24 1 14 0;
#X connect 25 0 27 1;
#X connect 25 1 27 0;
#X connect 26 0 27 1;
#X connect 26 1 12 0;
#X connect 27 0 12 0;
#X connect 28 0 34 0;
#X connect 29 0 32 1;
#X connect 30 0 31 0;
#X connect 31 0 32 0;
#X connect 32 0 2 0;
#X connect 33 0 30 1;
#X connect 34 0 30 0;
#X connect 34 1 31 1;
#X connect 35 0 5 0;
#X connect 35 1 33 0;
#X restore 263 490 pd voice;
#X msg 500 228 stop;
#X obj 464 271 poly 4 1;
#X obj 411 72 route -1;
#X floatatom 693 101 5 0 0 0 - - -, f 5;
#N canvas 494 78 645 680 voice 0;
#X obj 50 628 outlet~;
#X obj 138 4 inlet;
#N canvas 46 78 526 599 read-table 0;
#X obj 89 83 / 256;
#X obj 89 56 * 44100;
#X obj 15 30 inlet~;
#X obj 89 28 inlet;
#X obj 233 429 outlet~;
#X obj 18 258 tabread4~ \$0-sample;
#X obj 89 117 phasor~;
#X obj 16 196 samphold~;
#X obj 98 198 *~ 256;
#X obj 17 232 +~;
#X obj 43 288 *~;
#X obj 149 260 tabread4~ \$0-hanning;
#X obj 374 152 +~ 0.5;
#X obj 374 181 wrap~;
#X obj 304 273 tabread4~ \$0-sample;
#X obj 302 211 samphold~;
#X obj 384 213 *~ 256;
#X obj 303 247 +~;
#X obj 329 303 *~;
#X obj 435 275 tabread4~ \$0-hanning;
#X obj 234 395 +~;
#X obj 128 -4 loadbang;
#X obj 128 22 samplerate~;
#X connect 0 0 6 0;
#X connect 1 0 0 0;
#X connect 2 0 7 0;
#X connect 2 0 15 0;
#X connect 3 0 1 0;
#X connect 5 0 10 0;
#X connect 6 0 7 1;
#X connect 6 0 8 0;
#X connect 6 0 12 0;
#X connect 7 0 9 0;
#X connect 8 0 9 1;
#X connect 8 0 11 0;
#X connect 9 0 5 0;
#X connect 10 0 20 0;
#X connect 11 0 10 1;
#X connect 12 0 13 0;
#X connect 13 0 16 0;
#X connect 13 0 15 1;
#X connect 14 0 18 0;
#X connect 15 0 17 0;
#X connect 16 0 17 1;
#X connect 16 0 19 0;
#X connect 17 0 14 0;
#X connect 18 0 20 1;
#X connect 19 0 18 1;
#X connect 20 0 4 0;
#X connect 21 0 22 0;
#X connect 22 0 1 1;
#X restore 50 537 pd read-table;
#X obj 49 602 *~ 0;
#X obj 50 568 *~;
#X obj 267 413 / 127;
#X obj 228 312 sel 0;
#X obj 138 356 mtof;
#X obj 76 321 loadbang;
#X msg 76 351 60;
#X obj 76 378 mtof;
#X obj 138 426 /;
#X obj 175 538 bsaylor/aenv~ 30 600 0.7 800;
#X msg 228 344 0;
#X msg 174 355 1;
#X obj 331 412 / 127;
#X obj 387 453 * 10;
#X obj 215 503 * 5;
#X obj 302 479 * 5;
#X obj 138 246 unpack f f;
#X obj 215 478 r \$0-attack;
#X obj 302 446 r \$0-decay;
#X obj 331 390 r \$0-sustain;
#X obj 387 429 r \$0-release;
#X obj 138 319 t f b;
#X obj 174 377 t f f;
#X obj 228 366 t f f;
#X obj 175 416 spigot 1;
#X obj 50 7 inlet;
#X obj 530 18 inlet;
#X obj 50 112 phasor~ 0;
#X obj 51 151 *~ 1;
#X obj 50 186 +~ 0;
#X text 62 205 offset;
#X msg 410 214 0;
#X obj 50 29 unpack f f;
#X obj 267 340 t f b;
#X connect 1 0 19 0;
#X connect 2 0 4 0;
#X connect 3 0 0 0;
#X connect 4 0 3 0;
#X connect 5 0 3 1;
#X connect 6 0 13 0;
#X connect 6 1 36 0;
#X connect 7 0 11 0;
#X connect 8 0 9 0;
#X connect 9 0 10 0;
#X connect 10 0 11 1;
#X connect 11 0 2 1;
#X connect 12 0 4 1;
#X connect 13 0 26 0;
#X connect 14 0 25 0;
#X connect 15 0 12 3;
#X connect 16 0 12 4;
#X connect 17 0 12 1;
#X connect 18 0 12 2;
#X connect 19 0 24 0;
#X connect 19 1 6 0;
#X connect 20 0 17 0;
#X connect 21 0 18 0;
#X connect 22 0 15 0;
#X connect 23 0 16 0;
#X connect 24 0 7 0;
#X connect 24 1 14 0;
#X connect 25 0 27 1;
#X connect 25 1 27 0;
#X connect 26 0 27 1;
#X connect 26 1 12 0;
#X connect 27 0 12 0;
#X connect 28 0 35 0;
#X connect 29 0 32 1;
#X connect 30 0 31 0;
#X connect 31 0 32 0;
#X connect 32 0 2 0;
#X connect 34 0 30 1;
#X connect 35 0 30 0;
#X connect 35 1 31 1;
#X connect 36 0 5 0;
#X connect 36 1 34 0;
#X restore 333 490 pd voice;
#N canvas 494 78 645 680 voice 0;
#X obj 50 628 outlet~;
#X obj 138 4 inlet;
#N canvas 46 78 526 599 read-table 0;
#X obj 89 83 / 256;
#X obj 89 56 * 44100;
#X obj 15 30 inlet~;
#X obj 89 28 inlet;
#X obj 233 429 outlet~;
#X obj 18 258 tabread4~ \$0-sample;
#X obj 89 117 phasor~;
#X obj 16 196 samphold~;
#X obj 98 198 *~ 256;
#X obj 17 232 +~;
#X obj 43 288 *~;
#X obj 149 260 tabread4~ \$0-hanning;
#X obj 374 152 +~ 0.5;
#X obj 374 181 wrap~;
#X obj 304 273 tabread4~ \$0-sample;
#X obj 302 211 samphold~;
#X obj 384 213 *~ 256;
#X obj 303 247 +~;
#X obj 329 303 *~;
#X obj 435 275 tabread4~ \$0-hanning;
#X obj 234 395 +~;
#X obj 128 -4 loadbang;
#X obj 128 22 samplerate~;
#X connect 0 0 6 0;
#X connect 1 0 0 0;
#X connect 2 0 7 0;
#X connect 2 0 15 0;
#X connect 3 0 1 0;
#X connect 5 0 10 0;
#X connect 6 0 7 1;
#X connect 6 0 8 0;
#X connect 6 0 12 0;
#X connect 7 0 9 0;
#X connect 8 0 9 1;
#X connect 8 0 11 0;
#X connect 9 0 5 0;
#X connect 10 0 20 0;
#X connect 11 0 10 1;
#X connect 12 0 13 0;
#X connect 13 0 16 0;
#X connect 13 0 15 1;
#X connect 14 0 18 0;
#X connect 15 0 17 0;
#X connect 16 0 17 1;
#X connect 16 0 19 0;
#X connect 17 0 14 0;
#X connect 18 0 20 1;
#X connect 19 0 18 1;
#X connect 20 0 4 0;
#X connect 21 0 22 0;
#X connect 22 0 1 1;
#X restore 50 537 pd read-table;
#X obj 49 602 *~ 0;
#X obj 50 568 *~;
#X obj 267 413 / 127;
#X obj 228 312 sel 0;
#X obj 138 356 mtof;
#X obj 76 321 loadbang;
#X msg 76 351 60;
#X obj 76 378 mtof;
#X obj 138 426 /;
#X obj 175 538 bsaylor/aenv~ 30 600 0.7 800;
#X msg 228 344 0;
#X msg 174 355 1;
#X obj 331 412 / 127;
#X obj 387 453 * 10;
#X obj 215 503 * 5;
#X obj 302 479 * 5;
#X obj 138 246 unpack f f;
#X obj 215 478 r \$0-attack;
#X obj 302 446 r \$0-decay;
#X obj 331 390 r \$0-sustain;
#X obj 387 429 r \$0-release;
#X obj 138 319 t f b;
#X obj 174 377 t f f;
#X obj 228 366 t f f;
#X obj 175 416 spigot 1;
#X obj 50 7 inlet;
#X obj 530 18 inlet;
#X obj 50 112 phasor~ 0;
#X obj 51 151 *~ 1;
#X obj 50 186 +~ 0;
#X text 62 205 offset;
#X msg 410 214 0;
#X obj 50 29 unpack f f;
#X obj 267 340 t f b;
#X connect 1 0 19 0;
#X connect 2 0 4 0;
#X connect 3 0 0 0;
#X connect 4 0 3 0;
#X connect 5 0 3 1;
#X connect 6 0 13 0;
#X connect 6 1 36 0;
#X connect 7 0 11 0;
#X connect 8 0 9 0;
#X connect 9 0 10 0;
#X connect 10 0 11 1;
#X connect 11 0 2 1;
#X connect 12 0 4 1;
#X connect 13 0 26 0;
#X connect 14 0 25 0;
#X connect 15 0 12 3;
#X connect 16 0 12 4;
#X connect 17 0 12 1;
#X connect 18 0 12 2;
#X connect 19 0 24 0;
#X connect 19 1 6 0;
#X connect 20 0 17 0;
#X connect 21 0 18 0;
#X connect 22 0 15 0;
#X connect 23 0 16 0;
#X connect 24 0 7 0;
#X connect 24 1 14 0;
#X connect 25 0 27 1;
#X connect 25 1 27 0;
#X connect 26 0 27 1;
#X connect 26 1 12 0;
#X connect 27 0 12 0;
#X connect 28 0 35 0;
#X connect 29 0 32 1;
#X connect 30 0 31 0;
#X connect 31 0 32 0;
#X connect 32 0 2 0;
#X connect 34 0 30 1;
#X connect 35 0 30 0;
#X connect 35 1 31 1;
#X connect 36 0 5 0;
#X connect 36 1 34 0;
#X restore 403 490 pd voice;
#N canvas 494 78 645 680 voice 0;
#X obj 50 628 outlet~;
#X obj 138 4 inlet;
#N canvas 46 78 526 599 read-table 0;
#X obj 89 83 / 256;
#X obj 89 56 * 44100;
#X obj 15 30 inlet~;
#X obj 89 28 inlet;
#X obj 233 429 outlet~;
#X obj 18 258 tabread4~ \$0-sample;
#X obj 89 117 phasor~;
#X obj 16 196 samphold~;
#X obj 98 198 *~ 256;
#X obj 17 232 +~;
#X obj 43 288 *~;
#X obj 149 260 tabread4~ \$0-hanning;
#X obj 374 152 +~ 0.5;
#X obj 374 181 wrap~;
#X obj 304 273 tabread4~ \$0-sample;
#X obj 302 211 samphold~;
#X obj 384 213 *~ 256;
#X obj 303 247 +~;
#X obj 329 303 *~;
#X obj 435 275 tabread4~ \$0-hanning;
#X obj 234 395 +~;
#X obj 128 -4 loadbang;
#X obj 128 22 samplerate~;
#X connect 0 0 6 0;
#X connect 1 0 0 0;
#X connect 2 0 7 0;
#X connect 2 0 15 0;
#X connect 3 0 1 0;
#X connect 5 0 10 0;
#X connect 6 0 7 1;
#X connect 6 0 8 0;
#X connect 6 0 12 0;
#X connect 7 0 9 0;
#X connect 8 0 9 1;
#X connect 8 0 11 0;
#X connect 9 0 5 0;
#X connect 10 0 20 0;
#X connect 11 0 10 1;
#X connect 12 0 13 0;
#X connect 13 0 16 0;
#X connect 13 0 15 1;
#X connect 14 0 18 0;
#X connect 15 0 17 0;
#X connect 16 0 17 1;
#X connect 16 0 19 0;
#X connect 17 0 14 0;
#X connect 18 0 20 1;
#X connect 19 0 18 1;
#X connect 20 0 4 0;
#X connect 21 0 22 0;
#X connect 22 0 1 1;
#X restore 50 537 pd read-table;
#X obj 49 602 *~ 0;
#X obj 50 568 *~;
#X obj 267 413 / 127;
#X obj 228 312 sel 0;
#X obj 138 356 mtof;
#X obj 76 321 loadbang;
#X msg 76 351 60;
#X obj 76 378 mtof;
#X obj 138 426 /;
#X obj 175 538 bsaylor/aenv~ 30 600 0.7 800;
#X msg 228 344 0;
#X msg 174 355 1;
#X obj 331 412 / 127;
#X obj 387 453 * 10;
#X obj 215 503 * 5;
#X obj 302 479 * 5;
#X obj 138 246 unpack f f;
#X obj 215 478 r \$0-attack;
#X obj 302 446 r \$0-decay;
#X obj 331 390 r \$0-sustain;
#X obj 387 429 r \$0-release;
#X obj 138 319 t f b;
#X obj 174 377 t f f;
#X obj 228 366 t f f;
#X obj 175 416 spigot 1;
#X obj 50 7 inlet;
#X obj 530 18 inlet;
#X obj 50 112 phasor~ 0;
#X obj 51 151 *~ 1;
#X obj 50 186 +~ 0;
#X text 62 205 offset;
#X msg 410 214 0;
#X obj 50 29 unpack f f;
#X obj 267 340 t f b;
#X connect 1 0 19 0;
#X connect 2 0 4 0;
#X connect 3 0 0 0;
#X connect 4 0 3 0;
#X connect 5 0 3 1;
#X connect 6 0 13 0;
#X connect 6 1 36 0;
#X connect 7 0 11 0;
#X connect 8 0 9 0;
#X connect 9 0 10 0;
#X connect 10 0 11 1;
#X connect 11 0 2 1;
#X connect 12 0 4 1;
#X connect 13 0 26 0;
#X connect 14 0 25 0;
#X connect 15 0 12 3;
#X connect 16 0 12 4;
#X connect 17 0 12 1;
#X connect 18 0 12 2;
#X connect 19 0 24 0;
#X connect 19 1 6 0;
#X connect 20 0 17 0;
#X connect 21 0 18 0;
#X connect 22 0 15 0;
#X connect 23 0 16 0;
#X connect 24 0 7 0;
#X connect 24 1 14 0;
#X connect 25 0 27 1;
#X connect 25 1 27 0;
#X connect 26 0 27 1;
#X connect 26 1 12 0;
#X connect 27 0 12 0;
#X connect 28 0 35 0;
#X connect 29 0 32 1;
#X connect 30 0 31 0;
#X connect 31 0 32 0;
#X connect 32 0 2 0;
#X connect 34 0 30 1;
#X connect 35 0 30 0;
#X connect 35 1 31 1;
#X connect 36 0 5 0;
#X connect 36 1 34 0;
#X restore 473 490 pd voice;
#X connect 0 0 12 1;
#X connect 2 0 22 0;
#X connect 6 0 13 2;
#X connect 6 1 13 3;
#X connect 8 0 9 0;
#X connect 9 0 13 0;
#X connect 9 1 13 1;
#X connect 9 2 35 2;
#X connect 9 2 40 2;
#X connect 9 2 41 2;
#X connect 9 2 42 2;
#X connect 10 0 13 0;
#X connect 11 0 6 0;
#X connect 12 0 16 0;
#X connect 13 0 35 0;
#X connect 13 0 40 0;
#X connect 13 0 41 0;
#X connect 13 0 42 0;
#X connect 17 0 38 0;
#X connect 18 0 31 0;
#X connect 19 0 32 0;
#X connect 20 0 33 0;
#X connect 21 0 34 0;
#X connect 21 0 39 0;
#X connect 22 0 12 0;
#X connect 22 1 25 0;
#X connect 23 0 16 0;
#X connect 24 0 23 0;
#X connect 25 0 26 0;
#X connect 26 0 28 0;
#X connect 26 1 27 0;
#X connect 27 0 28 1;
#X connect 28 0 24 0;
#X connect 29 0 30 0;
#X connect 30 0 35 1;
#X connect 30 1 40 1;
#X connect 30 2 41 1;
#X connect 30 3 42 1;
#X connect 35 0 1 0;
#X connect 36 0 37 0;
#X connect 37 0 29 0;
#X connect 37 1 29 1;
#X connect 37 2 29 2;
#X connect 38 0 36 0;
#X connect 38 1 37 0;
#X connect 40 0 1 0;
#X connect 41 0 1 0;
#X connect 42 0 1 0;
#X coords 0 -1 1 1 191 125 1 640 125;
