#N canvas 766 51 1058 731 10;
#X obj 178 80 inlet~;
#X obj 282 666 outlet~;
#X obj 108 80 inlet;
#X obj 671 180 hsl 128 30 0 116320 0 0 \$0-start-s \$0-start start 136 15 0 10 #fcfcfc #fc0400 #000000 0 1;
#X obj 671 213 hsl 128 30 0 116320 0 0 \$0-stop-s \$0-stop stop 136 15 0 10 #fcfcfc #fc0400 #000000 0 1;
#X obj 50 599 table \$0-sample 4.41e+06;
#X obj 346 352 t b f;
#X obj 671 246 hsl 128 30 0.1 10 1 0 \$0-speed-s \$0-speed speed 136 15 0 10 #fcfcfc #fc0400 #000000 0 1;
#X obj 226 243 r \$0-start-s;
#X obj 226 268 t b f f;
#X obj 139 361 r \$0-stop-s;
#X obj 346 317 r \$0-speed-s;
#N canvas 525 159 717 606 recording 0;
#X obj 97 30 inlet;
#X obj 311 30 inlet~;
#X obj 97 338 outlet;
#X msg 189 197 stop;
#X obj 310 267 tabwrite~ \$0-sample;
#X msg 410 158 \; \$1-sample const 0;
#X obj 410 134 \$0;
#X obj 136 242 samplerate~;
#X obj 136 271 / 1000;
#X obj 97 293 * 44.1;
#X obj 97 197 timer;
#X obj 143 159 t b b b;
#X obj 97 110 t b b b;
#X obj 97 80 sel start 1 stop 0;
#X obj 97 53 list;
#X connect 0 0 14 0;
#X connect 1 0 4 0;
#X connect 3 0 4 0;
#X connect 6 0 5 0;
#X connect 7 0 8 0;
#X connect 8 0 9 1;
#X connect 9 0 2 0;
#X connect 10 0 9 0;
#X connect 11 0 10 1;
#X connect 11 1 7 0;
#X connect 11 2 3 0;
#X connect 12 0 10 0;
#X connect 12 1 4 0;
#X connect 12 2 6 0;
#X connect 13 0 12 0;
#X connect 13 1 12 0;
#X connect 13 2 11 0;
#X connect 13 3 11 0;
#X connect 14 0 13 0;
#X restore 108 311 pd recording;
#N canvas 898 326 448 424 phasor-freq-calc 0;
#X obj 42 37 inlet;
#X obj 86 36 inlet;
#X obj 137 35 inlet;
#X obj 234 36 inlet;
#X obj 42 161 t b f;
#X obj 42 214 /;
#X obj 42 274 f;
#X obj 42 104 -;
#X obj 42 75 f;
#X obj 42 132 t f f;
#X obj 42 328 * 1;
#X obj 42 187 samplerate~;
#X obj 42 236 abs;
#X obj 42 366 pack f f;
#X obj 42 388 outlet;
#X connect 0 0 8 0;
#X connect 1 0 7 1;
#X connect 2 0 6 0;
#X connect 3 0 10 1;
#X connect 4 0 11 0;
#X connect 4 1 5 1;
#X connect 5 0 12 0;
#X connect 6 0 10 0;
#X connect 7 0 9 0;
#X connect 8 0 7 0;
#X connect 9 0 4 0;
#X connect 9 1 13 1;
#X connect 10 0 13 0;
#X connect 11 0 5 0;
#X connect 12 0 6 0;
#X connect 13 0 14 0;
#X restore 226 410 pd phasor-freq-calc;
#N canvas 325 164 450 587 set_length 0;
#X obj 91 24 inlet;
#X obj 108 232 s \$0-stop;
#X obj 181 240 s \$0-start;
#X msg 108 180 range 0 \$1;
#X msg 196 178 range 0 \$1;
#X obj 164 316 s \$0-speed;
#X msg 164 283 1;
#N canvas 635 98 651 659 detect_start 0;
#X obj 84 59 inlet;
#X obj 176 354 outlet;
#X msg 508 187 0;
#X obj 121 120 samplerate~;
#X obj 165 146 \$0;
#X msg 84 153 detect;
#X obj 84 199 pack s f f s;
#X msg 165 168 symbol \$1-sample;
#X obj 84 230 list trim;
#X obj 84 90 t b f b b b;
#X obj 175 246 loadbang;
#X connect 0 0 9 0;
#X connect 2 0 1 0;
#X connect 3 0 6 2;
#X connect 4 0 7 0;
#X connect 5 0 6 0;
#X connect 6 0 8 0;
#X connect 7 0 6 3;
#X connect 9 0 5 0;
#X connect 9 1 6 1;
#X connect 9 2 3 0;
#X connect 9 3 4 0;
#X connect 9 4 2 0;
#X restore 126 97 pd detect_start;
#N canvas 499 118 450 549 detect_end 0;
#X obj 251 22 inlet;
#X obj 224 538 outlet;
#X obj 119 78 samplerate~;
#X obj 73 369 tabread \$0-sample;
#X obj 73 391 abs;
#X obj 140 484 f;
#X obj 73 294 f;
#X obj 140 459 t b b;
#X obj 73 316 t f f;
#X obj 73 221 until;
#X obj 73 416 moses 0.05;
#X obj 120 295 - 1;
#X obj 73 341 t f f;
#X obj 119 150 t f f f;
#X obj 119 100 / 1000;
#X obj 119 122 44.1;
#X obj 73 176 * 44.1;
#X obj 95 253 * 44.1;
#X obj 140 506 / 44.1;
#X obj 73 53 t f f b f b;
#X obj 26 185 f;
#X obj 19 106 del 1;
#X connect 0 0 1 0;
#X connect 2 0 14 0;
#X connect 3 0 4 0;
#X connect 4 0 10 0;
#X connect 5 0 18 0;
#X connect 6 0 8 0;
#X connect 7 0 5 0;
#X connect 7 1 9 1;
#X connect 8 0 12 0;
#X connect 8 1 11 0;
#X connect 9 0 6 0;
#X connect 10 1 7 0;
#X connect 11 0 6 1;
#X connect 12 0 3 0;
#X connect 12 1 5 1;
#X connect 13 0 16 1;
#X connect 13 1 18 1;
#X connect 13 2 17 1;
#X connect 14 0 15 0;
#X connect 15 0 13 0;
#X connect 16 0 9 0;
#X connect 17 0 6 1;
#X connect 18 0 1 0;
#X connect 19 0 20 1;
#X connect 19 1 17 0;
#X connect 19 2 2 0;
#X connect 19 3 1 0;
#X connect 19 4 21 0;
#X connect 20 0 16 0;
#X connect 21 0 20 0;
#X restore 27 134 pd detect_end;
#X obj 91 57 t f f f f b;
#X connect 0 0 9 0;
#X connect 3 0 1 0;
#X connect 4 0 2 0;
#X connect 6 0 5 0;
#X connect 7 0 2 0;
#X connect 8 0 1 0;
#X connect 9 0 8 0;
#X connect 9 1 3 0;
#X connect 9 2 7 0;
#X connect 9 3 4 0;
#X connect 9 4 6 0;
#X restore 108 335 pd set_length;
#X obj 431 86 inlet;
#X obj 487 88 inlet;
#X obj 598 90 inlet;
#X obj 687 93 inlet;
#X obj 788 93 inlet;
#X obj 87 284 soundfiler;
#X msg 87 259 read \$1 \$2;
#X obj 87 164 symbol;
#X obj 87 186 t s b;
#X obj 114 211 symbol \$0-sample;
#X obj 87 236 pack s s;
#X obj 484 374 pack 0 0 0;
#X obj 484 435 route 1 2 3 4;
#X obj 487 110 s \$0-attack;
#X obj 598 112 s \$0-decay;
#X obj 687 115 s \$0-sustain;
#X obj 788 115 s \$0-release;
#N canvas 494 85 645 680 voice 0;
#X obj 50 628 outlet~;
#X obj 138 4 inlet;
#X obj 49 602 *~ 0;
#X obj 50 568 *~;
#X obj 267 413 / 127;
#X obj 228 312 sel 0;
#X obj 138 356 mtof;
#X obj 76 321 loadbang;
#X msg 76 351 60;
#X obj 76 378 mtof;
#X obj 138 426 /;
#X obj 246 541 ../glue/adsr 30 600 0.7 800;
#X msg 228 344 0;
#X msg 174 355 1;
#X obj 331 412 / 127;
#X obj 387 453 * 10;
#X obj 215 503 * 5;
#X obj 302 479 * 5;
#X obj 138 246 unpack f f;
#X obj 215 478 r \$0-attack;
#X obj 302 446 r \$0-decay;
#X obj 331 390 r \$0-sustain;
#X obj 387 429 r \$0-release;
#X obj 138 319 t f b;
#X obj 174 377 t f f;
#X obj 228 366 t f f;
#X obj 175 416 spigot 1;
#X obj 50 7 inlet;
#X obj 530 18 inlet;
#X obj 50 112 phasor~ 0;
#X obj 51 151 *~ 1;
#X obj 50 186 +~ 0;
#X msg 410 214 0;
#X obj 50 29 unpack f f;
#X obj 267 340 t f b;
#X obj 50 537 _table_reader_pitch \$0-sample;
#X connect 1 0 18 0;
#X connect 2 0 0 0;
#X connect 3 0 2 0;
#X connect 4 0 2 1;
#X connect 5 0 12 0;
#X connect 5 1 34 0;
#X connect 6 0 10 0;
#X connect 7 0 8 0;
#X connect 8 0 9 0;
#X connect 9 0 10 1;
#X connect 10 0 35 1;
#X connect 11 0 3 1;
#X connect 12 0 25 0;
#X connect 13 0 24 0;
#X connect 14 0 11 3;
#X connect 15 0 11 4;
#X connect 16 0 11 1;
#X connect 17 0 11 2;
#X connect 18 0 23 0;
#X connect 18 1 5 0;
#X connect 19 0 16 0;
#X connect 20 0 17 0;
#X connect 21 0 14 0;
#X connect 22 0 15 0;
#X connect 23 0 6 0;
#X connect 23 1 13 0;
#X connect 24 0 26 1;
#X connect 24 1 26 0;
#X connect 25 0 26 1;
#X connect 25 1 11 0;
#X connect 26 0 11 0;
#X connect 27 0 33 0;
#X connect 28 0 31 1;
#X connect 29 0 30 0;
#X connect 30 0 31 0;
#X connect 31 0 35 0;
#X connect 32 0 29 1;
#X connect 33 0 29 0;
#X connect 33 1 30 1;
#X connect 34 0 4 0;
#X connect 34 1 32 0;
#X connect 35 0 3 0;
#X restore 283 570 pd voice;
#X msg 520 308 stop;
#X obj 484 351 poly 4 1;
#X obj 431 152 route -1;
#N canvas 494 78 645 680 voice 0;
#X obj 50 628 outlet~;
#X obj 138 4 inlet;
#X obj 49 602 *~ 0;
#X obj 50 568 *~;
#X obj 267 413 / 127;
#X obj 228 312 sel 0;
#X obj 138 356 mtof;
#X obj 76 321 loadbang;
#X msg 76 351 60;
#X obj 76 378 mtof;
#X obj 138 426 /;
#X msg 228 344 0;
#X msg 174 355 1;
#X obj 331 412 / 127;
#X obj 387 453 * 10;
#X obj 215 503 * 5;
#X obj 302 479 * 5;
#X obj 138 246 unpack f f;
#X obj 215 478 r \$0-attack;
#X obj 302 446 r \$0-decay;
#X obj 331 390 r \$0-sustain;
#X obj 387 429 r \$0-release;
#X obj 138 319 t f b;
#X obj 174 377 t f f;
#X obj 228 366 t f f;
#X obj 175 416 spigot 1;
#X obj 50 7 inlet;
#X obj 530 18 inlet;
#X obj 50 112 phasor~ 0;
#X obj 51 151 *~ 1;
#X obj 50 186 +~ 0;
#X text 62 205 offset;
#X msg 410 214 0;
#X obj 50 29 unpack f f;
#X obj 267 340 t f b;
#X obj 50 537 _table_reader_pitch \$0-sample;
#X obj 257 539 ../glue/adsr 30 600 0.7 800;
#X connect 1 0 17 0;
#X connect 2 0 0 0;
#X connect 3 0 2 0;
#X connect 4 0 2 1;
#X connect 5 0 11 0;
#X connect 5 1 34 0;
#X connect 6 0 10 0;
#X connect 7 0 8 0;
#X connect 8 0 9 0;
#X connect 9 0 10 1;
#X connect 10 0 35 1;
#X connect 11 0 24 0;
#X connect 12 0 23 0;
#X connect 13 0 36 3;
#X connect 14 0 36 4;
#X connect 15 0 36 1;
#X connect 16 0 36 2;
#X connect 17 0 22 0;
#X connect 17 1 5 0;
#X connect 18 0 15 0;
#X connect 19 0 16 0;
#X connect 20 0 13 0;
#X connect 21 0 14 0;
#X connect 22 0 6 0;
#X connect 22 1 12 0;
#X connect 23 0 25 1;
#X connect 23 1 25 0;
#X connect 24 0 25 1;
#X connect 24 1 36 0;
#X connect 25 0 36 0;
#X connect 26 0 33 0;
#X connect 27 0 30 1;
#X connect 28 0 29 0;
#X connect 29 0 30 0;
#X connect 30 0 35 0;
#X connect 32 0 28 1;
#X connect 33 0 28 0;
#X connect 33 1 29 1;
#X connect 34 0 4 0;
#X connect 34 1 32 0;
#X connect 35 0 3 0;
#X connect 36 0 3 1;
#X restore 353 570 pd voice;
#N canvas 494 78 645 680 voice 0;
#X obj 50 628 outlet~;
#X obj 138 4 inlet;
#X obj 49 602 *~ 0;
#X obj 50 568 *~;
#X obj 267 413 / 127;
#X obj 228 312 sel 0;
#X obj 138 356 mtof;
#X obj 76 321 loadbang;
#X msg 76 351 60;
#X obj 76 378 mtof;
#X obj 138 426 /;
#X obj 239 538 ../glue/adsr 30 600 0.7 800;
#X msg 228 344 0;
#X msg 174 355 1;
#X obj 331 412 / 127;
#X obj 387 453 * 10;
#X obj 215 503 * 5;
#X obj 302 479 * 5;
#X obj 138 246 unpack f f;
#X obj 215 478 r \$0-attack;
#X obj 302 446 r \$0-decay;
#X obj 331 390 r \$0-sustain;
#X obj 387 429 r \$0-release;
#X obj 138 319 t f b;
#X obj 174 377 t f f;
#X obj 228 366 t f f;
#X obj 175 416 spigot 1;
#X obj 50 7 inlet;
#X obj 530 18 inlet;
#X obj 50 112 phasor~ 0;
#X obj 51 151 *~ 1;
#X obj 50 186 +~ 0;
#X text 62 205 offset;
#X msg 410 214 0;
#X obj 50 29 unpack f f;
#X obj 267 340 t f b;
#X obj 50 537 _table_reader_pitch \$0-sample;
#X connect 1 0 18 0;
#X connect 2 0 0 0;
#X connect 3 0 2 0;
#X connect 4 0 2 1;
#X connect 5 0 12 0;
#X connect 5 1 35 0;
#X connect 6 0 10 0;
#X connect 7 0 8 0;
#X connect 8 0 9 0;
#X connect 9 0 10 1;
#X connect 10 0 36 1;
#X connect 11 0 3 1;
#X connect 12 0 25 0;
#X connect 13 0 24 0;
#X connect 14 0 11 3;
#X connect 15 0 11 4;
#X connect 16 0 11 1;
#X connect 17 0 11 2;
#X connect 18 0 23 0;
#X connect 18 1 5 0;
#X connect 19 0 16 0;
#X connect 20 0 17 0;
#X connect 21 0 14 0;
#X connect 22 0 15 0;
#X connect 23 0 6 0;
#X connect 23 1 13 0;
#X connect 24 0 26 1;
#X connect 24 1 26 0;
#X connect 25 0 26 1;
#X connect 25 1 11 0;
#X connect 26 0 11 0;
#X connect 27 0 34 0;
#X connect 28 0 31 1;
#X connect 29 0 30 0;
#X connect 30 0 31 0;
#X connect 31 0 36 0;
#X connect 33 0 29 1;
#X connect 34 0 29 0;
#X connect 34 1 30 1;
#X connect 35 0 4 0;
#X connect 35 1 33 0;
#X connect 36 0 3 0;
#X restore 423 570 pd voice;
#N canvas 494 78 645 680 voice 0;
#X obj 50 628 outlet~;
#X obj 138 4 inlet;
#X obj 49 602 *~ 0;
#X obj 50 568 *~;
#X obj 267 413 / 127;
#X obj 228 312 sel 0;
#X obj 138 356 mtof;
#X obj 76 321 loadbang;
#X msg 76 351 60;
#X obj 76 378 mtof;
#X obj 138 426 /;
#X obj 245 538 ../glue/adsr 30 600 0.7 800;
#X msg 228 344 0;
#X msg 174 355 1;
#X obj 331 412 / 127;
#X obj 387 453 * 10;
#X obj 215 503 * 5;
#X obj 302 479 * 5;
#X obj 138 246 unpack f f;
#X obj 215 478 r \$0-attack;
#X obj 302 446 r \$0-decay;
#X obj 331 390 r \$0-sustain;
#X obj 387 429 r \$0-release;
#X obj 138 319 t f b;
#X obj 174 377 t f f;
#X obj 228 366 t f f;
#X obj 175 416 spigot 1;
#X obj 50 7 inlet;
#X obj 530 18 inlet;
#X obj 50 112 phasor~ 0;
#X obj 51 151 *~ 1;
#X obj 50 186 +~ 0;
#X text 62 205 offset;
#X msg 410 214 0;
#X obj 50 29 unpack f f;
#X obj 267 340 t f b;
#X obj 50 537 _table_reader_pitch \$0-sample;
#X connect 1 0 18 0;
#X connect 2 0 0 0;
#X connect 3 0 2 0;
#X connect 4 0 2 1;
#X connect 5 0 12 0;
#X connect 5 1 35 0;
#X connect 6 0 10 0;
#X connect 7 0 8 0;
#X connect 8 0 9 0;
#X connect 9 0 10 1;
#X connect 10 0 36 1;
#X connect 11 0 3 1;
#X connect 12 0 25 0;
#X connect 13 0 24 0;
#X connect 14 0 11 3;
#X connect 15 0 11 4;
#X connect 16 0 11 1;
#X connect 17 0 11 2;
#X connect 18 0 23 0;
#X connect 18 1 5 0;
#X connect 19 0 16 0;
#X connect 20 0 17 0;
#X connect 21 0 14 0;
#X connect 22 0 15 0;
#X connect 23 0 6 0;
#X connect 23 1 13 0;
#X connect 24 0 26 1;
#X connect 24 1 26 0;
#X connect 25 0 26 1;
#X connect 25 1 11 0;
#X connect 26 0 11 0;
#X connect 27 0 34 0;
#X connect 28 0 31 1;
#X connect 29 0 30 0;
#X connect 30 0 31 0;
#X connect 31 0 36 0;
#X connect 33 0 29 1;
#X connect 34 0 29 0;
#X connect 34 1 30 1;
#X connect 35 0 4 0;
#X connect 35 1 33 0;
#X connect 36 0 3 0;
#X restore 493 570 pd voice;
#X obj 87 140 _make_path;
#N canvas 0 0 450 300 set-start-pos 0;
#X obj 73 36 inlet;
#X obj 144 50 r \$0-start;
#X obj 144 97 unpack f f;
#X obj 73 82 t f b;
#X obj 73 59 clip 0 1;
#X obj 73 162 *;
#X obj 100 136 f;
#X obj 73 208 s \$0-start;
#X obj 144 74 route range;
#X connect 0 0 4 0;
#X connect 1 0 8 0;
#X connect 2 1 6 1;
#X connect 3 0 5 0;
#X connect 3 1 6 0;
#X connect 4 0 3 0;
#X connect 5 0 7 0;
#X connect 6 0 5 1;
#X connect 8 0 2 0;
#X restore 638 610 pd set-start-pos;
#N canvas 0 0 450 300 set-stop-pos 0;
#X obj 73 36 inlet;
#X obj 144 97 unpack f f;
#X obj 73 82 t f b;
#X obj 73 59 clip 0 1;
#X obj 73 162 *;
#X obj 100 136 f;
#X obj 144 50 r \$0-stop;
#X obj 73 208 s \$0-stop;
#X obj 144 74 route range;
#X connect 0 0 3 0;
#X connect 1 1 5 1;
#X connect 2 0 4 0;
#X connect 2 1 5 0;
#X connect 3 0 2 0;
#X connect 4 0 7 0;
#X connect 5 0 4 1;
#X connect 6 0 8 0;
#X connect 8 0 1 0;
#X restore 748 614 pd set-stop-pos;
#X obj 15 7 loadbang;
#X obj 15 80 symbol \$1;
#X obj 15 107 sel symbol;
#X obj 15 30 t b b;
#X msg 81 50 symbol;
#X obj 108 111 route rec open start stop speed;
#X obj 254 135 clip 0.1 10;
#X obj 254 158 s \$0-speed;
#X connect 0 0 12 1;
#X connect 2 0 47 0;
#X connect 6 0 13 2;
#X connect 6 1 13 3;
#X connect 8 0 9 0;
#X connect 9 0 13 0;
#X connect 9 1 13 1;
#X connect 9 2 32 2;
#X connect 9 2 36 2;
#X connect 9 2 37 2;
#X connect 9 2 38 2;
#X connect 10 0 13 0;
#X connect 11 0 6 0;
#X connect 12 0 14 0;
#X connect 13 0 32 0;
#X connect 13 0 36 0;
#X connect 13 0 37 0;
#X connect 13 0 38 0;
#X connect 15 0 35 0;
#X connect 16 0 28 0;
#X connect 17 0 29 0;
#X connect 18 0 30 0;
#X connect 19 0 31 0;
#X connect 20 0 14 0;
#X connect 21 0 20 0;
#X connect 22 0 23 0;
#X connect 23 0 25 0;
#X connect 23 1 24 0;
#X connect 24 0 25 1;
#X connect 25 0 21 0;
#X connect 26 0 27 0;
#X connect 27 0 32 1;
#X connect 27 1 36 1;
#X connect 27 2 37 1;
#X connect 27 3 38 1;
#X connect 32 0 1 0;
#X connect 33 0 34 0;
#X connect 34 0 26 0;
#X connect 34 1 26 1;
#X connect 34 2 26 2;
#X connect 35 0 33 0;
#X connect 35 1 34 0;
#X connect 36 0 1 0;
#X connect 37 0 1 0;
#X connect 38 0 1 0;
#X connect 39 0 22 0;
#X connect 42 0 45 0;
#X connect 43 0 44 0;
#X connect 44 1 39 0;
#X connect 45 0 43 0;
#X connect 45 1 46 0;
#X connect 46 0 44 1;
#X connect 47 0 12 0;
#X connect 47 1 39 0;
#X connect 47 2 40 0;
#X connect 47 3 41 0;
#X connect 47 4 48 0;
#X connect 48 0 49 0;
#X coords 0 -1 1 1 191 125 1 660 155;
