#N canvas 460 136 903 629 10;
#X obj 158 0 inlet~;
#X obj 257 586 outlet~;
#X obj 88 0 inlet;
#X obj 350 364 phasor~ 0;
#X obj 651 150 hsl 128 30 0 90184.5 0 0 \$0-start-s \$0-start start
136 15 0 10 -262144 -258113 -1 0 1;
#X obj 651 183 hsl 128 30 0 90184.5 0 0 \$0-stop-s \$0-stop stop 136
15 0 10 -262144 -258113 -1 0 1;
#X obj 351 403 *~ 1;
#X obj 30 519 table \$0-sample 4.41e+06;
#X obj 259 438 +~ 0;
#X text 298 439 offset;
#X obj 326 272 t b f;
#X msg 401 166 0;
#X obj 651 216 hsl 128 30 0.1 10 1 0 \$0-speed-s \$0-speed speed 136
15 0 10 -262144 -258113 -1 0 1;
#X obj 206 163 r \$0-start-s;
#X obj 206 188 t b f f;
#X obj 119 281 r \$0-stop-s;
#X obj 326 237 r \$0-speed-s;
#N canvas 44 51 717 606 recording 0;
#X msg 164 110 stop;
#X obj 97 80 sel start stop;
#X obj 97 59 list \$1;
#X obj 222 172 tabwrite~ \$0-sample;
#X obj 168 265 f;
#X msg 410 158 \; \$1-sample const 0;
#X obj 410 134 \$0;
#X obj 97 113 t b b b b;
#X obj 97 30 inlet;
#X obj 221 30 inlet~;
#X obj 201 242 samplerate~;
#N canvas 368 458 450 300 counter 0;
#X obj 63 22 inlet;
#X obj 115 24 inlet;
#X obj 63 140 outlet;
#X msg 115 69 0;
#X obj 63 67 metro 1;
#X obj 100 110 + 1;
#X obj 63 109 f;
#X connect 0 0 4 0;
#X connect 1 0 3 0;
#X connect 3 0 6 0;
#X connect 4 0 6 0;
#X connect 5 0 6 1;
#X connect 6 0 5 0;
#X connect 6 0 2 0;
#X restore 97 197 pd counter;
#X obj 168 323 outlet;
#X obj 201 271 / 1000;
#X obj 168 293 * 4.41;
#X obj 164 170 t a b b;
#X connect 0 0 3 0;
#X connect 0 0 15 0;
#X connect 1 0 7 0;
#X connect 1 1 0 0;
#X connect 2 0 1 0;
#X connect 4 0 14 0;
#X connect 6 0 5 0;
#X connect 7 0 11 0;
#X connect 7 1 11 1;
#X connect 7 2 3 0;
#X connect 7 3 6 0;
#X connect 8 0 2 0;
#X connect 9 0 3 0;
#X connect 10 0 13 0;
#X connect 11 0 4 1;
#X connect 13 0 14 1;
#X connect 14 0 12 0;
#X connect 15 0 11 0;
#X connect 15 1 4 0;
#X connect 15 2 10 0;
#X restore 88 221 pd recording;
#N canvas 83 107 448 424 phasor-freq-calc 0;
#X obj 42 37 inlet;
#X obj 86 36 inlet;
#X obj 137 35 inlet;
#X obj 42 336 outlet;
#X obj 107 334 outlet;
#X obj 187 35 inlet;
#X obj 234 36 inlet;
#X obj 42 161 t b f;
#X obj 42 214 /;
#X obj 42 244 f;
#X obj 42 104 -;
#X obj 42 75 f;
#X obj 42 132 t f f;
#X obj 42 270 spigot;
#X obj 42 298 * 1;
#X obj 42 187 samplerate~;
#X connect 0 0 11 0;
#X connect 1 0 10 1;
#X connect 2 0 9 0;
#X connect 5 0 13 1;
#X connect 6 0 14 1;
#X connect 7 0 15 0;
#X connect 7 1 8 1;
#X connect 8 0 9 0;
#X connect 9 0 13 0;
#X connect 10 0 12 0;
#X connect 11 0 10 0;
#X connect 12 0 7 0;
#X connect 12 1 4 0;
#X connect 13 0 14 0;
#X connect 14 0 3 0;
#X connect 15 0 8 0;
#X restore 206 330 pd phasor-freq-calc;
#X msg 288 161 1;
#X obj 30 559 table \$0-hanning 256;
#N canvas 44 51 443 256 write-hanning 0;
#X msg 142 80 0;
#X obj 36 129 osc~;
#X obj 36 81 samplerate~;
#X obj 36 152 *~ -0.5;
#X obj 36 175 +~ 0.5;
#X obj 28 58 bng 15 250 50 0 empty empty empty 0 -6 0 8 -262144 -1
-1;
#X obj 28 26 loadbang;
#X obj 36 105 / 256;
#X obj 28 200 tabwrite~ \$0-hanning;
#X connect 0 0 1 1;
#X connect 1 0 3 0;
#X connect 2 0 7 0;
#X connect 3 0 4 0;
#X connect 4 0 8 0;
#X connect 5 0 2 0;
#X connect 5 0 0 0;
#X connect 5 0 8 0;
#X connect 6 0 5 0;
#X connect 7 0 1 0;
#X restore 29 586 pd write-hanning;
#N canvas 44 51 526 599 read-table 0;
#X obj 89 83 / 256;
#X obj 89 56 * 44100;
#X obj 15 30 inlet~;
#X obj 89 28 inlet;
#X obj 233 429 outlet~;
#X obj 18 258 tabread4~ \$0-sample;
#X obj 89 117 phasor~;
#X obj 16 196 samphold~;
#X obj 98 198 *~ 256;
#X obj 17 232 +~;
#X obj 43 288 *~;
#X obj 149 260 tabread4~ \$0-hanning;
#X obj 374 152 +~ 0.5;
#X obj 374 181 wrap~;
#X obj 304 273 tabread4~ \$0-sample;
#X obj 302 211 samphold~;
#X obj 384 213 *~ 256;
#X obj 303 247 +~;
#X obj 329 303 *~;
#X obj 435 275 tabread4~ \$0-hanning;
#X obj 234 395 +~;
#X obj 128 -4 loadbang;
#X obj 128 22 samplerate~;
#X connect 0 0 6 0;
#X connect 1 0 0 0;
#X connect 2 0 7 0;
#X connect 2 0 15 0;
#X connect 3 0 1 0;
#X connect 5 0 10 0;
#X connect 6 0 7 1;
#X connect 6 0 8 0;
#X connect 6 0 12 0;
#X connect 7 0 9 0;
#X connect 8 0 9 1;
#X connect 8 0 11 0;
#X connect 9 0 5 0;
#X connect 10 0 20 0;
#X connect 11 0 10 1;
#X connect 12 0 13 0;
#X connect 13 0 16 0;
#X connect 13 0 15 1;
#X connect 14 0 18 0;
#X connect 15 0 17 0;
#X connect 16 0 17 1;
#X connect 16 0 19 0;
#X connect 17 0 14 0;
#X connect 18 0 20 1;
#X connect 19 0 18 1;
#X connect 20 0 4 0;
#X connect 21 0 22 0;
#X connect 22 0 1 1;
#X restore 258 500 pd read-table;
#N canvas 360 325 450 300 set_length 0;
#X obj 91 24 inlet;
#X obj 106 142 s \$0-stop;
#X obj 179 150 s \$0-start;
#X msg 179 111 0;
#X msg 106 90 range 0 \$1;
#X msg 194 88 range 0 \$1;
#X obj 151 226 s \$0-speed;
#X msg 151 193 1;
#X obj 285 117 s \$0-pitch;
#X msg 285 88 1;
#X obj 91 57 t f f b f b b;
#X connect 0 0 10 0;
#X connect 3 0 2 0;
#X connect 4 0 1 0;
#X connect 5 0 2 0;
#X connect 7 0 6 0;
#X connect 9 0 8 0;
#X connect 10 0 1 0;
#X connect 10 1 4 0;
#X connect 10 2 3 0;
#X connect 10 3 5 0;
#X connect 10 4 7 0;
#X connect 10 5 9 0;
#X restore 88 251 pd set_length;
#X obj 257 565 *~ 0;
#X obj 258 531 *~;
#X obj 411 6 inlet;
#X obj 528 8 inlet;
#X obj 741 408 / 127;
#X obj 546 165 sel 0;
#X obj 411 116 t b b f b;
#X msg 546 360 stop;
#X obj 445 295 mtof;
#X obj 479 261 loadbang;
#X msg 479 296 60;
#X obj 460 334 mtof;
#X obj 445 365 /;
#X obj 88 31 route rec;
#X obj 597 8 inlet;
#X obj 638 10 inlet;
#X obj 686 12 inlet;
#X obj 734 15 inlet;
#X obj 796 16 inlet;
#X obj 716 62 / 127;
#X obj 788 65 * 10;
#X obj 591 58 * 5;
#X obj 639 64 * 5;
#X obj 527 483 metro 1;
#X obj 460 530 snapshot~;
#X obj 404 452 *;
#X obj 460 571 *;
#X obj 456 598 + 1;
#X obj 407 405 bng 15 250 50 0 empty empty empty 17 7 0 10 -262144
-1 -1;
#X obj 653 480 osc~ 0.3;
#X obj 636 548 / 254;
#X obj 869 18 inlet;
#X obj 862 77 / 12.7;
#X obj 521 406 bsaylor/aenv~ 30 600 0.7 800;
#X connect 0 0 17 1;
#X connect 2 0 37 0;
#X connect 3 0 6 0;
#X connect 6 0 8 0;
#X connect 8 0 22 0;
#X connect 10 0 18 2;
#X connect 10 1 18 4;
#X connect 11 0 3 1;
#X connect 13 0 14 0;
#X connect 14 0 18 0;
#X connect 14 1 18 1;
#X connect 14 2 8 1;
#X connect 15 0 18 0;
#X connect 16 0 10 0;
#X connect 17 0 23 0;
#X connect 18 0 3 0;
#X connect 18 1 6 1;
#X connect 19 0 18 3;
#X connect 22 0 25 0;
#X connect 24 0 1 0;
#X connect 25 0 24 0;
#X connect 26 0 30 0;
#X connect 27 0 29 0;
#X connect 28 0 24 1;
#X connect 29 0 31 0;
#X connect 29 1 28 0;
#X connect 30 0 19 0;
#X connect 30 1 11 0;
#X connect 30 2 32 0;
#X connect 30 3 57 0;
#X connect 31 0 57 0;
#X connect 32 0 36 0;
#X connect 33 0 34 0;
#X connect 33 0 47 0;
#X connect 34 0 35 0;
#X connect 35 0 36 1;
#X connect 36 0 49 1;
#X connect 37 0 17 0;
#X connect 38 0 45 0;
#X connect 39 0 46 0;
#X connect 40 0 43 0;
#X connect 41 0 44 0;
#X connect 42 0 54 0;
#X connect 43 0 57 3;
#X connect 44 0 57 4;
#X connect 45 0 57 1;
#X connect 46 0 57 2;
#X connect 47 0 48 0;
#X connect 48 0 50 0;
#X connect 49 0 22 1;
#X connect 50 0 51 0;
#X connect 51 0 49 0;
#X connect 52 0 47 0;
#X connect 53 0 48 0;
#X connect 54 0 50 1;
#X connect 55 0 56 0;
#X connect 56 0 53 0;
#X connect 57 0 25 1;
#X coords 0 -1 1 1 200 125 1 640 125;
