#N canvas 400 61 892 707 10;
#X obj 16 34 route rec play;
#X obj 16 3 inlet;
#X obj 16 55 list \$1;
#X obj 367 49 list \$1;
#X obj 670 155 hsl 128 30 0 1130 0 0 \$0-start-s \$0-start start 136 15 0 10 #fcfcfc #fc0400 #000000 0 1;
#X obj 670 221 hsl 128 30 0.01 10 1 1 \$0-speed-s \$0-speed speed 136 15 0 10 #fcfcfc #fc0400 #000000 8467 1;
#X obj 837 513 outlet;
#X obj 714 6 inlet;
#X obj 801 108 bng 30 250 50 0 \$0-reset-s \$0-reset empty 17 7 0 10 #fcfcfc #000000 #000000;
#X obj 189 5 inlet;
#X obj 667 119 tgl 32 0 \$0-record-s \$0-record empty 17 7 0 10 #fcfcfc #000000 #000000 0 1;
#X obj 714 49 s \$0-reset;
#X obj 483 195 r \$0-reset-s;
#X obj 670 188 hsl 128 30 0 1130 0 0 \$0-stop-s \$0-stop stop 136 15 0 10 #fcfcfc #fc0400 #000000 0 1;
#X obj 189 122 spigot;
#X obj 222 88 r \$0-record-s;
#X obj 342 678 outlet;
#X obj 16 465 table \$0-note 100000;
#X obj 452 198 /;
#X obj 452 113 r \$0-speed-s;
#X obj 452 142 t b f;
#X msg 407 113 stop;
#X obj 407 257 f;
#X msg 483 232 0;
#X obj 444 257 + 1;
#X obj 407 405 tabread \$0-note;
#X obj 407 306 +;
#X obj 407 342 moses 100000;
#X obj 476 314 r \$0-stop-s;
#X obj 422 281 r \$0-start-s;
#X obj 671 414 s \$0-reset;
#X obj 671 385 bng 15 250 50 0 empty empty empty 17 7 0 10 #fcfcfc #000000 #000000;
#X obj 17 492 table \$0-velocity 100000;
#X obj 630 4 inlet;
#X obj 249 156 spigot;
#X obj 526 404 tabread \$0-velocity;
#N canvas 46 63 771 659 record 0;
#X obj 12 18 inlet;
#X obj 169 23 inlet;
#X obj 312 21 inlet;
#X obj 419 24 inlet;
#X obj 538 30 inlet;
#X obj 108 112 \$0;
#X obj 144 117 s \$0-record;
#X msg 144 83 1;
#X msg 108 146 \; \$1-note const 0;
#X obj 312 349 tabwrite \$0-note;
#X obj 12 179 f;
#X msg 72 110 0;
#X obj 41 180 + 1;
#X msg 169 52 stop;
#X obj 107 435 s \$0-stop;
#X obj 12 443 s \$0-start;
#X msg 12 404 0;
#X msg 107 383 range 0 \$1;
#X msg 27 381 range 0 \$1;
#X obj 12 350 t b f f f b;
#X obj 75 519 s \$0-speed;
#X msg 75 486 1;
#X obj 12 51 t b b b b;
#X obj 419 352 tabwrite \$0-velocity;
#X msg 85 185 \; \$1-velocity const 0;
#X obj 153 345 s \$0-pos-s;
#X msg 153 318 range 0 \$1;
#X obj 12 110 metro 1;
#X connect 0 0 22 0;
#X connect 1 0 13 0;
#X connect 2 0 9 0;
#X connect 3 0 23 0;
#X connect 4 0 9 1;
#X connect 4 0 23 1;
#X connect 5 0 8 0;
#X connect 5 0 24 0;
#X connect 7 0 6 0;
#X connect 10 0 12 0;
#X connect 10 0 9 1;
#X connect 10 0 19 0;
#X connect 10 0 23 1;
#X connect 10 0 26 0;
#X connect 11 0 10 1;
#X connect 12 0 10 1;
#X connect 13 0 27 0;
#X connect 16 0 15 0;
#X connect 17 0 14 0;
#X connect 18 0 15 0;
#X connect 19 0 16 0;
#X connect 19 1 18 0;
#X connect 19 2 14 0;
#X connect 19 3 17 0;
#X connect 19 4 21 0;
#X connect 21 0 20 0;
#X connect 22 0 27 0;
#X connect 22 1 11 0;
#X connect 22 2 5 0;
#X connect 22 3 7 0;
#X connect 26 0 25 0;
#X connect 27 0 10 0;
#X restore 17 428 pd record;
#X obj 630 49 s \$0-record;
#X obj 670 257 hsl 128 15 0 1130 0 0 empty \$0-pos-s position 136 7 0 10 #dcdcdc #000000 #000000 0 1;
#X obj 528 278 s \$0-pos-s;
#X obj 367 99 t b b;
#X obj 630 26 ../glue/bangonce 400;
#X obj 379 613 ../glue/note-vel-filter;
#X obj 407 435 sel 0;
#X obj 508 484 f;
#X obj 407 367 t f f;
#X obj 434 464 t f b;
#X obj 379 521 pack f f;
#X obj 379 565 pack f f f;
#X obj 379 587 route 1 2 3 4;
#X obj 399 633 ../glue/note-vel-filter;
#X obj 429 653 ../glue/note-vel-filter;
#X obj 449 673 ../glue/note-vel-filter;
#X msg 213 574 -1 -1;
#X obj 379 543 poly 4 1;
#X obj 407 229 metro 1;
#X obj 452 167 1;
#X obj 189 28 unpack f f;
#X obj 16 76 sel start 1 stop 0;
#X obj 367 73 sel start 1 stop 0;
#X connect 0 0 2 0;
#X connect 0 1 3 0;
#X connect 1 0 0 0;
#X connect 2 0 58 0;
#X connect 3 0 59 0;
#X connect 7 0 11 0;
#X connect 9 0 57 0;
#X connect 12 0 6 0;
#X connect 12 0 23 0;
#X connect 14 0 36 2;
#X connect 14 0 47 0;
#X connect 15 0 14 1;
#X connect 15 0 34 1;
#X connect 18 0 55 1;
#X connect 19 0 20 0;
#X connect 20 0 56 0;
#X connect 20 1 18 1;
#X connect 21 0 55 0;
#X connect 22 0 24 0;
#X connect 22 0 26 0;
#X connect 22 0 39 0;
#X connect 23 0 22 1;
#X connect 24 0 22 1;
#X connect 25 0 43 0;
#X connect 26 0 27 0;
#X connect 27 0 36 4;
#X connect 27 0 45 0;
#X connect 27 1 31 0;
#X connect 28 0 27 1;
#X connect 29 0 26 1;
#X connect 31 0 30 0;
#X connect 33 0 41 0;
#X connect 34 0 36 3;
#X connect 34 0 47 1;
#X connect 35 0 44 1;
#X connect 40 0 55 0;
#X connect 40 1 23 0;
#X connect 41 0 37 0;
#X connect 42 0 16 0;
#X connect 43 1 46 0;
#X connect 44 0 47 1;
#X connect 45 0 25 0;
#X connect 45 1 35 0;
#X connect 46 0 47 0;
#X connect 46 1 44 0;
#X connect 47 0 54 0;
#X connect 48 0 49 0;
#X connect 49 0 42 0;
#X connect 49 1 50 0;
#X connect 49 2 51 0;
#X connect 49 3 52 0;
#X connect 50 0 16 0;
#X connect 51 0 16 0;
#X connect 52 0 16 0;
#X connect 53 0 16 0;
#X connect 54 0 48 0;
#X connect 54 1 48 1;
#X connect 54 2 48 2;
#X connect 55 0 22 0;
#X connect 56 0 18 0;
#X connect 57 0 14 0;
#X connect 57 1 34 0;
#X connect 58 0 36 0;
#X connect 58 1 36 0;
#X connect 58 2 36 1;
#X connect 58 3 36 1;
#X connect 59 0 40 0;
#X connect 59 1 40 0;
#X connect 59 2 53 0;
#X connect 59 2 21 0;
#X connect 59 3 53 0;
#X connect 59 3 21 0;
#X coords 0 -1 1 1 191 175 1 663 100;
