#N canvas 543 212 428 532 10;
#X obj 31 93 inlet;
#X obj 343 95 inlet;
#X obj 224 459 outlet;
#X obj 165 94 inlet;
#X obj 31 458 outlet;
#X obj 31 174 note-vel-looper;
#X obj 296 95 inlet;
#X obj 127 459 outlet;
#X obj 222 95 inlet;
#X obj 99 93 inlet;
#X obj 31 128 ../glue/rec_play_switch;
#X connect 0 0 10 0;
#X connect 1 0 5 4;
#X connect 3 0 5 1;
#X connect 5 0 4 0;
#X connect 5 1 7 0;
#X connect 5 2 2 0;
#X connect 6 0 5 3;
#X connect 8 0 5 2;
#X connect 9 0 10 1;
#X connect 10 0 5 0;
#X coords 0 -1 1 1 205 272 2 28 125;
