#N canvas 615 119 903 811 10;
#X obj 190 10 inlet~;
#X obj 293 739 outlet~;
#X obj 120 10 inlet;
#X obj 384 434 phasor~ 0;
#X obj 646 150 hsl 128 30 0 69632 0 0 \$0-start-s \$0-start start 136 15 0 10 #fcfcfc #fc0400 #000000 0 1;
#X obj 646 183 hsl 128 30 0 69632 0 0 \$0-stop-s \$0-stop stop 136 15 0 10 #fcfcfc #fc0400 #000000 0 1;
#X obj 385 473 *~ 1;
#X obj 640 74 table \$0-sample 4.41e+06;
#X obj 293 508 +~ 0;
#X text 332 509 offset;
#X obj 324 351 t b f;
#X msg 433 250 0, f 5;
#X obj 527 472 fexpr~ $x[0] < $x[-1];
#X obj 527 540 threshold~ 0.5 1 0.1 1;
#X obj 646 216 hsl 128 30 0.1 10 1 0 \$0-speed-s \$0-speed speed 136 15 0 10 #fcfcfc #fc0400 #000000 0 1;
#X obj 646 249 hsl 128 30 0.1 10 1 0 \$0-pitch-s \$0-pitch pitch 136 15 0 10 #fcfcfc #fc0400 #000000 0 1;
#X obj 240 233 r \$0-start-s;
#X obj 153 351 r \$0-stop-s;
#X obj 490 304 r \$0-speed-s;
#N canvas 199 94 717 606 recording 0;
#X obj 97 30 inlet;
#X obj 311 30 inlet~;
#X obj 97 373 outlet;
#X msg 189 247 stop;
#X obj 310 337 tabwrite~ \$0-sample;
#X msg 409 263 \; \$1-sample const 0;
#X obj 409 239 \$0;
#X obj 136 292 samplerate~;
#X obj 136 321 / 1000;
#X obj 97 343 * 44.1;
#X obj 97 247 timer;
#X obj 143 209 t b b b;
#X obj 97 160 t b b b;
#X obj 97 53 symbol;
#X obj 97 130 sel start 1 stop 0;
#X connect 0 0 13 0;
#X connect 1 0 4 0;
#X connect 3 0 4 0;
#X connect 6 0 5 0;
#X connect 7 0 8 0;
#X connect 8 0 9 1;
#X connect 9 0 2 0;
#X connect 10 0 9 0;
#X connect 11 0 10 1;
#X connect 11 1 7 0;
#X connect 11 2 3 0;
#X connect 12 0 10 0;
#X connect 12 1 4 0;
#X connect 12 2 6 0;
#X connect 13 0 14 0;
#X connect 14 0 12 0;
#X connect 14 1 12 0;
#X connect 14 2 11 0;
#X connect 14 3 11 0;
#X restore 122 291 pd recording;
#N canvas 87 116 448 424 phasor-freq-calc 0;
#X obj 42 37 inlet;
#X obj 86 36 inlet;
#X obj 137 35 inlet;
#X obj 42 346 outlet;
#X obj 107 344 outlet;
#X obj 187 35 inlet;
#X obj 234 36 inlet;
#X obj 42 161 t b f;
#X obj 42 214 /;
#X obj 42 264 f;
#X obj 42 104 -;
#X obj 42 75 f;
#X obj 42 132 t f f;
#X obj 42 290 spigot;
#X obj 42 318 * 1;
#X obj 42 187 samplerate~;
#X obj 42 236 abs;
#X connect 0 0 11 0;
#X connect 1 0 10 1;
#X connect 2 0 9 0;
#X connect 5 0 13 1;
#X connect 6 0 14 1;
#X connect 7 0 15 0;
#X connect 7 1 8 1;
#X connect 8 0 16 0;
#X connect 9 0 13 0;
#X connect 10 0 12 0;
#X connect 11 0 10 0;
#X connect 12 0 7 0;
#X connect 12 1 4 0;
#X connect 13 0 14 0;
#X connect 14 0 3 0;
#X connect 15 0 8 0;
#X connect 16 0 9 0;
#X restore 240 400 pd phasor-freq-calc;
#X msg 353 266 1;
#X obj 437 533 r \$0-pitch-s;
#X obj 293 707 *~ 0;
#X msg 362 633 1;
#X msg 404 633 0;
#X obj 68 262 soundfiler;
#N canvas 362 322 450 300 set_length 0;
#X obj 91 24 inlet;
#X obj 186 142 s \$0-stop;
#X obj 91 150 s \$0-start;
#X msg 91 111 0;
#X msg 186 90 range 0 \$1;
#X msg 106 88 range 0 \$1;
#X obj 151 226 s \$0-speed;
#X msg 151 193 1;
#X obj 285 117 s \$0-pitch;
#X msg 285 88 1;
#X obj 91 57 t b f f f b b b;
#X obj 327 240 outlet;
#X connect 0 0 10 0;
#X connect 3 0 2 0;
#X connect 4 0 1 0;
#X connect 5 0 2 0;
#X connect 7 0 6 0;
#X connect 9 0 8 0;
#X connect 10 0 3 0;
#X connect 10 1 5 0;
#X connect 10 2 1 0;
#X connect 10 3 4 0;
#X connect 10 4 7 0;
#X connect 10 5 9 0;
#X connect 10 6 11 0;
#X restore 122 321 pd set_length;
#X msg 68 237 read \$1 \$2;
#X obj 68 138 symbol;
#X obj 68 160 t s b;
#X obj 95 185 symbol \$0-sample;
#X obj 68 210 pack s s;
#X obj 566 740 outlet;
#X obj 120 41 route rec open bang;
#X floatatom 213 513 5 0 0 0 - - - 0;
#X obj 527 514 *~ 0;
#X msg 612 501 1;
#X msg 565 492 0;
#X obj 240 258 t b f f;
#X obj 481 354 del 20;
#X obj 11 12 loadbang;
#X obj 11 35 symbol \$1;
#X obj 620 12 inlet;
#X obj 620 35 s \$0-pitch;
#X obj 543 13 inlet;
#X obj 543 36 s \$0-speed;
#X obj 292 559 _table_reader_pitch \$0-sample;
#X obj 11 62 sel symbol;
#X obj 68 109 _make_path;
#X obj 273 190 t b b b b b b b;
#X msg 436 206 1;
#X obj 566 660 spigot;
#X obj 527 563 t b b b;
#X msg 546 593 0;
#X connect 0 0 19 1;
#X connect 2 0 34 0;
#X connect 3 0 6 0;
#X connect 3 0 12 0;
#X connect 6 0 8 0;
#X connect 8 0 47 0;
#X connect 10 0 20 2;
#X connect 10 1 20 4;
#X connect 11 0 3 1;
#X connect 12 0 36 0;
#X connect 13 0 53 0;
#X connect 16 0 39 0;
#X connect 17 0 20 0;
#X connect 18 0 10 0;
#X connect 19 0 27 0;
#X connect 20 0 3 0;
#X connect 20 0 35 0;
#X connect 20 1 6 1;
#X connect 21 0 20 3;
#X connect 22 0 47 1;
#X connect 23 0 1 0;
#X connect 24 0 23 1;
#X connect 25 0 23 1;
#X connect 26 0 27 0;
#X connect 28 0 26 0;
#X connect 29 0 30 0;
#X connect 30 0 32 0;
#X connect 30 1 31 0;
#X connect 31 0 32 1;
#X connect 32 0 28 0;
#X connect 34 0 19 0;
#X connect 34 1 49 0;
#X connect 34 2 50 0;
#X connect 36 0 13 0;
#X connect 37 0 36 1;
#X connect 38 0 36 1;
#X connect 39 0 20 0;
#X connect 39 1 20 1;
#X connect 39 2 8 1;
#X connect 40 0 37 0;
#X connect 41 0 42 0;
#X connect 42 0 48 0;
#X connect 43 0 44 0;
#X connect 45 0 46 0;
#X connect 47 0 23 0;
#X connect 48 1 49 0;
#X connect 49 0 29 0;
#X connect 50 0 20 0;
#X connect 50 1 21 0;
#X connect 50 2 24 0;
#X connect 50 3 11 0;
#X connect 50 4 38 0;
#X connect 50 5 40 0;
#X connect 50 6 51 0;
#X connect 51 0 52 1;
#X connect 52 0 33 0;
#X connect 53 0 25 0;
#X connect 53 1 54 0;
#X connect 53 2 52 0;
#X connect 54 0 52 1;
#X coords 0 -1 1 1 191 175 1 640 125;
