#N canvas 637 119 903 776 10;
#X obj 158 0 inlet~;
#X obj 245 669 outlet~;
#X obj 88 0 inlet;
#X obj 350 364 phasor~ 0;
#X obj 646 150 hsl 128 30 0 48643 0 0 \$0-start-s \$0-start start 136
15 0 10 -262144 -258113 -1 0 1;
#X obj 646 183 hsl 128 30 0 48643 0 0 \$0-stop-s \$0-stop stop 136
15 0 10 -262144 -258113 -1 12700 1;
#X obj 351 403 *~ 1;
#X obj 30 519 table \$0-sample 4.41e+06;
#X obj 259 438 +~ 0;
#X text 298 439 offset;
#X obj 290 281 t b f;
#X msg 399 180 0, f 5;
#X obj 443 392 fexpr~ $x[0] < $x[-1];
#X obj 443 460 threshold~ 0.5 1 0.1 1;
#X obj 646 216 hsl 128 30 0.1 10 1 0 \$0-speed-s \$0-speed speed 136
15 0 10 -262144 -258113 -1 8600 1;
#X obj 646 249 hsl 128 30 0.1 10 1 0 \$0-pitch-s \$0-pitch pitch 136
15 0 10 -262144 -258113 -1 3350 1;
#X obj 206 163 r \$0-start-s;
#X obj 119 281 r \$0-stop-s;
#X obj 492 178 r \$0-speed-s;
#N canvas 254 94 717 606 recording 0;
#X obj 97 30 inlet;
#X obj 311 30 inlet~;
#X obj 97 343 outlet;
#X msg 189 217 stop;
#X obj 97 100 sel start stop;
#X obj 310 267 tabwrite~ \$0-sample;
#X msg 409 193 \; \$1-sample const 0;
#X obj 409 169 \$0;
#X obj 136 262 samplerate~;
#X obj 136 291 / 1000;
#X obj 97 313 * 44.1;
#X obj 97 217 timer;
#X obj 143 179 t b b b;
#X obj 97 130 t b b b;
#X connect 0 0 4 0;
#X connect 1 0 5 0;
#X connect 3 0 5 0;
#X connect 4 0 13 0;
#X connect 4 1 12 0;
#X connect 7 0 6 0;
#X connect 8 0 9 0;
#X connect 9 0 10 1;
#X connect 10 0 2 0;
#X connect 11 0 10 0;
#X connect 12 0 11 1;
#X connect 12 1 8 0;
#X connect 12 2 3 0;
#X connect 13 0 11 0;
#X connect 13 1 5 0;
#X connect 13 2 7 0;
#X restore 88 221 pd recording;
#N canvas 87 116 448 424 phasor-freq-calc 0;
#X obj 42 37 inlet;
#X obj 86 36 inlet;
#X obj 137 35 inlet;
#X obj 42 346 outlet;
#X obj 107 344 outlet;
#X obj 187 35 inlet;
#X obj 234 36 inlet;
#X obj 42 161 t b f;
#X obj 42 214 /;
#X obj 42 264 f;
#X obj 42 104 -;
#X obj 42 75 f;
#X obj 42 132 t f f;
#X obj 42 290 spigot;
#X obj 42 318 * 1;
#X obj 42 187 samplerate~;
#X obj 42 236 abs;
#X connect 0 0 11 0;
#X connect 1 0 10 1;
#X connect 2 0 9 0;
#X connect 5 0 13 1;
#X connect 6 0 14 1;
#X connect 7 0 15 0;
#X connect 7 1 8 1;
#X connect 8 0 16 0;
#X connect 9 0 13 0;
#X connect 10 0 12 0;
#X connect 11 0 10 0;
#X connect 12 0 7 0;
#X connect 12 1 4 0;
#X connect 13 0 14 0;
#X connect 14 0 3 0;
#X connect 15 0 8 0;
#X connect 16 0 9 0;
#X restore 206 330 pd phasor-freq-calc;
#X msg 319 196 1;
#X obj 30 559 table \$0-hanning 256;
#N canvas 44 61 443 256 write-hanning 0;
#X msg 142 80 0;
#X obj 36 129 osc~;
#X obj 36 81 samplerate~;
#X obj 36 152 *~ -0.5;
#X obj 36 175 +~ 0.5;
#X obj 28 58 bng 15 250 50 0 empty empty empty 0 -6 0 8 -262144 -1
-1;
#X obj 28 26 loadbang;
#X obj 36 105 / 256;
#X obj 28 200 tabwrite~ \$0-hanning;
#X connect 0 0 1 1;
#X connect 1 0 3 0;
#X connect 2 0 7 0;
#X connect 3 0 4 0;
#X connect 4 0 8 0;
#X connect 5 0 2 0;
#X connect 5 0 0 0;
#X connect 5 0 8 0;
#X connect 6 0 5 0;
#X connect 7 0 1 0;
#X restore 29 586 pd write-hanning;
#N canvas 44 51 526 599 read-table 0;
#X obj 89 83 / 256;
#X obj 89 56 * 44100;
#X obj 15 30 inlet~;
#X obj 89 28 inlet;
#X obj 233 429 outlet~;
#X obj 18 258 tabread4~ \$0-sample;
#X obj 89 117 phasor~;
#X obj 16 196 samphold~;
#X obj 98 198 *~ 256;
#X obj 17 232 +~;
#X obj 43 288 *~;
#X obj 149 260 tabread4~ \$0-hanning;
#X obj 374 152 +~ 0.5;
#X obj 374 181 wrap~;
#X obj 304 273 tabread4~ \$0-sample;
#X obj 302 211 samphold~;
#X obj 384 213 *~ 256;
#X obj 303 247 +~;
#X obj 329 303 *~;
#X obj 435 275 tabread4~ \$0-hanning;
#X obj 234 395 +~;
#X obj 128 -4 loadbang;
#X obj 128 22 samplerate~;
#X connect 0 0 6 0;
#X connect 1 0 0 0;
#X connect 2 0 7 0;
#X connect 2 0 15 0;
#X connect 3 0 1 0;
#X connect 5 0 10 0;
#X connect 6 0 7 1;
#X connect 6 0 8 0;
#X connect 6 0 12 0;
#X connect 7 0 9 0;
#X connect 8 0 9 1;
#X connect 8 0 11 0;
#X connect 9 0 5 0;
#X connect 10 0 20 0;
#X connect 11 0 10 1;
#X connect 12 0 13 0;
#X connect 13 0 16 0;
#X connect 13 0 15 1;
#X connect 14 0 18 0;
#X connect 15 0 17 0;
#X connect 16 0 17 1;
#X connect 16 0 19 0;
#X connect 17 0 14 0;
#X connect 18 0 20 1;
#X connect 19 0 18 1;
#X connect 20 0 4 0;
#X connect 21 0 22 0;
#X connect 22 0 1 1;
#X restore 258 489 pd read-table;
#X obj 333 463 r \$0-pitch-s;
#X obj 245 637 *~ 0;
#X msg 278 523 1;
#X msg 320 523 0;
#X obj 124 202 soundfiler;
#N canvas 362 322 450 300 set_length 0;
#X obj 91 24 inlet;
#X obj 186 142 s \$0-stop;
#X obj 91 150 s \$0-start;
#X msg 91 111 0;
#X msg 186 90 range 0 \$1;
#X msg 106 88 range 0 \$1;
#X obj 151 226 s \$0-speed;
#X msg 151 193 1;
#X obj 285 117 s \$0-pitch;
#X msg 285 88 1;
#X obj 91 57 t b f f f b b b;
#X obj 327 240 outlet;
#X connect 0 0 10 0;
#X connect 3 0 2 0;
#X connect 4 0 1 0;
#X connect 5 0 2 0;
#X connect 7 0 6 0;
#X connect 9 0 8 0;
#X connect 10 0 3 0;
#X connect 10 1 5 0;
#X connect 10 2 1 0;
#X connect 10 3 4 0;
#X connect 10 4 7 0;
#X connect 10 5 9 0;
#X connect 10 6 11 0;
#X restore 88 251 pd set_length;
#X msg 124 177 read \$1 \$2;
#X obj 34 68 symbol;
#X obj 34 90 t s b;
#X obj 61 115 symbol \$0-sample;
#X obj 34 140 pack s s;
#X obj 662 710 outlet;
#X obj 88 31 route rec open bang;
#X floatatom 179 443 5 0 0 0 - - -;
#X obj 443 434 *~ 0;
#X msg 528 421 1;
#X msg 481 412 0;
#X obj 206 188 t b f f;
#X obj 239 120 t b b b b b b;
#X obj 447 284 del 20;
#X obj 451 53 loadbang;
#X obj 451 76 symbol \$1;
#X obj 451 103 makefilename %s;
#X obj 443 483 t b b;
#X obj 620 12 inlet;
#X obj 620 35 s \$0-pitch;
#X obj 532 8 inlet;
#X obj 532 31 s \$0-speed;
#X connect 0 0 19 1;
#X connect 2 0 37 0;
#X connect 3 0 6 0;
#X connect 3 0 12 0;
#X connect 6 0 8 0;
#X connect 8 0 24 0;
#X connect 10 0 20 2;
#X connect 10 1 20 4;
#X connect 11 0 3 1;
#X connect 12 0 39 0;
#X connect 13 0 48 0;
#X connect 16 0 42 0;
#X connect 17 0 20 0;
#X connect 18 0 10 0;
#X connect 19 0 30 0;
#X connect 20 0 3 0;
#X connect 20 0 38 0;
#X connect 20 1 6 1;
#X connect 21 0 20 3;
#X connect 24 0 26 0;
#X connect 25 0 24 1;
#X connect 26 0 1 0;
#X connect 27 0 26 1;
#X connect 28 0 26 1;
#X connect 29 0 30 0;
#X connect 31 0 29 0;
#X connect 32 0 33 0;
#X connect 33 0 35 0;
#X connect 33 1 34 0;
#X connect 34 0 35 1;
#X connect 35 0 31 0;
#X connect 37 0 19 0;
#X connect 37 1 32 0;
#X connect 37 2 43 0;
#X connect 39 0 13 0;
#X connect 40 0 39 1;
#X connect 41 0 39 1;
#X connect 42 0 20 0;
#X connect 42 1 20 1;
#X connect 42 2 8 1;
#X connect 43 0 20 0;
#X connect 43 1 21 0;
#X connect 43 2 27 0;
#X connect 43 3 11 0;
#X connect 43 4 41 0;
#X connect 43 5 44 0;
#X connect 44 0 40 0;
#X connect 45 0 46 0;
#X connect 46 0 47 0;
#X connect 47 0 32 0;
#X connect 48 0 28 0;
#X connect 48 1 36 0;
#X connect 49 0 50 0;
#X connect 51 0 52 0;
#X coords 0 -1 1 1 191 175 1 640 125;
