#N canvas 378 61 892 707 10;
#X obj 16 34 route rec play;
#X obj 16 3 inlet;
#X obj 16 76 sel start stop;
#X obj 367 73 sel start stop;
#X obj 16 55 list \$1;
#X obj 367 49 list \$1;
#X obj 670 155 hsl 128 30 0 5479 0 0 \$0-start-s \$0-start start 136
15 0 10 -262144 -258113 -1 0 1;
#X obj 670 221 hsl 128 30 0.01 10 1 1 \$0-speed-s \$0-speed speed 136
15 0 10 -262144 -258113 -1 8467 1;
#X obj 830 676 outlet;
#X obj 714 6 inlet;
#X obj 801 108 bng 30 250 50 0 \$0-reset-s \$0-reset empty 17 7 0 10
-262144 -1 -1;
#X obj 189 5 inlet;
#X obj 667 119 tgl 32 0 \$0-record-s \$0-record empty 17 7 0 10 -262144
-1 -1 0 1;
#X obj 714 49 s \$0-reset;
#X obj 483 195 r \$0-reset-s;
#X obj 670 188 hsl 128 30 0 5479 0 0 \$0-stop-s \$0-stop stop 136 15
0 10 -262144 -258113 -1 0 1;
#X obj 69 182 spigot;
#X obj 222 89 r \$0-record-s;
#X obj 280 659 outlet;
#X obj 452 198 /;
#X obj 452 113 r \$0-speed-s;
#X obj 452 142 t b f;
#X msg 407 113 stop;
#X obj 407 257 f;
#X msg 483 232 0;
#X obj 444 257 + 1;
#X obj 407 306 +;
#X obj 407 342 moses 100000;
#X obj 476 314 r \$0-stop-s;
#X obj 422 281 r \$0-start-s;
#X obj 671 414 s \$0-reset;
#X obj 671 385 bng 15 250 50 0 empty empty empty 17 7 0 10 -262144
-1 -1;
#X obj 630 4 inlet;
#X obj 126 191 spigot;
#X obj 630 49 s \$0-record;
#X obj 670 257 hsl 128 15 0 5479 0 0 empty \$0-pos-s position 136 7
0 10 -228856 -1 -1 0 1;
#X obj 528 278 s \$0-pos-s;
#X obj 367 99 t b b;
#X obj 630 26 ../glue/bangonce 400;
#X obj 407 229 metro 1;
#X obj 452 167 1;
#X obj 16 465 table \$0-param1 100000;
#X obj 17 492 table \$0-param2 100000;
#X obj 16 521 table \$0-param3 100000;
#X obj 258 6 inlet;
#X obj 309 10 inlet;
#X obj 187 186 spigot;
#X obj 332 661 outlet;
#X obj 422 660 outlet;
#X obj 295 451 tabread \$0-param1;
#X obj 321 470 tabread \$0-param2;
#X obj 402 493 tabread \$0-param3;
#X obj 16 548 table \$0-param4 100000;
#X obj 17 575 table \$0-param5 100000;
#X obj 16 605 table \$0-param6 100000;
#X obj 560 665 outlet;
#X obj 644 665 outlet;
#X obj 775 680 outlet;
#X obj 235 183 spigot;
#X obj 292 192 spigot;
#X obj 353 187 spigot;
#X obj 368 7 inlet;
#X obj 437 8 inlet;
#X obj 488 12 inlet;
#N canvas 36 63 1190 659 record-------------- 0;
#X obj 12 18 inlet;
#X obj 169 23 inlet;
#X obj 312 21 inlet;
#X obj 443 26 inlet;
#X obj 1064 49 inlet;
#X obj 108 112 \$0;
#X obj 144 117 s \$0-record;
#X msg 144 83 1;
#X obj 12 179 f;
#X msg 72 110 0;
#X obj 41 180 + 1;
#X msg 169 52 stop;
#X obj 107 435 s \$0-stop;
#X obj 12 443 s \$0-start;
#X msg 12 404 0;
#X msg 107 383 range 0 \$1;
#X msg 27 381 range 0 \$1;
#X obj 12 350 t b f f f b;
#X obj 75 519 s \$0-speed;
#X msg 75 486 1;
#X obj 12 51 t b b b b;
#X obj 153 345 s \$0-pos-s;
#X msg 153 318 range 0 \$1;
#X obj 12 110 metro 1;
#X obj 312 349 tabwrite \$0-param1;
#X obj 439 349 tabwrite \$0-param2;
#X obj 555 353 tabwrite \$0-param3;
#X obj 545 26 inlet;
#X msg 115 148 \; \$1-param1 const 0;
#X msg 261 148 \; \$1-param2 const 0;
#X msg 403 143 \; \$1-param3 const 0;
#X obj 682 27 inlet;
#X obj 813 32 inlet;
#X obj 915 32 inlet;
#X obj 683 355 tabwrite \$0-param4;
#X obj 809 355 tabwrite \$0-param5;
#X obj 925 359 tabwrite \$0-param6;
#X msg 119 206 \; \$1-param1 const 0;
#X msg 265 206 \; \$1-param2 const 0;
#X msg 407 201 \; \$1-param3 const 0;
#X connect 0 0 20 0;
#X connect 1 0 11 0;
#X connect 2 0 24 0;
#X connect 3 0 25 0;
#X connect 4 0 24 1;
#X connect 4 0 25 1;
#X connect 4 0 26 1;
#X connect 4 0 34 1;
#X connect 4 0 35 1;
#X connect 4 0 36 1;
#X connect 5 0 28 0;
#X connect 5 0 29 0;
#X connect 5 0 30 0;
#X connect 5 0 37 0;
#X connect 5 0 38 0;
#X connect 5 0 39 0;
#X connect 7 0 6 0;
#X connect 8 0 10 0;
#X connect 8 0 17 0;
#X connect 8 0 22 0;
#X connect 8 0 24 1;
#X connect 8 0 25 1;
#X connect 8 0 26 1;
#X connect 8 0 34 0;
#X connect 8 0 35 0;
#X connect 8 0 36 0;
#X connect 9 0 8 1;
#X connect 10 0 8 1;
#X connect 11 0 23 0;
#X connect 14 0 13 0;
#X connect 15 0 12 0;
#X connect 16 0 13 0;
#X connect 17 0 14 0;
#X connect 17 1 16 0;
#X connect 17 2 12 0;
#X connect 17 3 15 0;
#X connect 17 4 19 0;
#X connect 19 0 18 0;
#X connect 20 0 23 0;
#X connect 20 1 9 0;
#X connect 20 2 5 0;
#X connect 20 3 7 0;
#X connect 22 0 21 0;
#X connect 23 0 8 0;
#X connect 27 0 26 0;
#X connect 31 0 34 0;
#X connect 32 0 35 0;
#X connect 33 0 36 0;
#X restore 17 428 pd record--------------;
#X msg 214 574 0;
#X obj 69 205 sel 0;
#X obj 126 214 sel 0;
#X obj 184 210 sel 0;
#X obj 241 219 sel 0;
#X obj 299 215 sel 0;
#X obj 356 224 sel 0;
#X obj 505 525 tabread \$0-param4;
#X obj 627 545 tabread \$0-param5;
#X obj 668 485 tabread \$0-param6;
#X obj 407 367 t f f f f f f;
#X connect 0 0 4 0;
#X connect 0 1 5 0;
#X connect 1 0 0 0;
#X connect 2 0 64 0;
#X connect 2 1 64 1;
#X connect 3 0 37 0;
#X connect 3 1 22 0;
#X connect 3 1 65 0;
#X connect 4 0 2 0;
#X connect 5 0 3 0;
#X connect 9 0 13 0;
#X connect 11 0 16 0;
#X connect 14 0 8 0;
#X connect 14 0 24 0;
#X connect 16 0 66 0;
#X connect 17 0 16 1;
#X connect 17 0 33 1;
#X connect 17 0 46 1;
#X connect 17 0 58 1;
#X connect 17 0 59 1;
#X connect 17 0 60 1;
#X connect 19 0 39 1;
#X connect 20 0 21 0;
#X connect 21 0 40 0;
#X connect 21 1 19 1;
#X connect 22 0 39 0;
#X connect 23 0 25 0;
#X connect 23 0 26 0;
#X connect 23 0 36 0;
#X connect 24 0 23 1;
#X connect 25 0 23 1;
#X connect 26 0 27 0;
#X connect 27 0 64 8;
#X connect 27 0 75 0;
#X connect 27 1 31 0;
#X connect 28 0 27 1;
#X connect 29 0 26 1;
#X connect 31 0 30 0;
#X connect 32 0 38 0;
#X connect 33 0 67 0;
#X connect 37 0 39 0;
#X connect 37 1 24 0;
#X connect 38 0 34 0;
#X connect 39 0 23 0;
#X connect 40 0 19 0;
#X connect 44 0 33 0;
#X connect 45 0 46 0;
#X connect 46 0 68 0;
#X connect 49 0 18 0;
#X connect 50 0 47 0;
#X connect 51 0 48 0;
#X connect 58 0 69 0;
#X connect 59 0 70 0;
#X connect 60 0 71 0;
#X connect 61 0 58 0;
#X connect 62 0 59 0;
#X connect 63 0 60 0;
#X connect 65 0 18 0;
#X connect 65 0 47 0;
#X connect 65 0 48 0;
#X connect 65 0 55 0;
#X connect 65 0 56 0;
#X connect 65 0 57 0;
#X connect 66 1 64 2;
#X connect 66 1 18 0;
#X connect 67 1 64 3;
#X connect 67 1 47 0;
#X connect 68 1 64 4;
#X connect 68 1 48 0;
#X connect 69 1 64 5;
#X connect 69 1 55 0;
#X connect 70 1 64 6;
#X connect 70 1 56 0;
#X connect 71 1 64 7;
#X connect 71 1 57 0;
#X connect 72 0 55 0;
#X connect 73 0 56 0;
#X connect 74 0 57 0;
#X connect 75 0 49 0;
#X connect 75 1 50 0;
#X connect 75 2 51 0;
#X connect 75 3 72 0;
#X connect 75 4 73 0;
#X connect 75 5 74 0;
#X coords 0 -1 1 1 191 175 1 663 100;
