#N canvas 245 65 903 629 10;
#X msg 368 161 0;
#X obj 158 0 inlet~;
#X obj 257 586 outlet~;
#X obj 88 0 inlet;
#X obj 239 93 sel start stop;
#X obj 239 71 list \$1;
#X obj 350 364 phasor~ 0;
#X obj 646 150 hsl 128 30 0 427329 0 0 \$0-start-s \$0-start start
136 15 0 10 #fcfcfc #fc0400 #000000 0 1;
#X obj 646 183 hsl 128 30 0 427329 0 0 \$0-stop-s \$0-stop stop 136
15 0 10 #fcfcfc #fc0400 #000000 0 1;
#X obj 351 403 *~ 1;
#X obj 30 519 table \$0-sample 4.41e+06;
#X obj 259 438 +~ 0;
#X text 298 439 offset;
#X obj 290 281 t b f;
#X msg 401 166 0;
#X obj 651 444 outlet;
#X obj 632 4 inlet;
#X obj 490 395 fexpr~ $x[0] < $x[-1];
#X obj 490 416 threshold~ 0.5 1 0.1 1;
#X obj 779 129 bng 30 250 50 0 \$0-reset-s \$0-reset empty 17 7 0 10
#fcfcfc #000000 #000000;
#X obj 646 216 hsl 128 30 0.1 10 1 0 \$0-speed-s \$0-speed speed 136
15 0 10 #fcfcfc #fc0400 #000000 0 1;
#X obj 646 249 hsl 128 30 0.1 10 1 0 \$0-pitch-s \$0-pitch pitch 136
15 0 10 #fcfcfc #fc0400 #000000 0 1;
#X obj 206 163 r \$0-start-s;
#X obj 206 188 t b f f;
#X obj 119 281 r \$0-stop-s;
#X obj 459 198 r \$0-speed-s;
#N canvas 254 94 717 606 recording 0;
#X obj 97 30 inlet;
#X obj 311 30 inlet~;
#X obj 97 323 outlet;
#X msg 189 197 stop;
#X obj 97 80 sel start stop;
#X obj 97 59 list \$1;
#X obj 310 267 tabwrite~ \$0-sample;
#X msg 410 158 \; \$1-sample const 0;
#X obj 410 134 \$0;
#X obj 136 242 samplerate~;
#X obj 136 271 / 1000;
#X obj 97 293 * 44.1;
#X obj 97 197 timer;
#X obj 97 110 t b b b b;
#X obj 124 146 spigot;
#X msg 210 145 1;
#X obj 124 171 t b b b b;
#X msg 262 144 0;
#X connect 0 0 5 0;
#X connect 1 0 6 0;
#X connect 3 0 6 0;
#X connect 4 0 13 0;
#X connect 4 1 14 0;
#X connect 5 0 4 0;
#X connect 8 0 7 0;
#X connect 9 0 10 0;
#X connect 10 0 11 1;
#X connect 11 0 2 0;
#X connect 12 0 11 0;
#X connect 13 0 12 0;
#X connect 13 1 6 0;
#X connect 13 2 8 0;
#X connect 13 3 15 0;
#X connect 14 0 16 0;
#X connect 15 0 14 1;
#X connect 16 0 12 1;
#X connect 16 1 9 0;
#X connect 16 2 3 0;
#X connect 16 3 17 0;
#X connect 17 0 14 1;
#X restore 88 221 pd recording;
#N canvas 87 116 448 424 phasor-freq-calc 0;
#X obj 42 37 inlet;
#X obj 86 36 inlet;
#X obj 137 35 inlet;
#X obj 42 346 outlet;
#X obj 107 344 outlet;
#X obj 187 35 inlet;
#X obj 234 36 inlet;
#X obj 42 161 t b f;
#X obj 42 214 /;
#X obj 42 264 f;
#X obj 42 104 -;
#X obj 42 75 f;
#X obj 42 132 t f f;
#X obj 42 290 spigot;
#X obj 42 318 * 1;
#X obj 42 187 samplerate~;
#X obj 42 236 abs;
#X connect 0 0 11 0;
#X connect 1 0 10 1;
#X connect 2 0 9 0;
#X connect 5 0 13 1;
#X connect 6 0 14 1;
#X connect 7 0 15 0;
#X connect 7 1 8 1;
#X connect 8 0 16 0;
#X connect 9 0 13 0;
#X connect 10 0 12 0;
#X connect 11 0 10 0;
#X connect 12 0 7 0;
#X connect 12 1 4 0;
#X connect 13 0 14 0;
#X connect 14 0 3 0;
#X connect 15 0 8 0;
#X connect 16 0 9 0;
#X restore 206 330 pd phasor-freq-calc;
#X obj 522 96 r \$0-reset-s;
#X obj 490 437 s \$0-reset;
#X msg 341 160 0;
#X msg 288 161 1;
#X obj 429 470 r \$0-pitch-s;
#X obj 257 554 *~ 0;
#X obj 239 120 t b b b b;
#X msg 278 523 1;
#X msg 320 523 0;
#X obj 646 281 hsl 128 15 0 1 0 0 empty \$0-pos position 136 7 0 10
#dcdcdc #000000 #000000 0 1;
#X obj 168 472 s \$0-pos;
#X obj 168 442 snapshot~;
#X obj 168 406 metro 10;
#X obj 168 375 loadbang;
#X obj 341 132 t b b b b;
#X obj 124 202 soundfiler;
#N canvas 362 322 450 300 set_length 0;
#X obj 91 24 inlet;
#X obj 186 142 s \$0-stop;
#X obj 91 150 s \$0-start;
#X msg 91 111 0;
#X msg 186 90 range 0 \$1;
#X msg 106 88 range 0 \$1;
#X obj 151 226 s \$0-speed;
#X msg 151 193 1;
#X obj 285 117 s \$0-pitch;
#X msg 285 88 1;
#X obj 91 57 t b f f f b b b;
#X obj 327 240 outlet;
#X connect 0 0 10 0;
#X connect 3 0 2 0;
#X connect 4 0 1 0;
#X connect 5 0 2 0;
#X connect 7 0 6 0;
#X connect 9 0 8 0;
#X connect 10 0 3 0;
#X connect 10 1 5 0;
#X connect 10 2 1 0;
#X connect 10 3 4 0;
#X connect 10 4 7 0;
#X connect 10 5 9 0;
#X connect 10 6 11 0;
#X restore 88 251 pd set_length;
#X obj 88 31 route rec open play;
#X msg 124 177 read \$1 \$2;
#X obj 34 68 symbol;
#X obj 34 90 t s b;
#X obj 61 115 symbol \$0-sample;
#X obj 34 140 pack s s;
#X obj 451 533 loadbang;
#X obj 451 555 \$0;
#X obj 451 577 outlet;
#X obj 385 17 inlet;
#X obj 471 19 inlet;
#X obj 385 40 s \$0-speed;
#X obj 471 41 s \$0-pitch;
#X obj 258 495 _table_reader_pitch \$0-sample;
#X connect 0 0 6 0;
#X connect 1 0 26 1;
#X connect 3 0 45 0;
#X connect 4 0 34 0;
#X connect 4 1 42 0;
#X connect 5 0 4 0;
#X connect 6 0 9 0;
#X connect 6 0 17 0;
#X connect 6 0 39 0;
#X connect 9 0 11 0;
#X connect 11 0 58 0;
#X connect 13 0 27 2;
#X connect 13 1 27 4;
#X connect 14 0 6 1;
#X connect 16 0 29 0;
#X connect 17 0 18 0;
#X connect 18 0 29 0;
#X connect 22 0 23 0;
#X connect 23 0 27 0;
#X connect 23 1 27 1;
#X connect 23 2 11 1;
#X connect 24 0 27 0;
#X connect 25 0 13 0;
#X connect 26 0 44 0;
#X connect 27 0 6 0;
#X connect 27 1 9 1;
#X connect 28 0 15 0;
#X connect 28 0 14 0;
#X connect 30 0 27 3;
#X connect 31 0 27 3;
#X connect 32 0 58 1;
#X connect 33 0 2 0;
#X connect 34 0 27 0;
#X connect 34 1 31 0;
#X connect 34 2 14 0;
#X connect 34 3 35 0;
#X connect 35 0 33 1;
#X connect 36 0 33 1;
#X connect 39 0 38 0;
#X connect 40 0 39 0;
#X connect 41 0 40 0;
#X connect 42 0 30 0;
#X connect 42 1 0 0;
#X connect 42 2 36 0;
#X connect 42 3 14 0;
#X connect 43 0 44 0;
#X connect 44 0 53 0;
#X connect 45 0 26 0;
#X connect 45 1 47 0;
#X connect 45 2 5 0;
#X connect 46 0 43 0;
#X connect 47 0 48 0;
#X connect 48 0 50 0;
#X connect 48 1 49 0;
#X connect 49 0 50 1;
#X connect 50 0 46 0;
#X connect 51 0 52 0;
#X connect 52 0 53 0;
#X connect 54 0 56 0;
#X connect 55 0 57 0;
#X connect 58 0 33 0;
#X coords 0 -1 1 1 191 175 1 640 125;
