#N canvas 389 58 785 648 10;
#X obj 79 171 sample-looper-box~;
#X obj 79 41 bng 15 250 50 0 empty empty empty 17 7 0 10 -262144 -1
-1;
#X text 15 18 bang to start / stop recording;
#X obj 145 90 bng 15 250 50 0 empty empty empty 17 7 0 10 -262144 -1
-1;
#X text 97 63 bang to start / stop playback;
#X obj 281 125 *~;
#X msg 321 134 bang;
#X obj 282 21 osc~ 150;
#X obj 297 77 phasor~ 1;
#X text 319 108 bang for restart of playback at loop start position
;
#X obj 79 478 dac~ 1 2;
#X obj 277 476 bng 15 250 50 0 empty empty empty 17 7 0 10 -262144
-1 -1;
#X text 240 492 outputs a bang at loop end;
#X msg 11 143 open \$1;
#X obj 11 119 openpanel;
#X obj 11 96 bng 15 250 50 0 empty empty empty 17 7 0 10 -262144 -1
-1;
#X text 6 69 load a sample;
#X floatatom 167 513 5 0 0 0 - - -, f 5;
#X text 163 532 outputs recorded length;
#X connect 0 0 10 0;
#X connect 0 0 10 1;
#X connect 0 1 17 0;
#X connect 0 2 11 0;
#X connect 1 0 0 0;
#X connect 3 0 0 1;
#X connect 5 0 0 2;
#X connect 6 0 0 3;
#X connect 7 0 5 0;
#X connect 8 0 5 1;
#X connect 13 0 0 0;
#X connect 14 0 13 0;
#X connect 15 0 14 0;
#X coords 0 648 1 647 205 272 0;
