#N canvas 46 58 878 577 10;
#X obj 218 242 sample-looper~;
#X obj 283 144 *~;
#X msg 21 536 \; pd dsp 1;
#X obj 218 435 dac~ 1 2;
#X msg 21 143 rec start;
#X msg 95 144 rec stop;
#X msg 157 148 play start;
#X msg 202 173 play stop;
#X text 18 514 turn on sound computation;
#X text 27 118 start / stop recording and playpack;
#X msg 510 168 bang;
#X obj 284 40 osc~ 150;
#X obj 299 96 phasor~ 1;
#X text 507 147 bang for restart of playback at loop start position;
#X obj 411 433 bng 15 250 50 0 empty empty empty 17 7 0 10 #fcfcfc #000000 #000000;
#X msg 128 78 open \$1;
#X obj 128 54 openpanel;
#X obj 128 31 bng 15 250 50 0 empty empty empty 17 7 0 10 #fcfcfc #000000 #000000;
#X text 123 4 load a sample;
#X floatatom 300 479 5 0 0 0 - - - 0;
#X msg 397 57 start 0;
#X msg 393 88 start 0.5;
#X msg 484 54 stop 1;
#X msg 486 84 stop 0.5;
#X text 299 501 Get recorded length in ms;
#X text 399 35 set start and stop in fractions of the sample length;
#X msg 398 184 0.5;
#X text 315 182 set speed;
#X text 401 162 set pitch;
#X msg 313 202 2;
#X text 374 449 outputs a bang at reset to start position;
#X connect 0 0 3 0;
#X connect 0 0 3 1;
#X connect 0 1 19 0;
#X connect 0 2 14 0;
#X connect 1 0 0 1;
#X connect 4 0 0 0;
#X connect 5 0 0 0;
#X connect 6 0 0 0;
#X connect 7 0 0 0;
#X connect 10 0 0 4;
#X connect 11 0 1 0;
#X connect 12 0 1 1;
#X connect 15 0 0 0;
#X connect 16 0 15 0;
#X connect 17 0 16 0;
#X connect 20 0 0 0;
#X connect 21 0 0 0;
#X connect 22 0 0 0;
#X connect 23 0 0 0;
#X connect 26 0 0 3;
#X connect 29 0 0 2;
