#N canvas 292 51 903 629 10;
#X msg 368 161 0;
#X obj 158 0 inlet~;
#X obj 257 586 outlet~;
#X obj 88 0 inlet;
#X obj 239 93 sel start stop;
#X obj 239 71 list \$1;
#X obj 350 364 phasor~ 0;
#X obj 651 150 hsl 128 30 0 0 0 0 \$0-start-s \$0-start start 136 15
0 10 -262144 -258113 -1 0 1;
#X obj 651 183 hsl 128 30 0 0 0 0 \$0-stop-s \$0-stop stop 136 15 0
10 -262144 -258113 -1 0 1;
#X obj 351 403 *~ 1;
#X obj 30 519 table \$0-sample 4.41e+06;
#X obj 259 438 +~ 0;
#X text 298 439 offset;
#X obj 290 281 t b f;
#X msg 401 166 0;
#X obj 651 444 outlet;
#X obj 632 4 inlet;
#X obj 443 392 fexpr~ $x[0] < $x[-1];
#X obj 443 432 threshold~ 0.5 1 0.1 1;
#X obj 804 129 bng 30 250 50 0 \$0-reset-s \$0-reset empty 17 7 0 10
-262144 -1 -1;
#X obj 651 216 hsl 128 30 0.1 10 1 0 \$0-speed-s \$0-speed speed 136
15 0 10 -262144 -258113 -1 0 1;
#X obj 651 249 hsl 128 30 0.1 10 1 0 \$0-pitch-s \$0-pitch pitch 136
15 0 10 -262144 -258113 -1 0 1;
#X obj 206 163 r \$0-start-s;
#X obj 206 188 t b f f;
#X obj 119 281 r \$0-stop-s;
#X obj 459 198 r \$0-speed-s;
#N canvas 44 51 717 606 recording 0;
#X msg 164 110 stop;
#X obj 97 80 sel start stop;
#X obj 97 59 list \$1;
#X obj 222 172 tabwrite~ \$0-sample;
#X obj 168 265 f;
#X obj 168 293 * 44.1;
#X msg 410 158 \; \$1-sample const 0;
#X obj 410 134 \$0;
#X obj 97 113 t b b b b;
#X obj 97 30 inlet;
#X obj 221 30 inlet~;
#X obj 201 242 samplerate~;
#X obj 201 271 / 100;
#X obj 164 170 t s b b;
#N canvas 374 464 450 300 counter 0;
#X obj 63 22 inlet;
#X obj 115 24 inlet;
#X obj 63 140 outlet;
#X msg 115 69 0;
#X obj 63 67 metro 1;
#X obj 100 110 + 1;
#X obj 63 109 f;
#X connect 0 0 4 0;
#X connect 1 0 3 0;
#X connect 3 0 6 0;
#X connect 4 0 6 0;
#X connect 5 0 6 1;
#X connect 6 0 5 0;
#X connect 6 0 2 0;
#X restore 97 197 pd counter;
#X obj 168 323 outlet;
#X connect 0 0 3 0;
#X connect 0 0 13 0;
#X connect 1 0 8 0;
#X connect 1 1 0 0;
#X connect 2 0 1 0;
#X connect 4 0 5 0;
#X connect 5 0 15 0;
#X connect 7 0 6 0;
#X connect 8 0 14 0;
#X connect 8 1 14 1;
#X connect 8 2 3 0;
#X connect 8 3 7 0;
#X connect 9 0 2 0;
#X connect 10 0 3 0;
#X connect 11 0 12 0;
#X connect 12 0 5 1;
#X connect 13 0 14 0;
#X connect 13 1 4 0;
#X connect 13 2 11 0;
#X connect 14 0 4 1;
#X restore 88 221 pd recording;
#N canvas 87 111 448 424 phasor-freq-calc 0;
#X obj 42 37 inlet;
#X obj 86 36 inlet;
#X obj 137 35 inlet;
#X obj 42 336 outlet;
#X obj 107 334 outlet;
#X obj 187 35 inlet;
#X obj 234 36 inlet;
#X obj 42 161 t b f;
#X obj 42 214 /;
#X obj 42 244 f;
#X obj 42 104 -;
#X obj 42 75 f;
#X obj 42 132 t f f;
#X obj 42 270 spigot;
#X obj 42 298 * 1;
#X obj 42 187 samplerate~;
#X connect 0 0 11 0;
#X connect 1 0 10 1;
#X connect 2 0 9 0;
#X connect 5 0 13 1;
#X connect 6 0 14 1;
#X connect 7 0 15 0;
#X connect 7 1 8 1;
#X connect 8 0 9 0;
#X connect 9 0 13 0;
#X connect 10 0 12 0;
#X connect 11 0 10 0;
#X connect 12 0 7 0;
#X connect 12 1 4 0;
#X connect 13 0 14 0;
#X connect 14 0 3 0;
#X connect 15 0 8 0;
#X restore 206 330 pd phasor-freq-calc;
#X obj 522 96 r \$0-reset-s;
#X obj 443 473 s \$0-reset;
#X msg 341 160 0;
#X msg 288 161 1;
#X obj 30 559 table \$0-hanning 256;
#N canvas 44 51 443 256 write-hanning 0;
#X msg 142 80 0;
#X obj 36 129 osc~;
#X obj 36 81 samplerate~;
#X obj 36 152 *~ -0.5;
#X obj 36 175 +~ 0.5;
#X obj 28 58 bng 15 250 50 0 empty empty empty 0 -6 0 8 -262144 -1
-1;
#X obj 28 26 loadbang;
#X obj 36 105 / 256;
#X obj 28 200 tabwrite~ \$0-hanning;
#X connect 0 0 1 1;
#X connect 1 0 3 0;
#X connect 2 0 7 0;
#X connect 3 0 4 0;
#X connect 4 0 8 0;
#X connect 5 0 2 0;
#X connect 5 0 0 0;
#X connect 5 0 8 0;
#X connect 6 0 5 0;
#X connect 7 0 1 0;
#X restore 29 586 pd write-hanning;
#N canvas 44 51 526 599 read-table 0;
#X obj 89 83 / 256;
#X obj 89 56 * 44100;
#X obj 15 30 inlet~;
#X obj 89 28 inlet;
#X obj 233 429 outlet~;
#X obj 18 258 tabread4~ \$0-sample;
#X obj 89 117 phasor~;
#X obj 16 196 samphold~;
#X obj 98 198 *~ 256;
#X obj 17 232 +~;
#X obj 43 288 *~;
#X obj 149 260 tabread4~ \$0-hanning;
#X obj 374 152 +~ 0.5;
#X obj 374 181 wrap~;
#X obj 304 273 tabread4~ \$0-sample;
#X obj 302 211 samphold~;
#X obj 384 213 *~ 256;
#X obj 303 247 +~;
#X obj 329 303 *~;
#X obj 435 275 tabread4~ \$0-hanning;
#X obj 234 395 +~;
#X connect 0 0 6 0;
#X connect 1 0 0 0;
#X connect 2 0 7 0;
#X connect 2 0 15 0;
#X connect 3 0 1 0;
#X connect 5 0 10 0;
#X connect 6 0 7 1;
#X connect 6 0 8 0;
#X connect 6 0 12 0;
#X connect 7 0 9 0;
#X connect 8 0 9 1;
#X connect 8 0 11 0;
#X connect 9 0 5 0;
#X connect 10 0 20 0;
#X connect 11 0 10 1;
#X connect 12 0 13 0;
#X connect 13 0 16 0;
#X connect 13 0 15 1;
#X connect 14 0 18 0;
#X connect 15 0 17 0;
#X connect 16 0 17 1;
#X connect 16 0 19 0;
#X connect 17 0 14 0;
#X connect 18 0 20 1;
#X connect 19 0 18 1;
#X connect 20 0 4 0;
#X restore 258 489 pd read-table;
#X obj 333 463 r \$0-pitch-s;
#X obj 257 554 *~ 0;
#X obj 239 120 t b b b b;
#X msg 278 523 1;
#X msg 320 523 0;
#X obj 651 281 hsl 128 15 0 1 0 0 empty \$0-pos position 136 7 0 10
-228856 -1 -1 0 1;
#X obj 168 472 s \$0-pos;
#X obj 168 442 snapshot~;
#X obj 168 406 metro 10;
#X obj 168 375 loadbang;
#X obj 341 132 t b b b b;
#X obj 124 202 soundfiler;
#N canvas 364 324 450 300 set_length 0;
#X obj 91 24 inlet;
#X obj 186 142 s \$0-stop;
#X obj 91 150 s \$0-start;
#X msg 91 111 0;
#X msg 186 90 range 0 \$1;
#X msg 106 88 range 0 \$1;
#X obj 151 226 s \$0-speed;
#X msg 151 193 1;
#X obj 91 57 t b f f f b b;
#X obj 285 117 s \$0-pitch;
#X msg 285 88 1;
#X connect 0 0 8 0;
#X connect 3 0 2 0;
#X connect 4 0 1 0;
#X connect 5 0 2 0;
#X connect 7 0 6 0;
#X connect 8 0 3 0;
#X connect 8 1 5 0;
#X connect 8 2 1 0;
#X connect 8 3 4 0;
#X connect 8 4 7 0;
#X connect 8 5 10 0;
#X connect 10 0 9 0;
#X restore 88 251 pd set_length;
#X obj 88 31 route rec open play;
#X msg 124 177 read \$1 \$2;
#X obj 34 68 symbol;
#X obj 34 90 t s b;
#X obj 61 115 symbol \$0-sample;
#X obj 34 140 pack s s;
#X connect 0 0 6 0;
#X connect 1 0 26 1;
#X connect 3 0 48 0;
#X connect 4 0 37 0;
#X connect 4 1 45 0;
#X connect 5 0 4 0;
#X connect 6 0 9 0;
#X connect 6 0 17 0;
#X connect 6 0 42 0;
#X connect 9 0 11 0;
#X connect 11 0 34 0;
#X connect 13 0 27 2;
#X connect 13 1 27 4;
#X connect 14 0 6 1;
#X connect 16 0 29 0;
#X connect 17 0 18 0;
#X connect 18 0 29 0;
#X connect 22 0 23 0;
#X connect 23 0 27 0;
#X connect 23 1 27 1;
#X connect 23 2 11 1;
#X connect 24 0 27 0;
#X connect 25 0 13 0;
#X connect 26 0 47 0;
#X connect 27 0 6 0;
#X connect 27 1 9 1;
#X connect 28 0 15 0;
#X connect 28 0 14 0;
#X connect 30 0 27 3;
#X connect 31 0 27 3;
#X connect 34 0 36 0;
#X connect 35 0 34 1;
#X connect 36 0 2 0;
#X connect 37 0 27 0;
#X connect 37 1 31 0;
#X connect 37 2 14 0;
#X connect 37 3 38 0;
#X connect 38 0 36 1;
#X connect 39 0 36 1;
#X connect 42 0 41 0;
#X connect 43 0 42 0;
#X connect 44 0 43 0;
#X connect 45 0 30 0;
#X connect 45 1 0 0;
#X connect 45 2 39 0;
#X connect 45 3 14 0;
#X connect 46 0 47 0;
#X connect 48 0 26 0;
#X connect 48 1 50 0;
#X connect 48 2 5 0;
#X connect 49 0 46 0;
#X connect 50 0 51 0;
#X connect 51 0 53 0;
#X connect 51 1 52 0;
#X connect 52 0 53 1;
#X connect 53 0 49 0;
#X coords 0 -1 1 1 200 175 1 640 125;
