#N canvas 322 0 826 995 12;
#X obj 181 393 soundfiler;
#X obj 181 262 \$0;
#X obj 91 261 samplerate~;
#X obj 91 286 /;
#X obj 159 542 phasor~;
#X obj 159 568 *~;
#X obj 93 497 *~;
#X obj 159 593 +~;
#X floatatom 41 664 5 0 0 2 slice - - 0;
#X obj 91 311 t f f;
#X msg 205 487 0, f 4;
#X obj 159 931 outlet~;
#X obj 345 933 outlet~;
#X obj 158 907 *~;
#X obj 346 908 *~;
#X obj 6 652 tgl 32 0 empty empty empty 17 7 0 10 #fcfcfc #000000 #000000 0 1;
#X obj 56 193 loadbang;
#X obj 652 929 outlet;
#X obj 606 694 fexpr~ $x[0] < $x[-1];
#X obj 606 718 threshold~ 0.5 1 0.1 1;
#X obj 306 260 \$2;
#X obj 56 223 t b b b b b b;
#X obj 221 262 symbol \$1;
#X obj 181 418 / 4;
#X obj 181 337 pack f s;
#X obj 600 143 inlet;
#X obj 56 375 t b b b b;
#X obj 157 827 *~;
#X obj 344 845 *~;
#X obj 209 699 bng 15 250 50 0 empty empty empty 17 7 0 10 #fcfcfc #000000 #000000;
#X obj 632 303 array define \$0-sample-r;
#X obj 632 328 array define \$0-sample-l;
#X msg 181 365 read -resize \$2 \$1-sample-l \$1-sample-r;
#X obj 9 709 hsl 128 15 0.25 4 1 1 empty empty pitch 134 7 0 10 #fcfcfc #000000 #000000 6350 1;
#X obj 524 169 inlet;
#X obj 9 690 hsl 128 15 0.25 4 1 1 empty empty speed 134 7 0 10 #fcfcfc #000000 #000000 6350 1;
#X msg 56 248 1;
#X obj 61 336 *;
#X msg 498 344 1;
#X obj 465 168 inlet;
#X obj 345 732 _table_reader_pitch \$0-sample-r;
#X obj 221 292 _make_path;
#X obj 82 664 tgl 20 0 empty empty play\ on\ bang\ only 24 9 0 12 #fcfcfc #000000 #000000 0 1;
#X obj 345 883 *~ 1;
#X obj 158 880 *~ 1;
#X obj 545 542 spigot;
#X obj 56 454 glue/rand 4;
#X obj 606 743 t b b;
#X obj 623 820 t b b;
#X obj 576 798 spigot 1;
#X obj 629 772 expr if($f1 == 0 \, 1 \, 0);
#X obj 615 236 t b b;
#X obj 44 602 + 1;
#X obj 151 494 * 0;
#X obj 385 514 vline~;
#X msg 364 475 1 1;
#X msg 313 510 0 1;
#X obj 233 432 del 1;
#X obj 600 167 t b b b;
#X obj 540 497 spigot 1;
#X msg 658 367 0;
#X msg 554 398 1;
#X obj 554 369 del 10;
#X obj 157 802 _table_reader_pitch \$0-sample-l;
#X obj 197 29 inlet;
#X obj 197 54 route play auto open;
#X obj 242 85 - 1;
#X obj 242 110 abs;
#X obj 288 87 t b s;
#X obj 4 781 spigot 0;
#X obj 4 753 t b b f;
#X connect 0 0 23 0;
#X connect 1 0 24 0;
#X connect 2 0 3 0;
#X connect 3 0 9 0;
#X connect 4 0 5 0;
#X connect 4 0 18 0;
#X connect 5 0 7 0;
#X connect 6 0 7 1;
#X connect 7 0 63 0;
#X connect 7 0 40 0;
#X connect 9 0 37 1;
#X connect 9 1 53 0;
#X connect 10 0 4 1;
#X connect 13 0 11 0;
#X connect 14 0 12 0;
#X connect 15 0 13 1;
#X connect 15 0 14 1;
#X connect 15 0 70 0;
#X connect 16 0 21 0;
#X connect 18 0 19 0;
#X connect 19 0 47 0;
#X connect 20 0 23 1;
#X connect 20 0 46 1;
#X connect 21 0 36 0;
#X connect 21 1 38 0;
#X connect 21 2 2 0;
#X connect 21 3 1 0;
#X connect 21 4 22 0;
#X connect 21 5 20 0;
#X connect 22 0 41 0;
#X connect 23 0 3 1;
#X connect 23 0 5 1;
#X connect 23 0 6 1;
#X connect 24 0 32 0;
#X connect 25 0 58 0;
#X connect 26 0 46 0;
#X connect 26 1 10 0;
#X connect 26 2 56 0;
#X connect 26 3 57 0;
#X connect 27 0 44 0;
#X connect 28 0 43 0;
#X connect 32 0 0 0;
#X connect 33 0 63 1;
#X connect 33 0 40 1;
#X connect 34 0 33 0;
#X connect 35 0 37 0;
#X connect 36 0 35 0;
#X connect 37 0 53 0;
#X connect 38 0 33 0;
#X connect 39 0 35 0;
#X connect 40 0 28 0;
#X connect 41 0 24 1;
#X connect 42 0 45 1;
#X connect 42 0 50 0;
#X connect 42 0 69 1;
#X connect 43 0 14 0;
#X connect 44 0 13 0;
#X connect 45 0 56 0;
#X connect 46 0 6 0;
#X connect 46 0 52 0;
#X connect 47 0 59 0;
#X connect 47 1 49 0;
#X connect 48 0 17 0;
#X connect 48 1 51 0;
#X connect 49 0 48 0;
#X connect 50 0 49 1;
#X connect 51 0 26 0;
#X connect 51 1 29 0;
#X connect 52 0 8 0;
#X connect 53 0 4 0;
#X connect 54 0 28 1;
#X connect 54 0 27 1;
#X connect 55 0 54 0;
#X connect 56 0 54 0;
#X connect 57 0 55 0;
#X connect 58 0 62 0;
#X connect 58 1 51 0;
#X connect 58 2 60 0;
#X connect 59 0 45 0;
#X connect 60 0 59 1;
#X connect 61 0 59 1;
#X connect 62 0 61 0;
#X connect 63 0 27 0;
#X connect 64 0 65 0;
#X connect 65 0 15 0;
#X connect 65 1 66 0;
#X connect 65 2 68 0;
#X connect 66 0 67 0;
#X connect 67 0 42 0;
#X connect 68 0 1 0;
#X connect 68 1 41 0;
#X connect 69 0 56 0;
#X connect 70 0 69 0;
#X connect 70 1 53 0;
#X connect 70 2 53 1;
#X coords 0 -1 1 1 240 100 1 0 630;
