#N canvas 369 0 779 890 12;
#X obj 181 263 soundfiler;
#X obj 181 132 \$0;
#X obj 91 131 samplerate~;
#X obj 91 156 /;
#X obj 159 412 phasor~;
#X obj 159 438 *~;
#X obj 93 367 *~;
#X obj 159 463 +~;
#X floatatom 41 534 5 0 0 2 slice - - 0;
#X obj 91 181 t f f;
#X msg 88 275 0;
#X obj 159 801 outlet~;
#X obj 345 803 outlet~;
#X obj 158 777 *~;
#X obj 346 778 *~;
#X obj 6 521 tgl 32 0 empty empty empty 17 7 0 10 #fcfcfc #000000 #000000 0 1;
#X obj 56 63 loadbang;
#X obj 606 769 outlet;
#X obj 606 564 fexpr~ $x[0] < $x[-1];
#X obj 606 588 threshold~ 0.5 1 0.1 1;
#X obj 306 130 \$2;
#X obj 56 93 t b b b b b b;
#X obj 221 132 symbol \$1;
#X obj 181 288 / 4;
#X obj 181 207 pack f s;
#X obj 600 13 inlet;
#X obj 56 245 t b b b b;
#X obj 159 611 *~;
#X obj 345 613 *~;
#X obj 233 302 del 2;
#X msg 313 380 0 2;
#X msg 379 345 1 2;
#X obj 218 545 bng 15 250 50 0 empty empty empty 17 7 0 10 #fcfcfc #000000 #000000;
#X obj 632 173 table \$0-sample-r;
#X obj 632 198 table \$0-sample-l;
#X msg 181 235 read -resize \$2 \$1-sample-l \$1-sample-r;
#X obj 385 384 line~;
#X obj 9 579 hsl 128 15 0.25 4 1 1 empty empty pitch 134 7 0 10 #fcfcfc #000000 #000000 2793 1;
#X obj 193 62 inlet;
#X obj 9 560 hsl 128 15 0.25 4 1 1 empty empty speed 134 7 0 10 #fcfcfc #000000 #000000 8052 1;
#X msg 56 118 1;
#X obj 61 206 *;
#X msg 498 214 1;
#X obj 134 61 inlet;
#X obj 263 432 _table_reader_pitch \$0-sample-r;
#X obj 159 586 _table_reader_pitch \$0-sample-l;
#X obj 221 162 _make_path;
#X obj 108 519 tgl 20 0 empty empty play\ on\ bang 24 9 0 12 #fcfcfc #000000 #000000 0 1;
#X msg 546 237 1;
#X obj 345 753 *~ 1;
#X obj 158 750 *~ 1;
#X msg 438 631 0;
#X obj 438 656 spigot;
#X obj 606 613 t b b b;
#X obj 631 64 t b b;
#X obj 600 37 t b b;
#X obj 592 123 del 1 64 samp;
#X obj 56 324 glue/rand 4;
#X connect 0 0 23 0;
#X connect 1 0 24 0;
#X connect 2 0 3 0;
#X connect 3 0 9 0;
#X connect 4 0 5 0;
#X connect 4 0 18 0;
#X connect 5 0 7 0;
#X connect 6 0 7 1;
#X connect 7 0 44 0;
#X connect 7 0 45 0;
#X connect 9 0 41 1;
#X connect 9 1 4 0;
#X connect 10 0 4 1;
#X connect 13 0 11 0;
#X connect 14 0 12 0;
#X connect 15 0 13 1;
#X connect 15 0 14 1;
#X connect 16 0 21 0;
#X connect 18 0 19 0;
#X connect 19 0 32 0;
#X connect 19 0 53 0;
#X connect 20 0 23 1;
#X connect 20 0 57 1;
#X connect 21 0 40 0;
#X connect 21 1 42 0;
#X connect 21 2 2 0;
#X connect 21 3 1 0;
#X connect 21 4 22 0;
#X connect 21 5 20 0;
#X connect 22 0 46 0;
#X connect 23 0 3 1;
#X connect 23 0 5 1;
#X connect 23 0 6 1;
#X connect 24 0 35 0;
#X connect 25 0 55 0;
#X connect 26 0 57 0;
#X connect 26 1 10 0;
#X connect 26 2 30 0;
#X connect 26 3 29 0;
#X connect 27 0 50 0;
#X connect 28 0 49 0;
#X connect 29 0 31 0;
#X connect 30 0 36 0;
#X connect 31 0 36 0;
#X connect 35 0 0 0;
#X connect 36 0 28 1;
#X connect 36 0 27 1;
#X connect 37 0 44 1;
#X connect 37 0 45 1;
#X connect 38 0 37 0;
#X connect 39 0 41 0;
#X connect 40 0 39 0;
#X connect 41 0 4 0;
#X connect 42 0 37 0;
#X connect 43 0 39 0;
#X connect 44 0 28 0;
#X connect 45 0 27 0;
#X connect 46 0 24 1;
#X connect 47 0 52 1;
#X connect 48 0 49 1;
#X connect 48 0 50 1;
#X connect 49 0 14 0;
#X connect 50 0 13 0;
#X connect 51 0 52 0;
#X connect 52 0 49 1;
#X connect 52 0 50 1;
#X connect 53 1 51 0;
#X connect 53 1 54 0;
#X connect 53 2 17 0;
#X connect 54 0 26 0;
#X connect 54 1 10 0;
#X connect 55 0 56 0;
#X connect 55 1 54 0;
#X connect 56 0 48 0;
#X connect 57 0 6 0;
#X connect 57 0 8 0;
#X coords 0 -1 1 1 240 100 1 0 500;
