#N canvas 448 428 639 482 12;
#X obj 85 34 inlet;
#X obj 85 66 sel 0;
#X obj 155 104 \$1;
#X obj 185 104 \$2;
#X obj 215 104 \$3;
#X obj 245 104 \$4;
#X obj 156 32 loadbang;
#X obj 156 57 t b b b;
#X obj 72 247 pack f f f f;
#X obj 72 381 vline~;
#X obj 72 408 outlet~;
#X msg 72 272 1 \$2 \, \$4 \$3 \$2;
#X obj 277 26 inlet;
#X obj 327 26 inlet;
#X obj 377 26 inlet;
#X obj 427 26 inlet;
#X msg 273 247 stop \, 0 \$1;
#X connect 0 0 1 0;
#X connect 1 0 5 0;
#X connect 1 1 8 0;
#X connect 2 0 8 1;
#X connect 3 0 8 2;
#X connect 4 0 8 3;
#X connect 5 0 16 0;
#X connect 6 0 7 0;
#X connect 7 0 2 0;
#X connect 7 1 3 0;
#X connect 7 2 4 0;
#X connect 8 0 11 0;
#X connect 9 0 10 0;
#X connect 11 0 9 0;
#X connect 12 0 8 1;
#X connect 13 0 8 2;
#X connect 14 0 8 3;
#X connect 15 0 5 1;
#X connect 16 0 9 0;
