#N canvas 403 151 746 758 12;
#X obj 56 38 inlet;
#X obj 453 44 inlet;
#X obj 128 421 outlet;
#X obj 513 45 inlet;
#X obj 566 45 text define \$0-arpeggio;
#X obj 453 207 pack f f f;
#X obj 513 166 t f f;
#X obj 453 157 t f f;
#X obj 236 201 text search \$0-arpeggio;
#X obj 453 232 spigot;
#X obj 236 226 moses 0;
#X obj 282 257 text delete \$0-arpeggio;
#X obj 453 257 t l b;
#X obj 485 288 text size \$0-arpeggio;
#X obj 453 322 text insert \$0-arpeggio;
#X obj 453 132 poly 10 1;
#X obj 56 85 text size \$0-arpeggio;
#X obj 56 110 sel 0;
#X obj 88 141 t b f;
#X obj 88 329 text get \$0-arpeggio;
#X obj 88 354 unpack f f f;
#X obj 120 169 - 1;
#X obj 88 226 moses;
#X obj 97 261 + 1;
#X obj 88 295 t f f;
#X obj 128 388 pack f f;
#X obj 88 196 rand;
#X connect 0 0 16 0;
#X connect 1 0 15 0;
#X connect 3 0 15 1;
#X connect 5 0 9 0;
#X connect 6 0 5 2;
#X connect 6 1 9 1;
#X connect 7 0 5 0;
#X connect 7 1 8 0;
#X connect 8 0 10 0;
#X connect 9 0 12 0;
#X connect 10 1 11 0;
#X connect 12 0 14 0;
#X connect 12 1 13 0;
#X connect 13 0 14 1;
#X connect 15 0 7 0;
#X connect 15 1 5 1;
#X connect 15 2 6 0;
#X connect 16 0 17 0;
#X connect 17 1 18 0;
#X connect 18 0 26 0;
#X connect 18 1 21 0;
#X connect 19 0 20 0;
#X connect 20 1 25 0;
#X connect 20 2 25 1;
#X connect 21 0 26 1;
#X connect 22 0 24 0;
#X connect 22 1 23 0;
#X connect 23 0 24 0;
#X connect 24 0 19 0;
#X connect 24 1 22 1;
#X connect 25 0 2 0;
#X connect 26 0 22 0;
