#N canvas 915 114 755 536 12;
#X obj 108 108 f;
#X obj 150 109 + 1;
#X obj 314 395 f;
#X obj 422 293 * 1;
#X obj 440 331 +;
#X obj 401 264 + 1;
#X obj 414 359 / 1;
#X msg 107 226 0;
#X obj 54 264 spigot 1;
#X obj 314 325 spigot 0;
#X obj 245 82 t b b b;
#X msg 245 136 0;
#X msg 295 138 1;
#X msg 367 290 1;
#X obj 88 65 t b b f f;
#X msg 340 139 0;
#X obj 107 192 sel 0;
#X obj 401 224 t f f b;
#X obj 414 486 outlet;
#X obj 88 27 inlet;
#X obj 245 52 inlet;
#X connect 0 0 1 0;
#X connect 0 0 16 0;
#X connect 1 0 0 1;
#X connect 2 0 3 0;
#X connect 3 0 4 0;
#X connect 4 0 6 0;
#X connect 5 0 6 1;
#X connect 6 0 2 1;
#X connect 6 0 18 0;
#X connect 7 0 8 1;
#X connect 8 0 2 1;
#X connect 8 0 18 0;
#X connect 9 0 2 0;
#X connect 10 0 11 0;
#X connect 10 1 12 0;
#X connect 10 2 15 0;
#X connect 11 0 9 1;
#X connect 12 0 8 1;
#X connect 13 0 9 1;
#X connect 14 0 9 0;
#X connect 14 1 0 0;
#X connect 14 2 4 1;
#X connect 14 3 8 0;
#X connect 15 0 0 1;
#X connect 16 0 7 0;
#X connect 16 1 17 0;
#X connect 17 0 5 0;
#X connect 17 1 3 1;
#X connect 17 2 13 0;
#X connect 19 0 14 0;
#X connect 20 0 10 0;
