#N canvas 44 51 450 300 10;
#X obj 55 59 inlet;
#X obj 94 264 outlet;
#X obj 55 85 t b b b;
#X obj 94 226 spigot;
#X obj 127 203 tgl 15 1 empty empty empty 0 -6 0 10 -262144 -1 -1 1
1;
#X obj 55 121 del \$1;
#X msg 127 135 0;
#X msg 55 151 1;
#X connect 0 0 2 0;
#X connect 2 0 5 0;
#X connect 2 1 6 0;
#X connect 2 2 3 0;
#X connect 3 0 1 0;
#X connect 4 0 3 1;
#X connect 5 0 7 0;
#X connect 6 0 4 0;
#X connect 7 0 4 0;
