#N canvas 0 0 718 582 12;
#X obj 12 7 inlet;
#X obj 12 80 / 1000;
#X obj 12 130 exp;
#X obj 12 155 int;
#X obj 12 180 moses 1;
#X obj 53 251 moses 2;
#X obj 53 216 t f b;
#X obj 101 282 t f b;
#X obj 101 317 moses 3;
#X obj 154 353 t f b;
#X obj 154 388 moses 4;
#X obj 201 415 t b;
#X obj 32 501 outlet;
#X floatatom 160 174 5 0 0 0 - - - 0;
#X obj 207 174 tgl 20 0 empty empty empty 0 -10 0 12 #fcfcfc #000000 #000000 0 1;
#X obj 12 30 spigot;
#X obj 10 308 del 50;
#X obj 58 374 del 100;
#X obj 111 445 del 150;
#X obj 195 454 del 200;
#X obj 277 126 * 2;
#X obj 319 124 * 3;
#X obj 362 125 * 4;
#X obj 12 105 - 3;
#X obj 419 16 loadbang;
#X obj 407 62 \$1;
#X obj 407 87 sel 0;
#X obj 12 55 rand 4500;
#X connect 0 0 15 0;
#X connect 0 0 12 0;
#X connect 1 0 23 0;
#X connect 2 0 3 0;
#X connect 3 0 4 0;
#X connect 3 0 13 0;
#X connect 4 1 6 0;
#X connect 5 1 7 0;
#X connect 6 0 5 0;
#X connect 6 1 16 0;
#X connect 7 0 8 0;
#X connect 7 1 17 0;
#X connect 8 1 9 0;
#X connect 9 0 10 0;
#X connect 9 1 18 0;
#X connect 10 1 11 0;
#X connect 11 0 19 0;
#X connect 14 0 15 1;
#X connect 15 0 27 0;
#X connect 16 0 12 0;
#X connect 17 0 12 0;
#X connect 18 0 12 0;
#X connect 19 0 12 0;
#X connect 20 0 17 1;
#X connect 21 0 18 1;
#X connect 22 0 19 1;
#X connect 23 0 2 0;
#X connect 24 0 25 0;
#X connect 25 0 26 0;
#X connect 26 1 22 0;
#X connect 26 1 21 0;
#X connect 26 1 20 0;
#X connect 26 1 16 1;
#X connect 27 0 1 0;
#X coords 0 -1 1 1 85 60 1 150 135;
