#N canvas 970 324 450 446 12;
#X obj 167 171 metro 1;
#X obj 96 303 del;
#X obj 167 196 f;
#X obj 214 200 + 1;
#X obj 149 237 f;
#X obj 149 262 / 8;
#X obj 96 328 t b b;
#X obj 167 138 loadbang;
#X obj 60 77 t b b b b;
#X obj 52 177 spigot 1;
#X msg 60 102 0;
#X msg 127 136 0;
#X obj 310 105 \$1;
#X obj 60 9 inlet;
#X obj 258 7 inlet;
#X obj 100 408 outlet;
#X obj 310 73 loadbang;
#X obj 258 175 sel 0;
#X connect 0 0 2 0;
#X connect 1 0 6 0;
#X connect 2 0 3 0;
#X connect 2 0 4 1;
#X connect 3 0 2 1;
#X connect 4 0 5 0;
#X connect 5 0 1 1;
#X connect 6 0 15 0;
#X connect 6 1 1 0;
#X connect 7 0 0 0;
#X connect 8 0 10 0;
#X connect 8 1 9 0;
#X connect 8 2 11 0;
#X connect 8 3 4 0;
#X connect 9 0 1 0;
#X connect 10 0 9 1;
#X connect 11 0 2 0;
#X connect 12 0 17 0;
#X connect 13 0 8 0;
#X connect 14 0 17 0;
#X connect 16 0 12 0;
#X connect 17 1 5 1;
