#N canvas 44 51 757 565 10;
#X obj 157 32 inlet;
#X obj 211 31 inlet;
#X obj 287 34 inlet;
#X obj 196 101 \$1;
#X obj 223 281 / 100000;
#X obj 223 210 i;
#X obj 196 309 +;
#X obj 196 135 t f f;
#X obj 196 339 outlet;
#X obj 223 159 - \$2;
#X obj 223 233 t b f;
#X obj 223 257 random 0;
#X obj 223 185 * -100000;
#X obj 157 70 b;
#X connect 0 0 13 0;
#X connect 1 0 3 1;
#X connect 2 0 9 1;
#X connect 3 0 7 0;
#X connect 4 0 6 1;
#X connect 5 0 10 0;
#X connect 6 0 8 0;
#X connect 7 0 6 0;
#X connect 7 1 9 0;
#X connect 9 0 12 0;
#X connect 10 0 11 0;
#X connect 10 1 11 1;
#X connect 11 0 4 0;
#X connect 12 0 5 0;
#X connect 13 0 3 0;
