#N canvas 36 61 450 300 12;
#X obj 171 116 f;
#X obj 160 53 t f b f;
#X obj 171 141 -;
#X obj 171 166 * -1;
#X obj 171 191 t b f;
#X obj 171 216 f;
#X obj 202 216 +;
#X obj 171 241 outlet;
#X obj 156 15 inlet;
#X obj 363 26 inlet;
#X connect 0 0 2 0;
#X connect 1 0 0 1;
#X connect 1 1 0 0;
#X connect 1 2 2 1;
#X connect 2 0 3 0;
#X connect 3 0 4 0;
#X connect 4 0 5 0;
#X connect 4 1 6 1;
#X connect 5 0 6 0;
#X connect 5 0 7 0;
#X connect 6 0 5 1;
#X connect 8 0 1 0;
#X connect 9 0 5 1;
