#N canvas 1333 197 450 450 12;
#X obj 43 40 inlet;
#X obj 43 355 outlet;
#X obj 43 205 f;
#X obj 94 206 + 1;
#X msg 116 238 0;
#X obj 136 13 loadbang;
#X obj 115 130 \$1;
#X obj 115 155 sel 0;
#X msg 171 153 16;
#X obj 236 154 sel 0;
#X obj 236 129 \$2;
#X obj 43 271 expr ($f1 * $f2 % $f3) < $f2;
#X obj 232 25 inlet;
#X obj 299 27 inlet;
#X obj 385 24 inlet;
#X obj 43 239 moses 16;
#X obj 43 296 sel 1;
#X obj 136 38 t b b b b b;
#X obj 61 157 \$3;
#X obj 43 321 bng 20 250 50 0 empty empty empty 0 -10 0 12 #fcfcfc #000000 #000000;
#X msg 287 154 4;
#X connect 0 0 2 0;
#X connect 2 0 3 0;
#X connect 2 0 15 0;
#X connect 3 0 2 1;
#X connect 4 0 2 0;
#X connect 5 0 17 0;
#X connect 6 0 7 0;
#X connect 7 1 11 2;
#X connect 7 1 15 1;
#X connect 8 0 11 2;
#X connect 8 0 15 1;
#X connect 9 1 11 1;
#X connect 10 0 9 0;
#X connect 11 0 16 0;
#X connect 12 0 7 0;
#X connect 13 0 9 0;
#X connect 14 0 2 1;
#X connect 15 0 11 0;
#X connect 15 1 4 0;
#X connect 16 0 19 0;
#X connect 17 0 18 0;
#X connect 17 1 6 0;
#X connect 17 2 8 0;
#X connect 17 3 10 0;
#X connect 17 4 20 0;
#X connect 18 0 2 1;
#X connect 19 0 1 0;
#X connect 20 0 11 1;
