#N canvas 44 51 450 300 10;
#X obj 130 50 inlet;
#X obj 130 209 outlet;
#X obj 130 76 t f b;
#X obj 237 137 f;
#X obj 130 181 +;
#X obj 210 50 inlet;
#X obj 210 78 t f b;
#X msg 237 106 0;
#X connect 0 0 2 0;
#X connect 2 0 4 0;
#X connect 2 1 3 0;
#X connect 3 0 4 1;
#X connect 4 0 1 0;
#X connect 4 0 3 1;
#X connect 5 0 6 0;
#X connect 6 0 4 0;
#X connect 6 1 7 0;
#X connect 7 0 3 0;
