#N canvas 44 73 540 318 10;
#X obj 33 102 note-vel-filter;
#X obj 33 34 notein 7;
#X obj 33 189 print note;
#X obj 117 191 print vel;
#X obj 33 56 pack f f;
#X obj 33 156 unpack f f;
#X text 31 3 Filters a stream of MIDI data to only capture MIDI on
\, off and velocity.;
#X connect 0 0 5 0;
#X connect 1 0 4 0;
#X connect 1 1 4 1;
#X connect 4 0 0 0;
#X connect 5 0 2 0;
#X connect 5 1 3 0;
