#N canvas 502 266 321 485 10;
#X obj 25 144 stripnote;
#X obj 146 165 sel 0;
#X obj 146 232 sel;
#X msg 146 327 0;
#X obj 25 2 inlet;
#X obj 146 136 f;
#X obj 146 197 f;
#X obj 25 93 t f b f;
#X obj 132 85 t f f;
#X obj 25 166 t f f;
#X obj 25 322 f;
#X obj 114 259 t b b;
#X obj 25 24 unpack f f;
#X obj 25 373 pack f f;
#X obj 25 395 outlet;
#X connect 0 0 9 0;
#X connect 1 0 6 0;
#X connect 1 1 13 1;
#X connect 2 0 11 0;
#X connect 3 0 13 1;
#X connect 4 0 12 0;
#X connect 5 0 1 0;
#X connect 6 0 2 0;
#X connect 7 0 0 0;
#X connect 7 1 5 0;
#X connect 7 2 6 1;
#X connect 8 0 0 1;
#X connect 8 1 5 1;
#X connect 9 0 10 0;
#X connect 9 1 2 1;
#X connect 10 0 13 0;
#X connect 11 0 10 0;
#X connect 11 1 3 0;
#X connect 12 0 7 0;
#X connect 12 1 8 0;
#X connect 13 0 14 0;
