#N canvas 579 269 495 456 10;
#X declare -stdlib zexy;
#X obj 45 30 inlet;
#X obj 84 30 inlet;
#X obj 45 297 random;
#X obj 45 319 outlet;
#X msg 163 270 seed \$1;
#X obj 191 87 \$1;
#X obj 270 140 * 307;
#X obj 270 162 +;
#X obj 226 185 +;
#X obj 226 163 * 2099;
#X obj 163 219 +;
#X obj 163 190 * 6217;
#X obj 191 35 loadbang;
#X obj 243 361 declare -stdlib zexy;
#X obj 224 100 time -------;
#X obj 163 242 +;
#X obj 191 63 t b b b;
#X obj 375 109 random 1000;
#X connect 0 0 2 0;
#X connect 1 0 2 1;
#X connect 2 0 3 0;
#X connect 4 0 2 0;
#X connect 5 0 2 1;
#X connect 6 0 7 0;
#X connect 7 0 8 1;
#X connect 8 0 10 1;
#X connect 9 0 8 0;
#X connect 10 0 15 0;
#X connect 11 0 10 0;
#X connect 12 0 16 0;
#X connect 14 0 11 0;
#X connect 14 1 9 0;
#X connect 14 2 6 0;
#X connect 14 3 7 1;
#X connect 15 0 4 0;
#X connect 16 0 5 0;
#X connect 16 1 14 0;
#X connect 16 2 17 0;
#X connect 17 0 15 1;
