#N canvas 44 73 540 318 10;
#X obj 93 123 rec_play_switch;
#X obj 94 179 print;
#X obj 86 74 bng 15 250 50 0 empty empty empty 17 7 0 10 -262144 -1
-1;
#X obj 166 84 bng 15 250 50 0 empty empty empty 17 7 0 10 -262144 -1
-1;
#X connect 0 0 1 0;
#X connect 2 0 0 0;
#X connect 3 0 0 1;
