#N canvas 44 51 450 454 10;
#X msg -55 118 rec start;
#X msg 13 121 rec stop;
#X msg 81 123 play start;
#X msg 175 123 play stop;
#X obj 24 -62 inlet;
#X obj 63 -62 inlet;
#X obj 42 231 outlet;
#X obj 24 52 switch-bang;
#X obj 63 53 switch-bang;
#X obj 24 7 route bang;
#X connect 0 0 6 0;
#X connect 1 0 6 0;
#X connect 2 0 6 0;
#X connect 3 0 6 0;
#X connect 4 0 9 0;
#X connect 5 0 8 0;
#X connect 7 0 0 0;
#X connect 7 1 1 0;
#X connect 8 0 2 0;
#X connect 8 1 3 0;
#X connect 9 0 7 0;
#X connect 9 1 6 0;
#X coords 0 -1 1 1 76 40 2 23 50;
