#N canvas 44 51 450 454 10;
#X msg -55 118 rec start;
#X msg 13 121 rec stop;
#X msg 222 122 play stop;
#X obj 24 -62 inlet;
#X obj 63 -62 inlet;
#X obj 42 231 outlet;
#X obj 24 52 switch-bang;
#X obj 63 53 switch-bang #00ff00;
#X msg 52 18 1;
#X msg 113 25 0;
#X obj 24 -23 route bang 1 0;
#X msg 93 145 play start;
#X obj 93 122 t b b;
#X connect 0 0 5 0;
#X connect 1 0 5 0;
#X connect 2 0 5 0;
#X connect 3 0 10 0;
#X connect 4 0 7 0;
#X connect 6 0 0 0;
#X connect 6 1 1 0;
#X connect 7 0 12 0;
#X connect 7 1 2 0;
#X connect 8 0 6 0;
#X connect 9 0 6 0;
#X connect 10 0 6 0;
#X connect 10 1 8 0;
#X connect 10 2 9 0;
#X connect 10 3 5 0;
#X connect 11 0 5 0;
#X connect 12 0 11 0;
#X connect 12 1 9 0;
#X coords 0 -1 1 1 76 40 2 23 50;
