#N canvas 448 428 450 300 12;
#X obj 85 34 inlet;
#X obj 85 59 int;
#X obj 85 84 t f f;
#X obj 124 115 wrap 0 12;
#X obj 85 223 spigot;
#X obj 85 248 outlet;
#X msg 124 190 1;
#X msg 223 186 0;
#X obj 124 140 sel 0 3 4 6 7 11;
#X connect 0 0 1 0;
#X connect 1 0 2 0;
#X connect 2 0 4 0;
#X connect 2 1 3 0;
#X connect 3 0 8 0;
#X connect 4 0 5 0;
#X connect 6 0 4 1;
#X connect 7 0 4 1;
#X connect 8 0 6 0;
#X connect 8 1 6 0;
#X connect 8 2 6 0;
#X connect 8 3 6 0;
#X connect 8 4 6 0;
#X connect 8 5 6 0;
#X connect 8 6 7 0;
