#N canvas 492 106 426 496 10;
#X obj -6 -6 inlet;
#X obj -13 385 outlet;
#X obj -5 123 hradio 30 1 0 7 empty empty empty 0 -8 0 5 -262144 -1
-1 0;
#X obj 319 4 inlet;
#X obj -13 342 spigot;
#X obj 20 315 tgl 15 1 empty empty empty 17 7 0 10 -262144 -1 -1 1
1;
#X obj 43 384 outlet;
#X obj 43 341 spigot;
#X obj 76 314 tgl 15 0 empty empty empty 17 7 0 10 -262144 -1 -1 0
1;
#X obj 94 385 outlet;
#X obj 94 342 spigot;
#X obj 127 315 tgl 15 0 empty empty empty 17 7 0 10 -262144 -1 -1 0
1;
#X obj 142 385 outlet;
#X obj 142 342 spigot;
#X obj 175 315 tgl 15 0 empty empty empty 17 7 0 10 -262144 -1 -1 0
1;
#X obj 194 386 outlet;
#X obj 194 343 spigot;
#X obj 227 316 tgl 15 0 empty empty empty 17 7 0 10 -262144 -1 -1 0
1;
#X obj 245 385 outlet;
#X obj 245 342 spigot;
#X obj 278 315 tgl 15 0 empty empty empty 17 7 0 10 -262144 -1 -1 0
1;
#X obj 30 28 + 1;
#X msg 61 63 0;
#X obj -6 29 1;
#X obj -5 62 moses 7;
#X obj -6 178 expr if($f1==0 \, 1 \, 0) \; if($f1==1 \, 1 \, 0) \;
if($f1==2 \, 1 \, 0) \; if($f1==3 \, 1 \, 0) \; if($f1==4 \, 1 \, 0)
\; if($f1==5 \, 1 \, 0) \; if($f1==6 \, 1 \, 0);
#X obj 311 386 outlet;
#X obj 311 343 spigot;
#X obj 344 316 tgl 15 0 empty empty empty 17 7 0 10 -262144 -1 -1 0
1;
#X connect 0 0 23 0;
#X connect 2 0 25 0;
#X connect 3 0 4 0;
#X connect 3 0 7 0;
#X connect 3 0 10 0;
#X connect 3 0 13 0;
#X connect 3 0 16 0;
#X connect 3 0 19 0;
#X connect 3 0 27 0;
#X connect 4 0 1 0;
#X connect 5 0 4 1;
#X connect 7 0 6 0;
#X connect 8 0 7 1;
#X connect 10 0 9 0;
#X connect 11 0 10 1;
#X connect 13 0 12 0;
#X connect 14 0 13 1;
#X connect 16 0 15 0;
#X connect 17 0 16 1;
#X connect 19 0 18 0;
#X connect 20 0 19 1;
#X connect 21 0 23 1;
#X connect 22 0 23 0;
#X connect 23 0 21 0;
#X connect 23 0 24 0;
#X connect 24 0 2 0;
#X connect 24 1 22 0;
#X connect 25 0 5 0;
#X connect 25 1 8 0;
#X connect 25 2 11 0;
#X connect 25 3 14 0;
#X connect 25 4 17 0;
#X connect 25 5 20 0;
#X connect 25 6 28 0;
#X connect 27 0 26 0;
#X connect 28 0 27 1;
#X coords 0 -1 1 1 215 35 2 -8 120;
