#N canvas 448 106 795 665 10;
#X obj 13 14 inlet;
#X obj 7 615 outlet;
#X obj 13 212 hradio 30 1 0 10 empty empty empty 0 -8 0 5 #fcfcfc #000000 #000000 0;
#X obj 661 9 inlet;
#X obj 7 572 spigot;
#X obj 40 545 tgl 15 1 empty empty empty 17 7 0 10 #fcfcfc #000000 #000000 1 1;
#X obj 63 614 outlet;
#X obj 63 571 spigot;
#X obj 96 544 tgl 15 0 empty empty empty 17 7 0 10 #fcfcfc #000000 #000000 0 1;
#X obj 114 615 outlet;
#X obj 114 572 spigot;
#X obj 147 545 tgl 15 0 empty empty empty 17 7 0 10 #fcfcfc #000000 #000000 0 1;
#X obj 162 615 outlet;
#X obj 162 572 spigot;
#X obj 195 545 tgl 15 0 empty empty empty 17 7 0 10 #fcfcfc #000000 #000000 0 1;
#X obj 214 616 outlet;
#X obj 214 573 spigot;
#X obj 247 546 tgl 15 0 empty empty empty 17 7 0 10 #fcfcfc #000000 #000000 0 1;
#X obj 265 615 outlet;
#X obj 265 572 spigot;
#X obj 298 545 tgl 15 0 empty empty empty 17 7 0 10 #fcfcfc #000000 #000000 0 1;
#X obj 45 137 + 1;
#X msg 79 166 0;
#X obj 13 139 1;
#X obj 331 616 outlet;
#X obj 331 573 spigot;
#X obj 364 546 tgl 15 0 empty empty empty 17 7 0 10 #fcfcfc #000000 #000000 0 1;
#X obj 403 615 outlet;
#X obj 403 572 spigot;
#X obj 436 545 tgl 15 0 empty empty empty 17 7 0 10 #fcfcfc #000000 #000000 0 1;
#X obj 463 615 outlet;
#X obj 463 572 spigot;
#X obj 496 545 tgl 15 0 empty empty empty 17 7 0 10 #fcfcfc #000000 #000000 0 1;
#X obj 523 615 outlet;
#X obj 523 572 spigot;
#X obj 556 545 tgl 15 0 empty empty empty 17 7 0 10 #fcfcfc #000000 #000000 0 1;
#X obj 13 328 expr if($f1==0 \, 1 \, 0) \; if($f1==1 \, 1 \, 0) \; if($f1==2 \, 1 \, 0) \; if($f1==3 \, 1 \, 0) \; if($f1==4 \, 1 \, 0) \; if($f1==5 \, 1 \, 0) \; if($f1==6 \, 1 \, 0) \; if($f1==7 \, 1 \, 0) \; if($f1==8 \, 1 \, 0) \; if($f1==9 \, 1 \, 0) \;, f 97;
#X obj 13 162 moses 10;
#X obj 155 29 \$1;
#X obj 155 52 sel 0;
#X obj 155 7 loadbang;
#X obj 182 81 t f f f b;
#X obj 261 112 \$0;
#X obj 261 135 makefilename %d-r;
#X obj 65 77 namecanvas \$0-r;
#X obj 216 156 pack f s;
#X obj 216 110 * 30;
#X obj 216 133 + 2;
#X msg 129 171 number \$1;
#X msg 216 179 \; \$2 coords 0 -1 1 1 \$1 48 1 12 195;
#X connect 0 0 23 0;
#X connect 2 0 36 0;
#X connect 2 0 21 0;
#X connect 3 0 4 0;
#X connect 3 0 7 0;
#X connect 3 0 10 0;
#X connect 3 0 13 0;
#X connect 3 0 16 0;
#X connect 3 0 19 0;
#X connect 3 0 25 0;
#X connect 3 0 28 0;
#X connect 3 0 31 0;
#X connect 3 0 34 0;
#X connect 4 0 1 0;
#X connect 5 0 4 1;
#X connect 7 0 6 0;
#X connect 8 0 7 1;
#X connect 10 0 9 0;
#X connect 11 0 10 1;
#X connect 13 0 12 0;
#X connect 14 0 13 1;
#X connect 16 0 15 0;
#X connect 17 0 16 1;
#X connect 19 0 18 0;
#X connect 20 0 19 1;
#X connect 21 0 23 1;
#X connect 22 0 23 0;
#X connect 23 0 37 0;
#X connect 25 0 24 0;
#X connect 26 0 25 1;
#X connect 28 0 27 0;
#X connect 29 0 28 1;
#X connect 31 0 30 0;
#X connect 32 0 31 1;
#X connect 34 0 33 0;
#X connect 35 0 34 1;
#X connect 36 0 5 0;
#X connect 36 1 8 0;
#X connect 36 2 11 0;
#X connect 36 3 14 0;
#X connect 36 4 17 0;
#X connect 36 5 20 0;
#X connect 36 6 26 0;
#X connect 36 7 29 0;
#X connect 36 8 32 0;
#X connect 36 9 35 0;
#X connect 37 0 2 0;
#X connect 37 1 22 0;
#X connect 38 0 39 0;
#X connect 39 1 41 0;
#X connect 40 0 38 0;
#X connect 41 0 37 1;
#X connect 41 1 48 0;
#X connect 41 2 46 0;
#X connect 41 3 42 0;
#X connect 42 0 43 0;
#X connect 43 0 45 1;
#X connect 45 0 49 0;
#X connect 46 0 47 0;
#X connect 47 0 45 0;
#X connect 48 0 2 0;
#X coords 0 -1 1 1 302 48 1 12 195;
