#N canvas 181 323 331 300 10;
#X obj 15 11 inlet;
#X obj 15 146 outlet;
#X obj 61 147 outlet;
#X obj 15 59 tgl 30 0 empty empty empty 0 -6 0 10 #ffffff #000000 #000000 0 1;
#X obj 15 114 sel 1 0;
#X obj 239 21 loadbang;
#X obj 239 44 symbol \$1;
#X obj 239 67 list fromsymbol;
#X obj 239 90 route list;
#X obj 239 113 list tosymbol;
#X obj 158 155 symbol #ff0000;
#X msg 162 207 color #ffffff;
#X msg 158 178 color \$1;
#X connect 0 0 3 0;
#X connect 3 0 4 0;
#X connect 4 0 1 0;
#X connect 4 0 10 0;
#X connect 4 1 2 0;
#X connect 4 1 11 0;
#X connect 5 0 6 0;
#X connect 6 0 7 0;
#X connect 7 0 8 0;
#X connect 8 0 9 0;
#X connect 9 0 10 1;
#X connect 10 0 12 0;
#X connect 11 0 3 0;
#X connect 12 0 3 0;
#X coords 0 -1 1 1 34 34 2 13 57;
