#N canvas 44 73 540 318 10;
#X obj 92 135 switch-bang;
#X obj 92 210 bng 15 250 50 0 empty empty empty 17 7 0 10 -262144 -1
-1;
#X obj 152 197 bng 15 250 50 0 empty empty empty 17 7 0 10 -262144
-1 -1;
#X obj 92 74 bng 15 250 50 0 empty empty empty 17 7 0 10 -262144 -1
-1;
#X text 62 20 Routes bangs to left and right outlet alternatively.
;
#X connect 0 0 1 0;
#X connect 0 1 2 0;
#X connect 3 0 0 0;
