#N canvas 44 73 540 318 10;
#X obj 92 74 bng 15 250 50 0 empty empty empty 17 7 0 10 -262144 -1
-1;
#X obj 92 124 switch-spigot;
#X obj 92 179 print left;
#X obj 180 187 print right;
#X text 62 20 Outputs 1 and 0 from right and left alternatively.. Can
be used from the inlet or from the GUI element.;
#X connect 0 0 1 0;
#X connect 1 0 2 0;
#X connect 1 1 3 0;
