#N canvas 73 188 1290 707 10;
#X obj 26 57 loadbang;
#X obj 95 133 \$0;
#X obj 26 105 \$1;
#X obj 119 68 bng 15 250 50 0 empty empty empty 17 7 0 10 -262144 -1
-1;
#X obj 97 41 namecanvas \$0-r;
#N canvas 656 285 450 300 generate 0;
#X obj 12 25 inlet;
#X obj 65 25 inlet;
#X obj 65 59 makefilename %d-r;
#X obj 12 88 pack f s;
#N canvas 913 495 450 300 resize 0;
#X obj 26 23 inlet;
#X obj 26 106 + 10;
#X obj 26 56 unpack f s;
#X obj 138 30 inlet;
#X obj 138 61 + 5;
#X obj 26 131 pack f s;
#X obj 26 84 *;
#X msg 26 157 \; \$2 coords 0 -1 1 1 \$1 \$1 2 380 30;
#X connect 0 0 2 0;
#X connect 1 0 5 0;
#X connect 2 0 6 0;
#X connect 2 1 5 1;
#X connect 3 0 4 0;
#X connect 4 0 6 1;
#X connect 5 0 7 0;
#X connect 6 0 1 0;
#X restore 150 171 pd resize;
#N canvas 544 163 819 707 obj 0;
#X obj 197 93 inlet;
#X obj 197 113 unpack f s;
#N canvas 913 78 450 707 pairing 0;
#X obj 62 69 inlet;
#X obj 112 593 outlet;
#X obj 112 567 pack f f f;
#X obj 36 115 unpack f s;
#X obj 36 147 t b f;
#X obj 174 291 f;
#X obj 36 178 f;
#X obj 174 344 until;
#X obj 174 374 f;
#X obj 202 374 + 1;
#X obj 215 344 0;
#X obj 36 236 until;
#X obj 36 266 f;
#X obj 64 266 + 1;
#X obj 77 236 0;
#X obj 110 500 f;
#X obj 374 572 !=;
#X obj 174 314 t f b;
#X obj 36 206 t f b;
#X obj 36 296 t b f f;
#X obj 161 403 t b f f;
#X connect 0 0 3 0;
#X connect 2 0 1 0;
#X connect 3 0 4 0;
#X connect 4 0 6 0;
#X connect 4 1 6 1;
#X connect 4 1 5 1;
#X connect 5 0 17 0;
#X connect 6 0 18 0;
#X connect 7 0 8 0;
#X connect 8 0 9 0;
#X connect 8 0 20 0;
#X connect 9 0 8 1;
#X connect 10 0 8 1;
#X connect 11 0 12 0;
#X connect 12 0 13 0;
#X connect 12 0 19 0;
#X connect 13 0 12 1;
#X connect 14 0 12 1;
#X connect 15 0 2 0;
#X connect 16 0 2 2;
#X connect 17 0 7 0;
#X connect 17 1 10 0;
#X connect 18 0 11 0;
#X connect 18 1 14 0;
#X connect 19 0 5 0;
#X connect 19 1 15 1;
#X connect 19 2 16 1;
#X connect 20 0 15 0;
#X connect 20 1 2 1;
#X connect 20 2 16 0;
#X restore 270 269 pd pairing;
#N canvas 866 488 497 300 tgl 0;
#X obj 72 8 inlet;
#X obj 210 25 inlet;
#X obj 108 210 spigot;
#X obj 72 71 unpack f f f;
#X obj 108 180 pack f f s f;
#X obj 307 23 inlet;
#X msg 108 236 \; \$3 obj \$1 \$2 tgl \$4 0 empty empty empty 17 7
0 10 -262144 -1 -1 0;
#X obj 224 69 + 5;
#X obj 112 112 *;
#X obj 72 110 *;
#X obj 72 135 + 387;
#X obj 112 137 + 37;
#X connect 0 0 3 0;
#X connect 1 0 4 2;
#X connect 2 0 6 0;
#X connect 3 0 9 0;
#X connect 3 1 8 0;
#X connect 3 2 2 1;
#X connect 4 0 2 0;
#X connect 5 0 4 3;
#X connect 5 0 7 0;
#X connect 7 0 9 1;
#X connect 7 0 8 1;
#X connect 8 0 11 0;
#X connect 9 0 10 0;
#X connect 10 0 4 0;
#X connect 11 0 4 1;
#X restore 358 331 pd tgl;
#N canvas 866 405 497 385 spigots 0;
#X obj 82 18 inlet;
#X obj 220 35 inlet;
#X obj 118 190 pack f f s;
#X obj 118 220 spigot;
#X obj 82 81 unpack f f f;
#X msg 118 246 \; \$3 obj \$1 \$2 spigot;
#X obj 82 145 + 1000;
#X obj 122 147 + 1000;
#X obj 82 120 * 10;
#X obj 122 122 * 5;
#X connect 0 0 4 0;
#X connect 1 0 2 2;
#X connect 2 0 3 0;
#X connect 3 0 5 0;
#X connect 4 0 8 0;
#X connect 4 1 9 0;
#X connect 4 2 3 1;
#X connect 6 0 2 0;
#X connect 7 0 2 1;
#X connect 8 0 6 0;
#X connect 9 0 7 0;
#X restore 270 330 pd spigots;
#N canvas 728 211 450 579 tgl-spigot 0;
#X obj 9 65 inlet;
#X obj 162 66 inlet;
#X obj 32 378 pack f f s;
#X obj 32 146 *;
#X obj 32 173 -;
#X text 31 97 toggles;
#X obj 32 236 until;
#X obj 32 266 f;
#X obj 73 236 0;
#X obj 32 206 t f b f;
#X obj 32 318 t f f;
#X msg 32 413 \; \$3 connect \$1 0 \$2 1;
#X obj 60 266 + 2;
#X obj 65 345 + 1;
#X obj 32 119 t f f f;
#X obj 32 288 + 42;
#X connect 0 0 14 0;
#X connect 1 0 2 2;
#X connect 2 0 11 0;
#X connect 3 0 4 0;
#X connect 4 0 9 0;
#X connect 6 0 7 0;
#X connect 7 0 12 0;
#X connect 7 0 15 0;
#X connect 8 0 7 1;
#X connect 9 0 6 0;
#X connect 9 1 8 0;
#X connect 10 0 2 0;
#X connect 10 1 13 0;
#X connect 12 0 7 1;
#X connect 13 0 2 1;
#X connect 14 0 3 0;
#X connect 14 1 3 1;
#X connect 14 2 4 1;
#X connect 15 0 10 0;
#X restore 237 360 pd tgl-spigot;
#N canvas 813 113 497 691 inlet-spigot-outlet 0;
#X obj 14 8 inlet;
#X obj 360 15 inlet;
#X obj -15 438 * 2;
#X obj 19 439 * 2;
#X obj 14 58 until;
#X obj 73 123 f;
#X obj 14 78 t b b;
#X obj 73 145 t f b;
#X obj 73 168 until;
#X obj 0 144 f;
#X obj 30 144 + 1;
#X msg 31 121 0;
#X obj 73 188 f;
#X obj 103 188 + 1;
#X msg 118 168 0;
#X obj 0 187 *;
#X obj -15 294 +;
#X obj 0 166 t f f f;
#X obj 92 239 sel;
#X msg 92 470 0;
#X obj -9 530 spigot;
#X obj 92 260 t b b;
#X obj 14 34 t f b f f b;
#X obj 157 304 f;
#X msg 157 279 0;
#X obj 188 304 + 1;
#X obj -15 415 -;
#X msg 123 470 1;
#X obj 73 217 t f f f;
#X obj -9 493 pack f f f s;
#X msg -9 557 \; \$4 connect \$2 0 \$1 0 \, connect \$1 0 \$3 0;
#X obj 46 438 * 2;
#X obj -15 459 + 43;
#X obj 19 460 + 12;
#X obj 46 458 + 13;
#X connect 0 0 22 0;
#X connect 1 0 29 3;
#X connect 2 0 32 0;
#X connect 3 0 33 0;
#X connect 4 0 6 0;
#X connect 5 0 7 0;
#X connect 6 0 5 0;
#X connect 6 1 9 0;
#X connect 7 0 8 0;
#X connect 7 1 14 0;
#X connect 8 0 12 0;
#X connect 9 0 10 0;
#X connect 9 0 17 0;
#X connect 10 0 9 1;
#X connect 11 0 9 1;
#X connect 12 0 13 0;
#X connect 12 0 28 0;
#X connect 13 0 12 1;
#X connect 14 0 12 1;
#X connect 15 0 16 1;
#X connect 16 0 26 0;
#X connect 17 0 15 0;
#X connect 17 1 3 0;
#X connect 17 2 18 1;
#X connect 18 0 21 0;
#X connect 18 1 27 0;
#X connect 19 0 20 1;
#X connect 20 0 30 0;
#X connect 21 0 19 0;
#X connect 21 1 23 0;
#X connect 22 0 4 0;
#X connect 22 1 11 0;
#X connect 22 2 5 1;
#X connect 22 3 15 1;
#X connect 22 4 24 0;
#X connect 23 0 25 0;
#X connect 23 0 26 1;
#X connect 24 0 23 0;
#X connect 25 0 23 1;
#X connect 26 0 2 0;
#X connect 27 0 20 1;
#X connect 28 0 16 0;
#X connect 28 1 18 0;
#X connect 28 2 31 0;
#X connect 29 0 20 0;
#X connect 31 0 34 0;
#X connect 32 0 29 0;
#X connect 33 0 29 1;
#X connect 34 0 29 2;
#X restore 217 382 pd inlet-spigot-outlet;
#X obj 270 296 t a a;
#X obj 197 221 t f f f f;
#X obj 593 105 inlet;
#N canvas 538 384 672 367 delete-in-outlets 0;
#X obj 335 9 inlet;
#X obj 460 3 inlet;
#X obj 355 122 until;
#X obj 167 123 symbol;
#X msg 355 76 15;
#X obj 355 100 -;
#X msg 167 149 \; \$1 dirty 0 \, menuclose 1;
#X obj 136 259 canvasdelete;
#X obj 335 37 t b b f f;
#X obj 355 172 pack f s;
#X obj 400 99 * 2;
#X obj 400 121 + 12;
#X msg 355 219 \; \$2 delete \$1;
#X obj 355 150 f;
#X obj 355 195 t a a;
#X connect 0 0 8 0;
#X connect 1 0 3 1;
#X connect 1 0 9 1;
#X connect 2 0 13 0;
#X connect 3 0 6 0;
#X connect 4 0 5 0;
#X connect 5 0 2 0;
#X connect 8 0 3 0;
#X connect 8 1 4 0;
#X connect 8 2 5 1;
#X connect 8 3 10 0;
#X connect 9 0 14 0;
#X connect 10 0 11 0;
#X connect 11 0 13 1;
#X connect 13 0 9 0;
#X connect 14 0 12 0;
#X connect 14 1 12 0;
#X restore 197 406 pd delete-in-outlets;
#X connect 0 0 1 0;
#X connect 1 0 8 0;
#X connect 1 1 3 1;
#X connect 1 1 4 1;
#X connect 1 1 5 1;
#X connect 1 1 6 1;
#X connect 1 1 10 1;
#X connect 2 0 7 0;
#X connect 7 0 4 0;
#X connect 7 1 3 0;
#X connect 8 0 10 0;
#X connect 8 1 6 0;
#X connect 8 2 5 0;
#X connect 8 3 2 0;
#X connect 9 0 3 2;
#X restore 12 166 pd obj;
#X obj 12 127 t a a;
#X obj 223 24 inlet;
#X connect 0 0 3 0;
#X connect 1 0 2 0;
#X connect 2 0 3 1;
#X connect 3 0 6 0;
#X connect 6 0 5 0;
#X connect 6 1 4 0;
#X connect 7 0 4 1;
#X connect 7 0 5 1;
#X restore 58 214 pd generate;
#X obj 26 129 sel 0;
#X msg 26 152 4;
#X obj 132 129 sel 0;
#X obj 26 81 t b b b;
#X msg 132 152 15;
#X obj 132 105 \$2;
#X obj 37 306 inlet;
#X obj 76 306 outlet;
#X obj 47 326 inlet;
#X obj 86 326 outlet;
#X obj 57 346 inlet;
#X obj 96 346 outlet;
#X obj 67 366 inlet;
#X obj 106 366 outlet;
#X obj 77 386 inlet;
#X obj 116 386 outlet;
#X obj 87 406 inlet;
#X obj 126 406 outlet;
#X obj 97 426 inlet;
#X obj 136 426 outlet;
#X obj 107 446 inlet;
#X obj 146 446 outlet;
#X obj 117 466 inlet;
#X obj 156 466 outlet;
#X obj 127 486 inlet;
#X obj 166 486 outlet;
#X obj 137 506 inlet;
#X obj 176 506 outlet;
#X obj 147 526 inlet;
#X obj 186 526 outlet;
#X obj 157 546 inlet;
#X obj 196 546 outlet;
#X obj 167 566 inlet;
#X obj 206 566 outlet;
#X obj 177 586 inlet;
#X obj 216 586 outlet;
#X connect 0 0 9 0;
#X connect 1 0 5 1;
#X connect 2 0 6 0;
#X connect 3 0 9 0;
#X connect 6 0 7 0;
#X connect 6 1 5 0;
#X connect 7 0 5 0;
#X connect 8 0 10 0;
#X connect 8 1 5 2;
#X connect 9 0 2 0;
#X connect 9 1 1 0;
#X connect 9 2 11 0;
#X connect 10 0 5 2;
#X connect 11 0 8 0;
#X coords 0 -1 1 1 110 110 2 380 30;
