#N canvas 44 51 450 300 10;
#X obj 129 69 inlet;
#X obj 129 200 outlet;
#X obj 129 139 s2l;
#X obj 197 79 loadbang;
#X msg 197 106 symbol;
#X obj 129 168 list length;
#X obj 129 106 l2s;
#X connect 0 0 6 0;
#X connect 2 0 5 0;
#X connect 3 0 4 0;
#X connect 4 0 2 1;
#X connect 5 0 1 0;
#X connect 6 0 2 0;
