#N canvas 44 51 450 300 10;
#X declare -lib list-abs -lib zexy;
#X obj 129 69 inlet;
#X obj 129 200 outlet;
#X obj 129 139 s2l;
#X obj 276 231 import list-abs zexy;
#X obj 197 79 loadbang;
#X msg 197 106 symbol;
#X obj 129 168 list length;
#X obj 129 106 l2s;
#X connect 0 0 7 0;
#X connect 2 0 6 0;
#X connect 4 0 5 0;
#X connect 5 0 2 1;
#X connect 6 0 1 0;
#X connect 7 0 2 0;
