#N canvas 280 73 450 399 10;
#X obj 129 206 metro 1;
#X obj 129 241 f;
#X obj 167 240 + 1;
#X obj 114 274 f;
#X msg 190 204 0;
#X obj 190 139 t b b;
#X obj 190 93 bng 30 250 50 0 empty empty empty 17 7 0 10 -262144 -1
-1;
#X obj 129 139 t b b;
#X obj 129 93 bng 30 250 50 0 empty empty empty 17 7 0 10 -262144 -1
-1;
#X msg 217 162 stop;
#X obj 114 330 outlet;
#X obj 114 303 expr 1000/$f1;
#X obj 129 42 inlet;
#X obj 190 40 inlet;
#X connect 0 0 1 0;
#X connect 1 0 2 0;
#X connect 1 0 3 1;
#X connect 2 0 1 1;
#X connect 3 0 11 0;
#X connect 4 0 1 0;
#X connect 5 0 3 0;
#X connect 5 1 9 0;
#X connect 6 0 5 0;
#X connect 7 0 0 0;
#X connect 7 1 4 0;
#X connect 8 0 7 0;
#X connect 9 0 0 0;
#X connect 11 0 10 0;
#X connect 12 0 8 0;
#X connect 13 0 6 0;
#X coords 0 -1 1 1 120 50 1 120 78;
