#N canvas 0 0 237 430 10;
#X obj 44 43 t f f f;
#X obj 18 74 - 1;
#X obj 18 100 abs;
#X obj 38 131 sel 0;
#X obj 68 164 f;
#X obj 44 9 inlet;
#X obj 68 199 outlet;
#X connect 0 0 1 0;
#X connect 0 1 3 0;
#X connect 0 2 4 1;
#X connect 1 0 2 0;
#X connect 2 0 3 1;
#X connect 3 0 4 0;
#X connect 4 0 6 0;
#X connect 5 0 0 0;
