#N canvas 499 364 860 394 10;
#X obj 201 100 -;
#X msg 155 50 0;
#X obj 155 28 route bang float;
#X obj 201 278 +;
#X floatatom 201 122 5 0 0 0 - - -;
#X obj 201 320 t f f;
#X obj 288 337 t f f;
#X obj 201 206 wrap;
#X obj 296 5 loadbang;
#X obj 323 47 \$1;
#X obj 296 48 \$2;
#X obj 308 119 -;
#X obj 296 26 t b b;
#X obj 201 160 -;
#X obj 201 184 /;
#X obj 201 228 *;
#X obj 201 256 +;
#X obj 155 6 inlet;
#X obj 201 361 outlet;
#X connect 0 0 4 0;
#X connect 1 0 6 0;
#X connect 2 0 1 0;
#X connect 2 1 0 0;
#X connect 3 0 5 0;
#X connect 4 0 13 0;
#X connect 5 0 18 0;
#X connect 5 1 6 0;
#X connect 6 0 3 1;
#X connect 6 1 0 1;
#X connect 7 0 15 0;
#X connect 8 0 12 0;
#X connect 9 0 11 1;
#X connect 9 0 16 1;
#X connect 9 0 13 1;
#X connect 10 0 11 0;
#X connect 11 0 14 1;
#X connect 11 0 15 1;
#X connect 12 0 10 0;
#X connect 12 1 9 0;
#X connect 13 0 14 0;
#X connect 14 0 7 0;
#X connect 15 0 16 0;
#X connect 16 0 3 0;
#X connect 17 0 2 0;
