#N canvas 499 364 860 512 10;
#X obj 203 183 -;
#X msg 157 163 0;
#X obj 157 141 route bang float;
#X obj 203 320 +;
#X obj 203 359 t f f;
#X obj 290 381 t f f;
#X obj 203 253 wrap;
#X obj 296 5 loadbang;
#X obj 323 47 \$1;
#X obj 296 48 \$2;
#X obj 296 83 -;
#X obj 296 26 t b b;
#X obj 203 231 /;
#X obj 203 275 *;
#X obj 157 119 inlet;
#X obj 203 405 outlet;
#X obj 335 131 / 2;
#X obj 203 207 +;
#X obj 203 298 -;
#X obj 296 106 t f f f;
#X obj 335 154 t f f;
#X connect 0 0 17 0;
#X connect 1 0 5 0;
#X connect 2 0 1 0;
#X connect 2 1 0 0;
#X connect 3 0 4 0;
#X connect 4 0 15 0;
#X connect 4 1 5 0;
#X connect 5 0 3 1;
#X connect 5 1 0 1;
#X connect 6 0 13 0;
#X connect 7 0 11 0;
#X connect 8 0 10 1;
#X connect 9 0 10 0;
#X connect 10 0 19 0;
#X connect 11 0 9 0;
#X connect 11 1 8 0;
#X connect 12 0 6 0;
#X connect 13 0 18 0;
#X connect 14 0 2 0;
#X connect 16 0 20 0;
#X connect 17 0 12 0;
#X connect 18 0 3 0;
#X connect 19 0 12 1;
#X connect 19 1 13 1;
#X connect 19 2 16 0;
#X connect 20 0 17 1;
#X connect 20 1 18 1;
