#N canvas 0 0 714 565 12;
#X obj 253 306 vu 20 80 empty empty -1 -10 0 12 #7c7c7c #000000 0 0;
#X obj 258 24 loadbang;
#X msg 191 78 2;
#X obj 11 78 env~ 1024;
#X obj 113 79 abs~;
#X obj 113 141 snapshot~;
#X obj 113 164 rmstodb;
#X obj 113 9 inlet~;
#X obj 113 196 - 100;
#X obj 11 156 - 100;
#X obj 113 114 slop~ 0 0 0 0 1e+09;
#X obj 11 120 t f b;
#X msg 258 79 scale \$1;
#X obj 258 49 \$1;
#X msg 352 79 scale 1;
#X obj 345 139 sel 0 1;
#X obj 52 350 namecanvas \$0-r;
#X obj 325 167 \$0;
#X obj 325 192 makefilename %d-r;
#X obj 381 263 \$0;
#X obj 381 288 makefilename %d-r;
#X msg 325 217 \; \$1 coords 0 -1 1 1 28 92 2 250 300;
#X msg 381 313 \; \$1 coords 0 -1 1 1 56 92 2 250 300;
#X connect 1 0 2 0;
#X connect 1 0 13 0;
#X connect 2 0 10 3;
#X connect 3 0 11 0;
#X connect 4 0 10 0;
#X connect 5 0 6 0;
#X connect 6 0 8 0;
#X connect 7 0 3 0;
#X connect 7 0 4 0;
#X connect 8 0 0 1;
#X connect 9 0 0 0;
#X connect 10 0 5 0;
#X connect 11 0 9 0;
#X connect 11 1 5 0;
#X connect 12 0 0 0;
#X connect 13 0 12 0;
#X connect 13 0 15 0;
#X connect 14 0 0 0;
#X connect 15 0 17 0;
#X connect 15 1 19 0;
#X connect 17 0 18 0;
#X connect 18 0 21 0;
#X connect 19 0 20 0;
#X connect 20 0 22 0;
#X coords 0 -1 1 1 28 92 2 250 300;
