#N canvas 450 99 352 665 10;
#X obj -69 68 mtof;
#X obj -69 107 phasor~;
#X obj 148 279 / 127;
#X obj 62 51 * 150;
#X obj 62 77 + 50;
#X obj 129 455 *~ 1;
#X obj 214 377 sel 0;
#X obj 62 326 / 127;
#X obj -68 22 inlet;
#X obj 62 23 inlet;
#X obj 111 23 inlet;
#X obj -7 24 inlet;
#X text -16 3 velocity;
#X text 57 2 cutoff;
#X text 109 3 resonance;
#X text -68 3 note;
#X obj -39 497 *~;
#X obj 174 22 inlet;
#X text 182 5 env;
#X obj -2 84 moses 0;
#X obj -41 525 *~ 5;
#X obj -37 617 outlet~;
#X obj -36 556 +~ 0.01;
#X obj -6 173 float;
#X obj 41 173 float;
#X msg -33 286 20000;
#X obj 14 295 pack 0 0;
#X obj -7 122 t b b;
#X obj -27 219 sel 0;
#X obj -26 399 vline~;
#X obj -41 450 svf~ low;
#X obj 108 348 eadsr~ 0 20 0.9 10;
#X obj -37 592 ../fx/normalize~;
#X connect 0 0 1 0;
#X connect 1 0 30 0;
#X connect 2 0 6 0;
#X connect 2 0 31 0;
#X connect 3 0 4 0;
#X connect 4 0 23 1;
#X connect 5 0 16 1;
#X connect 6 1 5 1;
#X connect 7 0 30 2;
#X connect 8 0 0 0;
#X connect 9 0 3 0;
#X connect 10 0 7 0;
#X connect 11 0 2 0;
#X connect 11 0 19 0;
#X connect 16 0 20 0;
#X connect 17 0 24 1;
#X connect 19 1 27 0;
#X connect 20 0 22 0;
#X connect 22 0 32 0;
#X connect 23 0 26 0;
#X connect 24 0 26 1;
#X connect 24 0 28 0;
#X connect 25 0 29 0;
#X connect 26 0 29 0;
#X connect 27 0 23 0;
#X connect 27 1 24 0;
#X connect 28 1 25 0;
#X connect 29 0 30 1;
#X connect 30 0 16 0;
#X connect 31 0 5 0;
#X connect 32 0 21 0;
#X coords 0 0 1 1 200 140 0;
