#N canvas 543 143 659 621 10;
#X declare -lib bsaylor -lib creb;
#X obj 33 -17 inlet;
#X obj 134 -23 inlet;
#X obj 253 -18 inlet;
#X obj 308 -18 inlet;
#X obj 359 -17 inlet;
#X obj 195 528 outlet~;
#X text 33 -36 freq;
#X text 133 -38 vel;
#X text 248 -35 cutoff;
#X text 312 -38 res;
#X text 355 -38 pulsewidth;
#X obj 131 364 svf~ low;
#X obj 97 263 +~;
#X obj 146 269 +~;
#X obj 162 214 *~ 0.5;
#X obj 233 214 *~ 0.3;
#X obj 130 320 +~;
#X obj 113 215 *~ 0.5;
#X obj 18 174 pulsewidth~;
#X obj 193 443 *~;
#X obj 194 492 *~;
#X obj 208 363 eadsr~ 20 220 0.5 180;
#X obj 179 9 sel 0;
#X obj 382 364 / 127;
#X msg 183 41 0;
#X obj 81 97 * 0.97;
#X obj 163 100 * 1.02;
#X obj 226 97 * 1.11;
#X obj 105 175 pulsewidth~;
#X obj 191 175 pulsewidth~;
#X obj 280 176 pulsewidth~;
#X obj 411 31 loadbang;
#X msg 410 70 0.5;
#X obj 332 215 *~ 0.5;
#X obj 403 215 *~ 0.3;
#X obj 361 176 pulsewidth~;
#X obj 450 177 pulsewidth~;
#X obj 305 281 +~;
#X obj 130 343 +~;
#X obj 353 119 * 0.93;
#X obj 446 115 * 1.21;
#X obj 376 538 import bsaylor creb;
#X connect 0 0 18 0;
#X connect 0 0 25 0;
#X connect 0 0 26 0;
#X connect 0 0 27 0;
#X connect 0 0 39 0;
#X connect 0 0 40 0;
#X connect 1 0 22 0;
#X connect 1 0 21 0;
#X connect 2 0 11 1;
#X connect 3 0 11 2;
#X connect 4 0 18 1;
#X connect 4 0 28 1;
#X connect 4 0 29 1;
#X connect 4 0 30 1;
#X connect 4 0 36 1;
#X connect 4 0 35 1;
#X connect 11 0 19 0;
#X connect 12 0 16 0;
#X connect 13 0 16 1;
#X connect 14 0 13 0;
#X connect 15 0 13 1;
#X connect 16 0 38 0;
#X connect 17 0 12 1;
#X connect 18 0 12 0;
#X connect 19 0 20 0;
#X connect 20 0 5 0;
#X connect 21 0 19 1;
#X connect 22 1 23 0;
#X connect 22 1 24 0;
#X connect 23 0 20 1;
#X connect 24 0 18 2;
#X connect 24 0 28 2;
#X connect 24 0 29 2;
#X connect 24 0 30 2;
#X connect 24 0 35 2;
#X connect 24 0 36 2;
#X connect 25 0 28 0;
#X connect 26 0 29 0;
#X connect 27 0 30 0;
#X connect 28 0 17 0;
#X connect 29 0 14 0;
#X connect 30 0 15 0;
#X connect 31 0 32 0;
#X connect 32 0 18 1;
#X connect 32 0 28 1;
#X connect 32 0 29 1;
#X connect 32 0 30 1;
#X connect 32 0 35 1;
#X connect 32 0 36 1;
#X connect 33 0 37 0;
#X connect 34 0 37 1;
#X connect 35 0 33 0;
#X connect 36 0 34 0;
#X connect 37 0 38 1;
#X connect 38 0 11 0;
#X connect 39 0 35 0;
#X connect 40 0 36 0;
