#N canvas 543 143 659 621 10;
#X declare -lib bsaylor -lib creb;
#X obj 33 -17 inlet;
#X obj 134 -23 inlet;
#X obj 253 -18 inlet;
#X obj 308 -18 inlet;
#X obj 195 528 outlet~;
#X text 33 -36 freq;
#X text 133 -38 vel;
#X text 248 -35 cutoff;
#X text 312 -38 res;
#X obj 131 364 svf~ low;
#X obj 97 263 +~;
#X obj 146 269 +~;
#X obj 162 214 *~ 0.5;
#X obj 233 214 *~ 0.3;
#X obj 130 320 +~;
#X obj 113 215 *~ 0.5;
#X obj 193 443 *~;
#X obj 194 492 *~;
#X obj 179 9 sel 0;
#X obj 382 364 / 127;
#X msg 192 48 0;
#X obj 226 97 * 1.11;
#X obj 332 215 *~ 0.5;
#X obj 403 215 *~ 0.3;
#X obj 305 281 +~;
#X obj 130 343 +~;
#X obj 18 174 phasor~;
#X obj 105 175 phasor~;
#X obj 191 175 phasor~;
#X obj 280 176 phasor~;
#X obj 361 176 phasor~;
#X obj 450 177 phasor~;
#X obj 208 363 eadsr~ 20 220 0.5 700;
#X obj 81 97 * 0.87;
#X obj 163 100 * 1.27;
#X obj 446 115 * 0.91;
#X obj 353 119 * 0.97;
#X obj 443 517 import bsaylor creb;
#X connect 0 0 21 0;
#X connect 0 0 26 0;
#X connect 0 0 33 0;
#X connect 0 0 34 0;
#X connect 0 0 35 0;
#X connect 0 0 36 0;
#X connect 1 0 18 0;
#X connect 1 0 32 0;
#X connect 2 0 9 1;
#X connect 3 0 9 2;
#X connect 9 0 16 0;
#X connect 10 0 14 0;
#X connect 11 0 14 1;
#X connect 12 0 11 0;
#X connect 13 0 11 1;
#X connect 14 0 25 0;
#X connect 15 0 10 1;
#X connect 16 0 17 0;
#X connect 17 0 4 0;
#X connect 18 1 19 0;
#X connect 18 1 20 0;
#X connect 19 0 17 1;
#X connect 20 0 26 1;
#X connect 20 0 27 1;
#X connect 20 0 28 1;
#X connect 20 0 29 1;
#X connect 20 0 30 1;
#X connect 20 0 31 1;
#X connect 21 0 29 0;
#X connect 22 0 24 0;
#X connect 23 0 24 1;
#X connect 24 0 25 1;
#X connect 25 0 9 0;
#X connect 26 0 10 0;
#X connect 27 0 15 0;
#X connect 28 0 12 0;
#X connect 29 0 13 0;
#X connect 30 0 22 0;
#X connect 31 0 23 0;
#X connect 32 0 16 1;
#X connect 33 0 27 0;
#X connect 34 0 28 0;
#X connect 35 0 31 0;
#X connect 36 0 30 0;
