#N canvas 691 103 321 391 10;
#X declare -lib zexy;
#X declare -lib bsaylor -lib creb;
#X obj -69 68 mtof;
#X obj 42 57 / 127;
#X obj -5 159 svf~ low;
#X obj 107 64 * 150;
#X obj 106 89 + 50;
#X obj 201 161 sel 0;
#X obj 165 66 / 127;
#X obj -68 22 inlet;
#X obj 104 32 inlet;
#X obj 168 27 inlet;
#X obj 42 26 inlet;
#X text 24 8 velocity;
#X text 100 9 cutoff;
#X text 168 6 resonance;
#X obj -5 333 outlet~;
#X text -68 3 note;
#X obj -6 233 *~;
#X obj 104 200 *~ 1;
#X obj 46 88 t f f;
#X obj -7 263 *~ 5;
#X obj 63 159 eadsr~ 0 20 0.9 10;
#X obj -69 109 pulsewidth~ 0 0.5;
#X obj -6 299 ../fx/normalize~;
#X obj 77 333 import bsaylor creb;
#X connect 0 0 21 0;
#X connect 1 0 18 0;
#X connect 2 0 16 0;
#X connect 3 0 4 0;
#X connect 4 0 2 1;
#X connect 5 1 17 1;
#X connect 6 0 2 2;
#X connect 7 0 0 0;
#X connect 8 0 3 0;
#X connect 9 0 6 0;
#X connect 10 0 1 0;
#X connect 16 0 19 0;
#X connect 17 0 16 1;
#X connect 18 0 20 0;
#X connect 18 1 5 0;
#X connect 19 0 22 0;
#X connect 20 0 17 0;
#X connect 21 0 2 0;
#X connect 22 0 14 0;
#X coords 0 0 1 1 200 140 0;
