#N canvas 635 256 450 444 10;
#X declare -lib zexy;
#X obj 79 29 inlet;
#X obj 79 87 phasor~;
#X obj 268 140 <~ 0.5;
#X obj 110 139 >~ 0.5;
#X obj 50 197 *~;
#X obj 252 165 *~;
#X obj 50 137 *~ -1;
#X obj 50 163 +~ 1;
#X obj 161 240 +~;
#X obj 162 275 -~ 0.25;
#X obj 163 302 *~ 4;
#X obj 162 358 outlet~;
#X obj 340 30 inlet;
#X obj 79 58 \$1;
#X obj 342 345 import zexy;
#X connect 0 0 13 0;
#X connect 1 0 3 0;
#X connect 1 0 2 0;
#X connect 1 0 5 0;
#X connect 1 0 6 0;
#X connect 2 0 5 1;
#X connect 3 0 4 1;
#X connect 4 0 8 0;
#X connect 5 0 8 1;
#X connect 6 0 7 0;
#X connect 7 0 4 0;
#X connect 8 0 9 0;
#X connect 9 0 10 0;
#X connect 10 0 11 0;
#X connect 12 0 1 1;
#X connect 13 0 1 0;
