#N canvas 635 256 748 507 10;
#X obj 79 29 inlet;
#X obj 79 87 phasor~;
#X obj 79 199 *~;
#X obj 146 199 *~;
#X obj 80 152 *~ -1;
#X obj 80 178 +~ 1;
#X obj 78 240 +~;
#X obj 79 275 -~ 0.25;
#X obj 80 302 *~ 4;
#X obj 79 328 outlet~;
#X obj 340 30 inlet;
#X obj 79 58 \$1;
#X obj 210 130 expr~ if ($v1 >= 0.5 \, 0 \, 1) \; if ($v1 < 0.5 \,
0 \, 1);
#X connect 0 0 11 0;
#X connect 1 0 3 0;
#X connect 1 0 4 0;
#X connect 1 0 12 0;
#X connect 2 0 6 0;
#X connect 3 0 6 1;
#X connect 4 0 5 0;
#X connect 5 0 2 0;
#X connect 6 0 7 0;
#X connect 7 0 8 0;
#X connect 8 0 9 0;
#X connect 10 0 1 1;
#X connect 11 0 1 0;
#X connect 12 0 2 1;
#X connect 12 1 3 1;
