#N canvas 635 261 748 507 10;
#X obj 79 269 *~;
#X obj 146 269 *~;
#X obj 80 222 *~ -1;
#X obj 80 248 +~ 1;
#X obj 78 310 +~;
#X obj 79 345 -~ 0.25;
#X obj 80 372 *~ 4;
#X obj 79 398 outlet~;
#X obj 340 100 inlet;
#X obj 210 200 expr~ if ($v1 >= 0.5 \, 0 \, 1) \; if ($v1 < 0.5 \, 0 \, 1);
#X obj 81 157 phasor~ \$1;
#X obj 80 99 inlet~;
#X obj 80 38 loadbang;
#X obj 80 61 \$1;
#X connect 0 0 4 0;
#X connect 1 0 4 1;
#X connect 2 0 3 0;
#X connect 3 0 0 0;
#X connect 4 0 5 0;
#X connect 5 0 6 0;
#X connect 6 0 7 0;
#X connect 8 0 10 1;
#X connect 9 0 0 1;
#X connect 9 1 1 1;
#X connect 10 0 1 0;
#X connect 10 0 2 0;
#X connect 10 0 9 0;
#X connect 11 0 10 0;
#X connect 12 0 13 0;
#X connect 13 0 11 0;
