#N canvas 390 128 450 300 10;
#X obj 103 74 inlet~;
#X obj 103 220 outlet~;
#X obj 102 106 *~ \$1;
#X obj 103 197 /~ \$1;
#X obj 103 158 expr~ int($v1);
#X obj 190 65 inlet;
#X connect 0 0 2 0;
#X connect 2 0 4 0;
#X connect 3 0 1 0;
#X connect 4 0 3 0;
#X connect 5 0 2 1;
#X connect 5 0 3 1;
