#N canvas 390 133 450 300 10;
#X obj 103 24 inlet~;
#X obj 103 220 outlet~;
#X obj 103 173 expr~ int($v1);
#X obj 250 25 inlet;
#X obj 265 55 loadbang;
#X obj 265 83 \$1;
#X obj 265 105 sel 0;
#X obj 103 197 /~ 24;
#X obj 103 147 *~ 24;
#X connect 0 0 8 0;
#X connect 2 0 7 0;
#X connect 3 0 7 1;
#X connect 3 0 8 1;
#X connect 4 0 5 0;
#X connect 5 0 6 0;
#X connect 6 1 7 1;
#X connect 6 1 8 1;
#X connect 7 0 1 0;
#X connect 8 0 2 0;
