#N canvas 656 399 396 210 10;
#X obj 13 49 hip~ 5;
#X obj 14 139 *~;
#X obj 58 99 limiter~ 50;
#X obj 14 16 inlet~;
#X obj 14 181 outlet~;
#X obj 14 99 z~ 64;
#X connect 0 0 2 0;
#X connect 0 0 5 0;
#X connect 1 0 4 0;
#X connect 2 0 1 1;
#X connect 3 0 0 0;
#X connect 5 0 1 0;
