#N canvas 627 162 450 452 10;
#X obj 82 95 inlet~;
#X obj 81 396 outlet~;
#X obj 169 397 outlet~;
#X obj 201 89 inlet;
#X obj 204 195 hsl 128 30 0 1 0 1 empty empty empty -2 -8 0 10 #fcfcfc #000000 #000000 6350 1;
#X obj 131 94 loadbang;
#X msg 131 146 0.5;
#X obj 337 195 bng 30 250 50 0 empty empty rst 34 16 0 10 #fcfcfc #000000 #000000;
#X obj 201 142 line;
#X msg 201 112 \$1 1;
#X obj 97 325 cos~;
#X obj 168 366 *~;
#X obj 81 366 *~;
#X obj 201 255 sig~;
#X obj 201 301 cos~;
#X obj 201 230 / 4;
#X obj 201 278 -~ 0.25;
#X connect 0 0 11 0;
#X connect 0 0 12 0;
#X connect 3 0 9 0;
#X connect 4 0 15 0;
#X connect 5 0 6 0;
#X connect 6 0 4 0;
#X connect 7 0 6 0;
#X connect 8 0 4 0;
#X connect 9 0 8 0;
#X connect 10 0 12 1;
#X connect 11 0 2 0;
#X connect 12 0 1 0;
#X connect 13 0 10 0;
#X connect 13 0 16 0;
#X connect 14 0 11 1;
#X connect 15 0 13 0;
#X connect 16 0 14 0;
#X coords 0 -1 1 1 191 47 1 198 180;
