#N canvas 649 162 450 452 10;
#X obj 82 95 inlet~;
#X obj 81 396 outlet~;
#X obj 169 397 outlet~;
#X obj 201 89 inlet;
#X obj 204 195 hsl 128 30 0 1 0 1 empty empty empty -2 -8 0 10 -262144
-1 -1 6350 1;
#X obj 114 289 -;
#X msg 114 263 1 \$1;
#X obj 168 366 *~ 0.5;
#X obj 81 366 *~ 0.5;
#X obj 131 94 loadbang;
#X msg 131 146 0.5;
#X msg 158 205 0;
#X obj 131 119 t b b;
#X obj 114 315 *;
#X obj 114 339 sin;
#X obj 201 282 *;
#X obj 201 305 sin;
#X obj 337 195 bng 30 250 50 0 empty empty rst 34 16 0 10 -262144 -1
-1;
#X obj 158 233 cyclone/acos;
#X connect 0 0 7 0;
#X connect 0 0 8 0;
#X connect 3 0 4 0;
#X connect 4 0 6 0;
#X connect 4 0 15 0;
#X connect 5 0 13 0;
#X connect 6 0 5 0;
#X connect 7 0 2 0;
#X connect 8 0 1 0;
#X connect 9 0 12 0;
#X connect 10 0 4 0;
#X connect 11 0 18 0;
#X connect 12 0 10 0;
#X connect 12 1 11 0;
#X connect 13 0 14 0;
#X connect 14 0 8 1;
#X connect 15 0 16 0;
#X connect 16 0 7 1;
#X connect 17 0 10 0;
#X connect 18 0 13 1;
#X connect 18 0 15 1;
#X coords 0 -1 1 1 193 47 1 198 180;
