#N canvas 0 50 332 268 10;
#X obj 9 10 inlet~;
#X obj 11 204 outlet~;
#X obj 120 8 inlet;
#X obj 81 34 osc~ \$1;
#X obj 10 173 +~;
#X obj 171 10 inlet;
#X obj 93 63 *~ \$2;
#X obj 156 64 metro 1;
#X obj 156 41 loadbang;
#X obj 93 93 snapshot~;
#X obj 93 117 abs;
#X obj 60 143 cyclone/delay~;
#X connect 0 0 4 0;
#X connect 0 0 11 0;
#X connect 2 0 3 1;
#X connect 3 0 6 0;
#X connect 4 0 1 0;
#X connect 5 0 6 1;
#X connect 6 0 9 0;
#X connect 7 0 9 0;
#X connect 8 0 7 0;
#X connect 9 0 10 0;
#X connect 10 0 11 1;
#X connect 11 0 4 1;
