#N canvas 720 148 620 558 10;
#X obj 228 200 phasor~;
#X obj 67 321 *~;
#X floatatom 228 84 5 0 0 0 - - - 0;
#X obj 326 259 +~ 0.5;
#X obj 327 294 wrap~;
#X obj 19 20 inlet~;
#X obj 66 519 outlet~;
#X obj 168 24 inlet;
#X obj 228 58 \$1;
#X obj 228 3 loadbang;
#X obj 228 26 t b b;
#X obj 65 238 -~ 0.5;
#X obj 65 269 *~ 0.5;
#X obj 66 294 cos~;
#X obj 242 415 *~;
#X obj 240 332 -~ 0.5;
#X obj 240 363 *~ 0.5;
#X obj 241 388 cos~;
#X obj 228 177 expr (pow(2 \, ($f1/12)) - 1) * -20;
#X obj 18 51 delwrite~ \$0-b1 200;
#X obj 135 285 delread4~ \$0-b1;
#X obj 310 379 delread4~ \$0-b1;
#X obj 310 356 *~ 50;
#X obj 135 262 *~ 50;
#X connect 0 0 3 0;
#X connect 0 0 11 0;
#X connect 0 0 23 0;
#X connect 1 0 6 0;
#X connect 2 0 18 0;
#X connect 3 0 4 0;
#X connect 4 0 15 0;
#X connect 4 0 22 0;
#X connect 5 0 19 0;
#X connect 7 0 2 0;
#X connect 8 0 2 0;
#X connect 9 0 10 0;
#X connect 10 0 8 0;
#X connect 11 0 12 0;
#X connect 12 0 13 0;
#X connect 13 0 1 0;
#X connect 14 0 6 0;
#X connect 15 0 16 0;
#X connect 16 0 17 0;
#X connect 17 0 14 0;
#X connect 18 0 0 0;
#X connect 20 0 1 1;
#X connect 21 0 14 1;
#X connect 22 0 21 0;
#X connect 23 0 20 0;
