#N canvas 44 51 620 558 10;
#X obj 228 200 phasor~;
#X obj 65 268 *~ -1;
#X obj 65 299 +~ 1;
#X obj 131 342 sig~ 1;
#X obj 182 343 cos~;
#X obj 132 366 -~;
#X obj 133 391 *~ 0.5;
#X obj 67 441 *~;
#X obj 121 313 samphold~;
#X obj 66 344 *~;
#X obj 122 285 sig~;
#X floatatom 274 84 5 0 0 0 - - -;
#X obj 274 110 t b f;
#X obj 496 172 / 44.1;
#X obj 231 333 *~ -1;
#X obj 231 360 +~ 1;
#X obj 348 364 sig~ 1;
#X obj 403 362 cos~;
#X obj 349 388 -~;
#X obj 350 413 *~ 0.5;
#X obj 232 457 *~;
#X obj 275 365 samphold~;
#X obj 232 393 *~;
#X obj 276 334 sig~;
#X obj 326 259 +~ 0.5;
#X obj 327 294 wrap~;
#X obj 19 20 inlet~;
#X obj 66 519 outlet~;
#X obj 18 51 delwrite~ \$0-b1 5000;
#X obj 66 380 vd~ \$0-b1;
#X obj 232 421 vd~ \$0-b1;
#X obj 168 24 inlet;
#X msg 229 136 8192;
#X obj 274 58 \$1;
#X obj 502 72 samplerate~;
#X obj 529 129 / 100;
#X obj 228 177 expr (pow(2 \, ($f2/12)) - 1) * ($f3/$f1);
#X obj 274 3 loadbang;
#X obj 274 26 t b b;
#X obj 502 101 t f f;
#X connect 0 0 1 0;
#X connect 0 0 4 0;
#X connect 0 0 8 1;
#X connect 0 0 24 0;
#X connect 1 0 2 0;
#X connect 2 0 9 0;
#X connect 3 0 5 0;
#X connect 4 0 5 1;
#X connect 5 0 6 0;
#X connect 6 0 7 1;
#X connect 7 0 27 0;
#X connect 8 0 9 1;
#X connect 9 0 29 0;
#X connect 10 0 8 0;
#X connect 11 0 12 0;
#X connect 12 0 32 0;
#X connect 12 1 36 1;
#X connect 13 0 10 0;
#X connect 13 0 23 0;
#X connect 14 0 15 0;
#X connect 15 0 22 0;
#X connect 16 0 18 0;
#X connect 17 0 18 1;
#X connect 18 0 19 0;
#X connect 19 0 20 1;
#X connect 20 0 27 0;
#X connect 21 0 22 1;
#X connect 22 0 30 0;
#X connect 23 0 21 0;
#X connect 24 0 25 0;
#X connect 25 0 14 0;
#X connect 25 0 21 1;
#X connect 25 0 17 0;
#X connect 26 0 28 0;
#X connect 29 0 7 0;
#X connect 30 0 20 0;
#X connect 31 0 11 0;
#X connect 32 0 13 0;
#X connect 32 0 36 0;
#X connect 33 0 11 0;
#X connect 34 0 39 0;
#X connect 35 0 13 1;
#X connect 36 0 0 0;
#X connect 37 0 38 0;
#X connect 38 0 33 0;
#X connect 38 1 34 0;
#X connect 39 0 36 2;
#X connect 39 1 35 0;
