#N canvas 36 138 778 554 10;
#X obj 76 49 inlet~;
#X obj 76 313 outlet~;
#X obj 421 50 inlet;
#X obj 247 82 bng 30 250 50 0 empty empty empty 17 7 0 10 -262144 -1
-1;
#X obj 203 82 tgl 30 0 empty empty empty 17 7 0 10 -262144 -1 -1 0
1;
#X obj 77 271 *~ 1;
#X obj 206 231 *~ 0;
#X obj 206 264 *~ 0;
#X obj 203 149 t b f f;
#X msg 203 171 1;
#X obj 203 193 -;
#X obj 247 9 loadbang;
#N canvas 46 58 450 300 write 0;
#X obj 33 29 inlet;
#X obj 34 159 random 127;
#X msg 34 83 16;
#X obj 34 105 until;
#X obj 34 181 / 127;
#X obj 34 130 t b b, f 10;
#X obj 123 159 f;
#X obj 153 158 + 1;
#X obj 34 58 t b b;
#X msg 139 114 0;
#X obj 34 208 tabwrite \$0-store;
#X connect 0 0 8 0;
#X connect 1 0 4 0;
#X connect 2 0 3 0;
#X connect 3 0 5 0;
#X connect 4 0 10 0;
#X connect 5 0 1 0;
#X connect 5 1 6 0;
#X connect 6 0 7 0;
#X connect 6 0 10 1;
#X connect 7 0 6 1;
#X connect 8 0 2 0;
#X connect 8 1 9 0;
#X connect 9 0 6 1;
#X restore 247 129 pd write;
#N canvas 36 83 738 559 synchronize 0;
#X obj 80 40 inlet;
#X obj 111 252 outlet;
#X obj 129 65 metro 1;
#X obj 129 141 f;
#X obj 80 65 t b b;
#X obj 111 164 f;
#X obj 111 223 / 16;
#X msg 80 98 0;
#X obj 168 139 + 1;
#X obj 129 41 loadbang;
#X obj 111 193 moses 10000;
#X connect 0 0 4 0;
#X connect 2 0 3 0;
#X connect 3 0 5 1;
#X connect 3 0 8 0;
#X connect 4 0 7 0;
#X connect 4 1 5 0;
#X connect 5 0 10 0;
#X connect 6 0 1 0;
#X connect 7 0 3 1;
#X connect 8 0 3 1;
#X connect 9 0 2 0;
#X connect 10 0 6 0;
#X restore 421 95 pd synchronize;
#N canvas 46 103 450 263 read 0;
#X obj 146 11 inlet;
#X obj 87 220 outlet;
#X obj 87 44 metro 100;
#X obj 87 148 tabread \$0-store;
#X obj 87 89 f;
#X obj 127 89 + 1;
#X msg 188 55 0;
#X obj 87 115 moses 16;
#X obj 49 12 loadbang;
#X obj 189 11 inlet;
#X obj 243 138 / 10;
#X obj 87 186 pack f 10;
#X connect 0 0 2 1;
#X connect 0 0 10 0;
#X connect 2 0 4 0;
#X connect 3 0 11 0;
#X connect 4 0 5 0;
#X connect 4 0 7 0;
#X connect 5 0 4 1;
#X connect 6 0 4 1;
#X connect 7 0 3 0;
#X connect 7 1 6 0;
#X connect 8 0 2 0;
#X connect 9 0 6 0;
#X connect 10 0 11 1;
#X connect 11 0 1 0;
#X restore 421 126 pd read;
#X obj 421 231 line 0 10;
#N canvas 0 50 450 250 (subpatch) 0;
#X array \$0-store 16 float 3;
#A 0 0.023622 0.440945 0.0866142 0.511811 0.00787402 0.787402 0.102362
0.582677 0.566929 0.669291 0.669291 0.976378 0.834646 0.874016 0.0393701
0.685039;
#X coords 0 1 16 0 100 50 2 0 0;
#X restore 288 71 graph;
#X connect 0 0 5 0;
#X connect 0 0 6 0;
#X connect 2 0 13 0;
#X connect 2 0 14 1;
#X connect 3 0 12 0;
#X connect 4 0 8 0;
#X connect 5 0 1 0;
#X connect 6 0 7 0;
#X connect 7 0 1 0;
#X connect 8 0 9 0;
#X connect 8 1 10 1;
#X connect 8 2 7 1;
#X connect 9 0 10 0;
#X connect 10 0 5 1;
#X connect 11 0 3 0;
#X connect 13 0 14 0;
#X connect 14 0 15 0;
#X connect 15 0 6 1;
#X coords 0 -1 1 1 193 68 1 200 55;
