#N canvas 623 98 450 300 10;
#X obj 40 3 inlet~;
#X obj 39 263 outlet~;
#X obj 287 25 hradio 30 1 0 4 empty empty empty 0 -8 0 10 -262144 -1
-1 0;
#X obj 40 118 *~ 1;
#X obj 252 24 tgl 30 1 empty empty empty 17 7 0 10 -262144 -1 -1 1
1;
#X msg 155 157 1;
#X obj 210 103 sel 0 1 2;
#X msg 128 158 0;
#X msg 254 157 1;
#X msg 226 156 0;
#N canvas 650 134 450 300 sigmund1 0;
#X obj 228 27 inlet;
#X obj 48 6 inlet~;
#X obj 52 281 outlet~;
#X obj 228 94 switch~;
#X obj 285 31 loadbang;
#X msg 285 58 0;
#X obj 202 166 dbtorms;
#X obj 51 242 *~ 0;
#X obj 49 63 mtof;
#X obj 49 136 phasor~;
#X obj 50 164 -~ 0.5;
#X obj 50 211 lop~;
#X obj 121 164 * 3;
#X obj 202 141 line;
#X msg 202 121 \$1 10;
#X obj 49 108 line;
#X msg 49 88 \$1 10;
#X obj 50 185 *~ 2;
#X obj 49 38 sigmund~ -hop 64 notes env;
#X connect 0 0 3 0;
#X connect 1 0 18 0;
#X connect 4 0 5 0;
#X connect 5 0 3 0;
#X connect 6 0 7 1;
#X connect 7 0 2 0;
#X connect 8 0 16 0;
#X connect 9 0 10 0;
#X connect 10 0 17 0;
#X connect 11 0 7 0;
#X connect 12 0 11 1;
#X connect 13 0 6 0;
#X connect 14 0 13 0;
#X connect 15 0 9 0;
#X connect 15 0 12 0;
#X connect 16 0 15 0;
#X connect 17 0 11 0;
#X connect 18 0 8 0;
#X connect 18 1 14 0;
#X restore 92 183 pd sigmund1;
#X msg 364 159 1;
#X msg 337 160 0;
#N canvas 238 320 450 300 sigmund2 0;
#X obj 295 28 inlet;
#X obj 48 6 inlet~;
#X obj 50 264 outlet~;
#X obj 295 95 switch~;
#X obj 352 32 loadbang;
#X msg 352 59 0;
#X obj 202 122 dbtorms;
#X obj 49 178 *~ 0;
#X obj 49 62 mtof;
#X obj 48 101 line;
#X msg 48 81 \$1 10;
#X obj 202 96 line;
#X msg 202 76 \$1 10;
#X obj 49 38 sigmund~ -hop 64 notes env;
#X obj 48 146 osc~;
#X connect 0 0 3 0;
#X connect 1 0 13 0;
#X connect 4 0 5 0;
#X connect 5 0 3 0;
#X connect 6 0 7 1;
#X connect 7 0 2 0;
#X connect 8 0 10 0;
#X connect 9 0 14 0;
#X connect 10 0 9 0;
#X connect 11 0 6 0;
#X connect 12 0 11 0;
#X connect 13 0 8 0;
#X connect 13 1 12 0;
#X connect 14 0 7 0;
#X restore 185 182 pd sigmund2;
#N canvas 583 118 450 456 drum 0;
#X obj 37 -4 inlet~;
#X obj 156 351 outlet~;
#X obj 30 117 osc~ 100;
#X obj 130 167 line~;
#X obj 30 198 *~;
#X obj 195 55 mtof;
#X obj 244 168 line~;
#X obj 36 55 dbtorms;
#X obj 143 102 f;
#X msg 130 139 \$1 \, 0 200;
#X obj 186 202 *~;
#X obj 185 167 noise~;
#X msg 246 137 \$1 \, 0 300;
#X obj 187 255 hip~ 300;
#X obj 186 228 lop~ 1000;
#X obj 328 17 inlet;
#X obj 328 84 switch~;
#X obj 385 21 loadbang;
#X msg 385 48 0;
#X obj 386 121 * 2;
#X obj 419 119 / 2;
#X obj 156 314 +~;
#X obj 143 61 bng 15 250 50 0 empty empty empty 17 7 0 10 -262144 -1
-1;
#X obj 36 26 sigmund~ -hop 64 env notes;
#X connect 0 0 23 0;
#X connect 2 0 4 0;
#X connect 3 0 4 1;
#X connect 4 0 21 0;
#X connect 5 0 2 0;
#X connect 5 0 19 0;
#X connect 5 0 20 0;
#X connect 6 0 10 1;
#X connect 7 0 8 1;
#X connect 8 0 9 0;
#X connect 8 0 12 0;
#X connect 9 0 3 0;
#X connect 10 0 14 0;
#X connect 11 0 10 0;
#X connect 12 0 6 0;
#X connect 13 0 21 1;
#X connect 14 0 13 0;
#X connect 15 0 16 0;
#X connect 17 0 18 0;
#X connect 18 0 16 0;
#X connect 19 0 14 1;
#X connect 20 0 13 1;
#X connect 21 0 1 0;
#X connect 22 0 8 0;
#X connect 23 0 7 0;
#X connect 23 1 5 0;
#X connect 23 1 22 0;
#X restore 299 185 pd drum;
#X connect 0 0 3 0;
#X connect 0 0 10 0;
#X connect 0 0 13 0;
#X connect 0 0 14 0;
#X connect 2 0 6 0;
#X connect 3 0 1 0;
#X connect 4 0 3 1;
#X connect 5 0 10 1;
#X connect 6 0 7 0;
#X connect 6 0 9 0;
#X connect 6 0 12 0;
#X connect 6 1 5 0;
#X connect 6 1 9 0;
#X connect 6 1 12 0;
#X connect 6 2 7 0;
#X connect 6 2 8 0;
#X connect 6 2 12 0;
#X connect 6 3 7 0;
#X connect 6 3 9 0;
#X connect 6 3 11 0;
#X connect 7 0 10 1;
#X connect 8 0 13 1;
#X connect 9 0 13 1;
#X connect 10 0 1 0;
#X connect 11 0 14 1;
#X connect 12 0 14 1;
#X connect 13 0 1 0;
#X connect 14 0 1 0;
#X coords 0 -1 1 1 160 47 1 250 10;
