#N canvas 44 51 450 300 10;
#X obj 40 3 inlet~;
#X obj 39 263 outlet~;
#X obj 287 25 hradio 30 1 0 4 empty empty empty 0 -8 0 10 -262144 -1
-1 0;
#X obj 40 118 *~ 1;
#X obj 252 24 tgl 30 1 empty empty empty 17 7 0 10 -262144 -1 -1 1
1;
#X msg 155 157 1;
#X obj 210 103 sel 0 1 2;
#X msg 128 158 0;
#X msg 254 157 1;
#X msg 226 156 0;
#N canvas 652 136 450 300 sigmund1 1;
#X obj 228 27 inlet;
#X obj 48 6 inlet~;
#X obj 52 281 outlet~;
#X obj 228 94 switch~;
#X obj 285 31 loadbang;
#X msg 285 58 0;
#X obj 202 166 dbtorms;
#X obj 51 242 *~ 0;
#X obj 49 63 mtof;
#X obj 49 136 phasor~;
#X obj 50 164 -~ 0.5;
#X obj 50 211 lop~;
#X obj 121 164 * 3;
#X obj 202 141 line;
#X msg 202 121 \$1 10;
#X obj 49 108 line;
#X msg 49 88 \$1 10;
#X obj 50 185 *~ 2;
#X obj 49 38 sigmund~ -hop 64 notes env;
#X connect 0 0 3 0;
#X connect 1 0 18 0;
#X connect 4 0 5 0;
#X connect 5 0 3 0;
#X connect 6 0 7 1;
#X connect 7 0 2 0;
#X connect 8 0 16 0;
#X connect 9 0 10 0;
#X connect 10 0 17 0;
#X connect 11 0 7 0;
#X connect 12 0 11 1;
#X connect 13 0 6 0;
#X connect 14 0 13 0;
#X connect 15 0 9 0;
#X connect 15 0 12 0;
#X connect 16 0 15 0;
#X connect 17 0 11 0;
#X connect 18 0 8 0;
#X connect 18 1 14 0;
#X restore 92 183 pd sigmund1;
#X msg 364 159 1;
#X msg 337 160 0;
#N canvas 593 128 450 300 bonk 0;
#X obj 310 1 inlet;
#X obj 37 -4 inlet~;
#X obj 86 263 outlet~;
#X obj 310 68 switch~;
#X obj 367 5 loadbang;
#X msg 367 32 0;
#X obj 36 59 unpack f f f f f f f f f f;
#X obj 256 91 ../synth/ad~ 602;
#X obj 226 108 ../synth/ad~ 499;
#X obj 192 131 ../synth/ad~ 402;
#X obj 159 86 ../synth/ad~ 347;
#X obj 140 109 ../synth/ad~ 397;
#X obj 123 130 ../synth/ad~ 203;
#X obj 97 83 ../synth/ad~ 151;
#X obj 58 97 ../synth/ad~ 121;
#X obj 45 116 ../synth/ad~ 83;
#X obj 16 134 ../synth/ad~ 49;
#X obj 36 26 bonk~ -hop 64 -npts 128;
#X connect 0 0 3 0;
#X connect 1 0 17 0;
#X connect 4 0 5 0;
#X connect 5 0 3 0;
#X connect 6 0 16 0;
#X connect 6 1 15 0;
#X connect 6 2 14 0;
#X connect 6 3 13 0;
#X connect 6 4 12 0;
#X connect 6 5 11 0;
#X connect 6 6 10 0;
#X connect 6 8 8 0;
#X connect 6 9 7 0;
#X connect 7 0 2 0;
#X connect 8 0 2 0;
#X connect 9 0 2 0;
#X connect 10 0 2 0;
#X connect 11 0 2 0;
#X connect 12 0 2 0;
#X connect 13 0 2 0;
#X connect 14 0 2 0;
#X connect 15 0 2 0;
#X connect 16 0 2 0;
#X connect 17 0 6 0;
#X restore 298 185 pd bonk;
#N canvas 240 322 450 300 sigmund2 0;
#X obj 295 28 inlet;
#X obj 48 6 inlet~;
#X obj 50 264 outlet~;
#X obj 295 95 switch~;
#X obj 352 32 loadbang;
#X msg 352 59 0;
#X obj 202 122 dbtorms;
#X obj 49 178 *~ 0;
#X obj 49 62 mtof;
#X obj 48 101 line;
#X msg 48 81 \$1 10;
#X obj 202 96 line;
#X msg 202 76 \$1 10;
#X obj 49 38 sigmund~ -hop 64 notes env;
#X obj 48 146 osc~;
#X connect 0 0 3 0;
#X connect 1 0 13 0;
#X connect 4 0 5 0;
#X connect 5 0 3 0;
#X connect 6 0 7 1;
#X connect 7 0 2 0;
#X connect 8 0 10 0;
#X connect 9 0 14 0;
#X connect 10 0 9 0;
#X connect 11 0 6 0;
#X connect 12 0 11 0;
#X connect 13 0 8 0;
#X connect 13 1 12 0;
#X connect 14 0 7 0;
#X restore 185 182 pd sigmund2;
#X connect 0 0 3 0;
#X connect 0 0 10 0;
#X connect 0 0 14 0;
#X connect 0 0 13 0;
#X connect 2 0 6 0;
#X connect 3 0 1 0;
#X connect 4 0 3 1;
#X connect 5 0 10 1;
#X connect 6 0 7 0;
#X connect 6 0 9 0;
#X connect 6 0 12 0;
#X connect 6 1 5 0;
#X connect 6 1 9 0;
#X connect 6 1 12 0;
#X connect 6 2 7 0;
#X connect 6 2 8 0;
#X connect 6 2 12 0;
#X connect 6 3 7 0;
#X connect 6 3 9 0;
#X connect 6 3 11 0;
#X connect 7 0 10 1;
#X connect 8 0 14 1;
#X connect 9 0 14 1;
#X connect 10 0 1 0;
#X connect 11 0 13 1;
#X connect 12 0 13 1;
#X connect 13 0 1 0;
#X connect 14 0 1 0;
#X coords 0 -1 1 1 160 47 1 250 10;
