#N canvas 617 92 927 637 10;
#X obj 39 2 inlet~;
#X obj 40 704 outlet~;
#X obj 40 238 *~ 1;
#X obj 252 174 tgl 30 1 empty empty empty 17 7 0 10 #fcfcfc #000000 #000000 1 1;
#X msg 798 450 1;
#X msg 771 451 0;
#N canvas 575 110 450 456 drum 0;
#X obj 37 -4 inlet~;
#X obj 114 402 outlet~;
#X obj 32 169 osc~ 100;
#X obj 51 225 line~;
#X obj 32 250 *~;
#X obj 222 75 mtof;
#X obj 185 223 line~;
#X obj 36 55 dbtorms;
#X obj 101 153 f;
#X msg 51 197 \$1 \, 0 200;
#X obj 127 257 *~;
#X obj 126 222 noise~;
#X msg 185 197 \$1 \, 0 300;
#X obj 128 310 hip~ 300;
#X obj 127 283 lop~ 1000;
#X obj 328 17 inlet;
#X obj 328 84 switch~;
#X obj 385 21 loadbang;
#X msg 385 48 0;
#X obj 265 198 * 2;
#X obj 300 198 / 2;
#X obj 114 365 +~;
#X obj 36 26 sigmund~ -hop 128 env notes;
#X obj 195 51 t b f;
#X connect 0 0 22 0;
#X connect 2 0 4 0;
#X connect 3 0 4 1;
#X connect 4 0 21 0;
#X connect 5 0 2 0;
#X connect 5 0 19 0;
#X connect 5 0 20 0;
#X connect 6 0 10 1;
#X connect 7 0 8 1;
#X connect 8 0 9 0;
#X connect 8 0 12 0;
#X connect 9 0 3 0;
#X connect 10 0 14 0;
#X connect 11 0 10 0;
#X connect 12 0 6 0;
#X connect 13 0 21 1;
#X connect 14 0 13 0;
#X connect 15 0 16 0;
#X connect 17 0 18 0;
#X connect 18 0 16 0;
#X connect 19 0 14 1;
#X connect 20 0 13 1;
#X connect 21 0 1 0;
#X connect 22 0 7 0;
#X connect 22 1 23 0;
#X connect 23 0 8 0;
#X connect 23 1 5 0;
#X restore 733 476 pd drum;
#X obj 63 461 *~ 0;
#X obj 61 355 phasor~;
#X obj 62 383 -~ 0.5;
#X obj 62 430 lop~;
#X obj 110 404 * 3;
#X obj 62 404 *~ 2;
#X obj 101 303 unpack f f f f;
#X obj 288 159 vsl 18 50 0 127 0 0 empty empty saw 0 -9 0 10 #fcfcfc #000000 #000000 0 1;
#X obj 99 460 / 127;
#X obj 310 159 vsl 18 50 0 127 0 0 empty empty 0 4 -9 0 10 #fcfcfc #000000 #000000 0 1;
#X obj 63 484 *~;
#X obj 183 429 *~ 0;
#X obj 219 428 / 127;
#X obj 183 452 *~;
#X obj 182 403 osc~;
#X obj 332 159 vsl 18 50 0 127 0 0 empty empty 1 6 -9 0 10 #fcfcfc #000000 #000000 0 1;
#X obj 354 159 vsl 18 50 0 127 0 0 empty empty 2 6 -9 0 10 #fcfcfc #000000 #000000 0 1;
#X obj 376 159 vsl 18 50 0 127 0 0 empty empty 3 6 -9 0 10 #fcfcfc #000000 #000000 0 1;
#X obj 261 395 unpack f f f f;
#X obj 262 444 *~ 0;
#X obj 298 443 / 127;
#X obj 262 467 *~;
#X obj 261 418 osc~;
#X obj 361 395 unpack f f f f;
#X obj 362 444 *~ 0;
#X obj 398 443 / 127;
#X obj 362 467 *~;
#X obj 361 418 osc~;
#X obj 461 395 unpack f f f f;
#X obj 462 444 *~ 0;
#X obj 498 443 / 127;
#X obj 462 467 *~;
#X obj 461 418 osc~;
#X obj 398 159 vsl 18 50 0 127 0 0 empty empty 4 6 -9 0 10 #fcfcfc #000000 #000000 0 1;
#X obj 420 159 vsl 18 50 0 127 0 0 empty empty 5 6 -9 0 10 #fcfcfc #000000 #000000 0 1;
#X obj 101 257 sigmund~ -hop 64 -npeak 6 peaks;
#X obj 101 280 route 0 1 2 3 4 5;
#X obj 561 395 unpack f f f f;
#X obj 562 444 *~ 0;
#X obj 598 443 / 127;
#X obj 562 467 *~;
#X obj 561 418 osc~;
#X obj 661 395 unpack f f f f;
#X obj 662 444 *~ 0;
#X obj 698 443 / 127;
#X obj 662 467 *~;
#X obj 661 418 osc~;
#X obj 338 66 route 0 1 2 3 4 5;
#X obj 251 95 route raw saw;
#X connect 0 0 2 0;
#X connect 0 0 6 0;
#X connect 0 0 42 0;
#X connect 0 1 54 0;
#X connect 2 0 1 0;
#X connect 3 0 2 1;
#X connect 4 0 6 1;
#X connect 5 0 6 1;
#X connect 6 0 1 0;
#X connect 7 0 17 0;
#X connect 8 0 9 0;
#X connect 9 0 12 0;
#X connect 10 0 7 0;
#X connect 11 0 10 1;
#X connect 12 0 10 0;
#X connect 13 0 8 0;
#X connect 13 0 11 0;
#X connect 13 0 21 0;
#X connect 13 1 7 1;
#X connect 13 1 18 1;
#X connect 14 0 15 0;
#X connect 15 0 17 1;
#X connect 16 0 19 0;
#X connect 17 0 1 0;
#X connect 18 0 20 0;
#X connect 19 0 20 1;
#X connect 20 0 1 0;
#X connect 21 0 18 0;
#X connect 22 0 27 0;
#X connect 23 0 32 0;
#X connect 24 0 37 0;
#X connect 25 0 29 0;
#X connect 25 1 26 1;
#X connect 26 0 28 0;
#X connect 27 0 28 1;
#X connect 28 0 1 0;
#X connect 29 0 26 0;
#X connect 30 0 34 0;
#X connect 30 1 31 1;
#X connect 31 0 33 0;
#X connect 32 0 33 1;
#X connect 33 0 1 0;
#X connect 34 0 31 0;
#X connect 35 0 39 0;
#X connect 35 1 36 1;
#X connect 36 0 38 0;
#X connect 37 0 38 1;
#X connect 38 0 1 0;
#X connect 39 0 36 0;
#X connect 40 0 46 0;
#X connect 41 0 51 0;
#X connect 42 0 43 0;
#X connect 43 0 13 0;
#X connect 43 1 25 0;
#X connect 43 2 30 0;
#X connect 43 3 35 0;
#X connect 43 4 44 0;
#X connect 43 5 49 0;
#X connect 44 0 48 0;
#X connect 44 1 45 1;
#X connect 45 0 47 0;
#X connect 46 0 47 1;
#X connect 47 0 1 0;
#X connect 48 0 45 0;
#X connect 49 0 53 0;
#X connect 49 1 50 1;
#X connect 50 0 52 0;
#X connect 51 0 52 1;
#X connect 52 0 1 0;
#X connect 53 0 50 0;
#X connect 54 0 16 0;
#X connect 54 1 22 0;
#X connect 54 2 23 0;
#X connect 54 3 24 0;
#X connect 54 4 40 0;
#X connect 54 5 41 0;
#X connect 54 6 55 0;
#X connect 55 0 3 0;
#X connect 55 1 14 0;
#X coords 0 -1 1 1 191 85 1 250 130;
